<svg height="512" viewBox="0 0 64 64" width="512" xmlns="http://www.w3.org/2000/svg"><g id="Layer_32" data-name="Layer 32"><path d="m32 1 2.931 1.954a36 36 0 0 0 19.969 6.046h.1v22.325a30 30 0 0 1 -12.868 24.627l-10.132 7.048-10.132-7.048a30 30 0 0 1 -12.868-24.627v-22.325h.1a36 36 0 0 0 19.969-6.046z" fill="#f8c460"/><path d="m10.453 40.526a30.008 30.008 0 0 0 7.332 12 66.9 66.9 0 0 1 28.43 0 30.008 30.008 0 0 0 7.332-12 67.877 67.877 0 0 0 -43.094 0z" fill="#faaf42"/><path d="m32 58-9.326-6.938a24 24 0 0 1 -9.674-19.256v-18.806c6.756-.854 13.222-3.637 19-7 5.778 3.363 12.244 6.146 19 7v18.806a24 24 0 0 1 -9.674 19.255z" fill="#fcab68"/><path d="m14.241 39.394a24 24 0 0 0 8.433 11.668l.678.5a66.408 66.408 0 0 1 17.3 0l.678-.505a23.993 23.993 0 0 0 8.433-11.667 67.31 67.31 0 0 0 -35.522.004z" fill="#ea8e49"/><path d="m25.674 50.062a24 24 0 0 1 -9.674-19.256v-18.325c-.994.209-1.992.392-3 .519v18.806a24 24 0 0 0 9.674 19.256l9.326 6.938 2.172-1.616z" fill="#ea8e49"/><path d="m16 59a36.306 36.306 0 0 0 -15 4l4-9-4-5q8.5-4 15-4z" fill="#f96464"/><path d="m7 59a74.12 74.12 0 0 1 9-2.511v-11.489a29.331 29.331 0 0 0 -9 1.6z" fill="#d34444"/><path d="m48 59a36.306 36.306 0 0 1 15 4l-4-9 4-5q-8.5-4-15-4z" fill="#f96464"/><g fill="#d34444"><path d="m57 59a74.12 74.12 0 0 0 -9-2.511v-11.489a29.331 29.331 0 0 1 9 1.6z"/><path d="m9 57 7 2v-6h-7z"/><path d="m55 57-7 2v-6h7z"/></g><path d="m55 57a68.129 68.129 0 0 0 -46 0v-14a68.129 68.129 0 0 1 46 0z" fill="#f96464"/><path d="m63.914 62.594-3.753-8.444 3.62-4.525a1 1 0 0 0 -.355-1.53 50.3 50.3 0 0 0 -7.426-2.844v-2.251a1 1 0 0 0 -.672-.944c-.373-.13-.747-.242-1.12-.365a30.848 30.848 0 0 0 1.792-10.366v-22.325a1.09 1.09 0 0 0 -1.1-1 34.9 34.9 0 0 1 -19.415-5.878l-2.93-1.954a1 1 0 0 0 -1.11 0l-2.93 1.954a34.981 34.981 0 0 1 -19.515 5.878 1 1 0 0 0 -1 1v22.325a30.856 30.856 0 0 0 1.792 10.366c-.374.123-.747.235-1.12.365a1 1 0 0 0 -.672.944v2.251a50.539 50.539 0 0 0 -7.426 2.849 1 1 0 0 0 -.355 1.53l3.62 4.525-3.753 8.439a1 1 0 0 0 1.346 1.306 35.454 35.454 0 0 1 14.582-3.9 1 1 0 0 0 .986-1v-3.254q1.155-.264 2.311-.486c.643.529 1.306 1.04 1.986 1.512l10.132 7.049a1 1 0 0 0 1.142 0l10.129-7.049c.68-.473 1.343-.984 1.986-1.512q1.157.224 2.311.487v3.253a1 1 0 0 0 .986 1 35.454 35.454 0 0 1 14.582 3.9 1 1 0 0 0 1.346-1.308zm-53.914-6.972v-11.908a67.363 67.363 0 0 1 44 0v11.907a69.2 69.2 0 0 0 -44 .001zm25.531-1.5-3.531 2.631-3.534-2.628a65.552 65.552 0 0 1 7.065.001zm-21.531-22.315v-17.936a51.777 51.777 0 0 0 18-6.716 51.8 51.8 0 0 0 18 6.716v17.935a22.847 22.847 0 0 1 -1.549 8.229 68.551 68.551 0 0 0 -32.9 0 22.854 22.854 0 0 1 -1.551-8.228zm-4-.482v-21.336a36.878 36.878 0 0 0 19.624-6.2l2.376-1.589 2.376 1.584a36.934 36.934 0 0 0 19.624 6.203v21.338a28.891 28.891 0 0 1 -1.7 9.751c-.629-.19-1.257-.36-1.886-.532a24.857 24.857 0 0 0 1.586-8.738v-18.806a1 1 0 0 0 -.875-.992c-5.857-.74-11.948-2.988-18.625-6.872a1 1 0 0 0 -1.006 0c-6.672 3.884-12.764 6.132-18.622 6.872a1 1 0 0 0 -.872.992v18.807a24.868 24.868 0 0 0 1.581 8.737c-.628.172-1.257.342-1.885.532a28.872 28.872 0 0 1 -1.696-9.751zm-4.086 23.081a1 1 0 0 0 -.133-1.031l-3.2-4a47.449 47.449 0 0 1 5.419-2.041v9.666a1 1 0 0 0 .726.961l2.083.6a39.976 39.976 0 0 0 -7.831 2.456zm9.086 3.268-2.567-.733q1.283-.384 2.567-.717zm26.561-2.543-9.561 6.651-9.562-6.652c-.153-.107-.3-.222-.455-.333q1.724-.262 3.449-.437l5.968 4.44a1 1 0 0 0 1.194 0l5.969-4.441q1.726.173 3.451.436c-.15.113-.299.229-.453.336zm10.008 1.809-2.569.734v-1.448c.857.223 1.713.458 2.569.714zm1.622 1.617 2.083-.6a1 1 0 0 0 .726-.957v-9.666a47.543 47.543 0 0 1 5.419 2.042l-3.2 4a1 1 0 0 0 -.133 1.031l2.936 6.607a39.976 39.976 0 0 0 -7.831-2.457z"/></g></svg>