<svg id="Layer_1" enable-background="new 0 0 512 512" height="512" viewBox="0 0 512 512" width="512" xmlns="http://www.w3.org/2000/svg"><g><g><g><path d="m134.811.05c.244-.017.49-.029.737-.034-.246.005-.491.017-.737.034z"/></g></g></g><g><g><path d="m124.137 0-.693 100.052h132.556l17.13-47.47-17.13-52.582z" fill="#00607f"/><path d="m387.863 0h-131.863v100.052h132.556z" fill="#00465f"/></g><path d="m256 254.76-118.005-246.192c-2.613-5.5-8.138-8.552-13.858-8.552-9.543 0-14.09 8.358-14.673 14.234l-9.721 162.695c-.339 2.973.218 5.979 1.601 8.633l59.601 114.391c2.675 5.133 7.901 8.072 13.315 8.072 2.335 0 71.095-33.164 73.173-34.151 7.483-3.555 12.122-11.647 8.567-19.13z" fill="#00c0f1"/><path d="m256 254.76 118.005-246.192c2.613-5.5 8.138-8.552 13.858-8.552 9.543 0 14.09 8.358 14.673 14.234l9.721 162.695c.339 2.973-.218 5.979-1.601 8.633l-59.601 114.391c-2.675 5.133-7.901 8.072-13.315 8.072-2.335 0-71.095-33.164-73.173-34.151-7.483-3.555-12.122-11.647-8.567-19.13z" fill="#00607f"/><g><path d="m245.394 259.154-28.885 28.885h-40.851c-8.284 0-15 6.716-15 15v40.85l-28.885 28.885c-5.858 5.858-5.858 15.355 0 21.213l28.885 28.885v40.85c0 8.284 6.716 15 15 15h40.851l28.885 28.885c2.812 2.813 6.627 4.393 10.606 4.393l19.404-121.167-19.404-136.073c-3.839 0-7.678 1.465-10.606 4.394z" fill="#fdbf00"/></g><path d="m380.227 372.773-28.885-28.885v-40.85c0-8.284-6.716-15-15-15h-40.851l-28.885-28.885c-2.929-2.929-6.768-4.393-10.606-4.393v257.24c3.979 0 7.794-1.58 10.606-4.393l28.885-28.885h40.851c8.284 0 15-6.716 15-15v-40.85l28.885-28.885c5.858-5.858 5.858-15.356 0-21.214z" fill="#ff9102"/><g><path d="m199.523 383.444c0 31.142 25.335 56.477 56.477 56.477l6.304-53.692-6.304-59.262c-31.141 0-56.477 25.335-56.477 56.477z" fill="#ffd74a"/><path d="m256 326.967v112.954c31.141 0 56.477-25.335 56.477-56.477s-25.336-56.477-56.477-56.477z" fill="#fdbf00"/></g></g></svg>