<svg id="Capa_1" enable-background="new 0 0 512 512" height="512" viewBox="0 0 512 512" width="512" xmlns="http://www.w3.org/2000/svg"><g><path d="m339.347 200.784h-166.694c-8.284 0-15 6.716-15 15v281.216c0 5.693 3.223 10.896 8.32 13.431 5.096 2.535 11.19 1.966 15.731-1.469l74.296-56.221 74.295 56.22c2.656 2.01 5.845 3.039 9.054 3.039 2.275 0 4.563-.518 6.678-1.569 5.098-2.535 8.32-7.737 8.32-13.431v-281.216c0-8.284-6.716-15-15-15z" fill="#5f55ae"/><path d="m339.347 200.784h-83.347v251.958l74.295 56.22c2.656 2.01 5.845 3.039 9.054 3.039 2.275 0 4.563-.518 6.678-1.569 5.098-2.535 8.32-7.737 8.32-13.431v-281.217c0-8.284-6.716-15-15-15z" fill="#2d2755"/><circle cx="256" cy="180.363" fill="#f5fafc" r="127.477"/><path d="m383.477 180.363c0-70.291-57.186-127.476-127.477-127.476v254.953c70.291 0 127.477-57.186 127.477-127.477z" fill="#dbeeff"/><g><path d="m256 67.087 10-35.57-10-31.517c-49.726 0-94.817 20.228-127.476 52.887l14.715 34.715 32.701 12.701c20.511-20.512 48.83-33.216 80.06-33.216z" fill="#ff9e28"/><path d="m336.061 100.302 34.612-14.612 12.804-32.804c-32.66-32.658-77.751-52.886-127.477-52.886v67.087c31.23 0 59.549 12.704 80.061 33.215z" fill="#fcc216"/><path d="m369.276 180.363 33.028 10 34.059-10c0-49.726-20.228-94.817-52.887-127.476l-47.416 47.415c20.512 20.512 33.216 48.831 33.216 80.061z" fill="#f37e15"/><path d="m436.363 180.363h-67.087c0 31.23-12.704 59.549-33.216 80.061l13.387 33.387 34.029 14.029c32.659-32.66 52.887-77.75 52.887-127.477z" fill="#fcc216"/><path d="m256 293.639-10 33.12 10 33.967c49.726 0 94.817-20.228 127.476-52.887l-47.416-47.415c-20.511 20.511-48.83 33.215-80.06 33.215z" fill="#f37e15"/><path d="m175.939 260.424-31.705 11.705-15.711 35.711c32.659 32.659 77.75 52.887 127.476 52.887v-67.087c-31.229-.001-59.548-12.705-80.06-33.216z" fill="#efd838"/><path d="m142.724 180.363-24.739-10-42.348 10c0 49.726 20.228 94.817 52.887 127.476l47.416-47.415c-20.513-20.511-33.216-48.83-33.216-80.061z" fill="#ff9e28"/><path d="m175.939 100.302-47.416-47.415c-32.659 32.659-52.887 77.75-52.887 127.476h67.087c.001-31.23 12.705-59.549 33.216-80.061z" fill="#efd838"/></g></g></svg>