<svg id="Capa_1" enable-background="new 0 0 512 512" height="512" viewBox="0 0 512 512" width="512"  xmlns="http://www.w3.org/2000/svg"><g><circle cx="256" cy="82" r="40"/><circle cx="75" cy="40" r="40"/><path d="m196 212h120c8.284 0 15-6.716 15-15v-10c0-22.219-9.721-42.203-25.123-55.948-12.707 12.918-30.369 20.948-49.877 20.948s-37.17-8.03-49.877-20.948c-15.402 13.745-25.123 33.729-25.123 55.948v10c0 8.284 6.716 15 15 15z"/><path d="m15 170h120c8.284 0 15-6.716 15-15v-10c0-22.219-9.721-42.203-25.123-55.948-12.707 12.918-30.369 20.948-49.877 20.948s-37.17-8.03-49.877-20.948c-15.402 13.745-25.123 33.729-25.123 55.948v10c0 8.284 6.716 15 15 15z"/><path d="m486.877 89.052c-12.707 12.918-30.369 20.948-49.877 20.948s-37.17-8.03-49.877-20.948c-15.402 13.745-25.123 33.729-25.123 55.948v10c0 8.284 6.716 15 15 15h120c8.284 0 15-6.716 15-15v-10c0-22.219-9.721-42.203-25.123-55.948z"/><circle cx="437" cy="40" r="40"/><circle cx="180" cy="449.488" r="30"/><path d="m449.867 269.763c-9.303-22.947-31.314-37.775-56.076-37.775-21.031 0-40.229 10.656-51.353 28.506-2.496 4.006-7.121 6.494-12.07 6.494h-148.736c-4.949 0-9.574-2.488-12.07-6.494-11.125-17.85-30.322-28.506-51.353-28.506-24.761 0-46.772 14.828-56.076 37.775l-51.594 127.266c-6.993 17.251-10.539 35.435-10.539 54.048 0 20.814 10.461 39.975 27.984 51.252 9.989 6.429 21.261 9.67 32.844 9.67 9.249 0 18.697-2.068 27.844-6.23.399-.181.781-.397 1.143-.646l37.983-26.113c-4.953-8.724-7.797-18.794-7.797-29.522 0-33.084 26.916-60 60-60s60 26.916 60 60c0 2.541-.177 5.041-.485 7.5h32.971c-.308-2.459-.485-4.959-.485-7.5 0-33.084 26.916-60 60-60s60 26.916 60 60c0 10.728-2.844 20.799-7.797 29.522l31.721 21.808c10.283 7.07 22.03 10.929 33.97 11.158 16.494.317 32.076-5.867 43.848-17.414 11.772-11.55 18.256-26.993 18.256-43.485 0-18.613-3.546-36.797-10.539-54.048zm-279.867 80.725h-15v15c0 8.284-6.716 15-15 15s-15-6.716-15-15v-15h-15c-8.284 0-15-6.716-15-15s6.716-15 15-15h15v-15c0-8.284 6.716-15 15-15s15 6.716 15 15v15h15c8.284 0 15 6.716 15 15s-6.716 15-15 15zm172 0c-8.284 0-15-6.716-15-15s6.716-15 15-15 15 6.716 15 15-6.716 15-15 15zm60 0c-8.284 0-15-6.716-15-15s6.716-15 15-15 15 6.716 15 15-6.716 15-15 15z"/><circle cx="332" cy="449.488" r="30"/></g></svg>