<svg id="Layer_1" height="512" viewBox="0 0 48 48" width="512" xmlns="http://www.w3.org/2000/svg" data-name="Layer 1"><path d="m11.752 30.015-.7-.891 1.018-.5a3.291 3.291 0 0 0 1.765-3.664l-.245-1.108 1.134-.008a3.29 3.29 0 0 0 3.18-2.535l.26-1.105 1.026.485a3.288 3.288 0 0 0 3.965-.905l.713-.881.714.881a3.288 3.288 0 0 0 3.965.905l1.026-.485.26 1.105a3.29 3.29 0 0 0 3.179 2.535l1.135.008-.247 1.108a3.291 3.291 0 0 0 1.765 3.664l1.018.5-.7.891a3.292 3.292 0 0 0 0 4.068l.7.891-1.018.5a3.291 3.291 0 0 0 -1.765 3.664l.245 1.108-1.135.008a3.29 3.29 0 0 0 -3.179 2.535l-.26 1.1-1.026-.485a3.289 3.289 0 0 0 -3.965.905l-.714.882-.713-.882a3.289 3.289 0 0 0 -3.965-.905l-1.026.485-.26-1.1a3.29 3.29 0 0 0 -3.18-2.535l-1.134-.008.245-1.108a3.291 3.291 0 0 0 -1.765-3.664l-1.018-.5.7-.891a3.292 3.292 0 0 0 .002-4.068z" fill="#fcbd55"/><circle cx="23.867" cy="32.049" fill="#ea4867" r="6.066"/><g fill="#fadb83"><path d="m21.5 21.21.376-.462a3.288 3.288 0 0 1 -2.683-.059l-1.03-.489-.26 1.105a3.267 3.267 0 0 1 -.327.823 3.288 3.288 0 0 0 3.924-.918z"/><path d="m13.87 25.153a3.247 3.247 0 0 0 2.015-1.529 3.243 3.243 0 0 1 -1.162.22l-1.134.008.245 1.108c.014.065.026.127.036.193z"/><path d="m35.983 30.015.7-.891-1.018-.5a3.291 3.291 0 0 1 -1.765-3.664l.245-1.108-1.135-.008a3.289 3.289 0 0 1 -3.179-2.535l-.26-1.105-1.026.485a3.288 3.288 0 0 1 -3.965-.905l-.713-.882-.714.882a3.271 3.271 0 0 1 -.806.716l.574.71a3.292 3.292 0 0 0 3.966.9l1.025-.485.26 1.1a3.291 3.291 0 0 0 3.18 2.536l1.134.008-.244 1.108a3.289 3.289 0 0 0 1.764 3.664l1.019.5-.7.892a3.291 3.291 0 0 0 0 4.067l.464.591a3.279 3.279 0 0 1 .877-.625l1.018-.5-.7-.891a3.292 3.292 0 0 1 -.001-4.06z"/><path d="m34.278 36.761-.271.138a3.271 3.271 0 0 0 -1.794 3.458 3.3 3.3 0 0 1 .8-.1l1.135-.008-.248-1.111a3.268 3.268 0 0 1 .378-2.377z"/><path d="m28.5 43.389.043.02 1.026.485.26-1.1a3.242 3.242 0 0 1 .349-.883 3.247 3.247 0 0 0 -1.678 1.478z"/></g><path d="m23.868 25.983a6.054 6.054 0 0 0 -4.722 2.262 6.061 6.061 0 0 1 7.785 9.033 6.062 6.062 0 0 0 -3.063-11.295z" fill="#ed667d"/><path d="m23.859 38.137a6.054 6.054 0 0 0 4.722-2.262 6.061 6.061 0 0 1 -7.781-9.033 6.062 6.062 0 0 0 3.063 11.3z" fill="#d2455e"/><path d="m17.191 4.006a5.616 5.616 0 0 0 -3.471-1.206h-10.72a2 2 0 0 0 -2 2v8.9a2 2 0 0 0 2 2h10.72a5.615 5.615 0 0 0 3.471-1.2l2.309-1.851v-6.7z" fill="#ea4867"/><path d="m30.809 4.006a5.616 5.616 0 0 1 3.471-1.206h10.72a2 2 0 0 1 2 2v8.9a2 2 0 0 1 -2 2h-10.72a5.615 5.615 0 0 1 -3.471-1.2l-2.309-1.877v-6.678c.023.015 2.309-1.939 2.309-1.939z" fill="#ea4867"/><path d="m19.5 12.649v-6.7l-2.309-1.943a5.616 5.616 0 0 0 -3.471-1.206h-10.72a1.991 1.991 0 0 0 -1.9 1.4 1.977 1.977 0 0 1 .244-.025h10.723a5.615 5.615 0 0 1 3.471 1.2l.5.389 1.841 1.577.005 6.605z" fill="#ed667d"/><path d="m45 2.8h-10.72a5.616 5.616 0 0 0 -3.471 1.2s-1.062.9-1.564 1.328a5.624 5.624 0 0 1 3.382-1.148h10.72a2 2 0 0 1 2 2v8.9a2.046 2.046 0 0 1 -.1.609 2 2 0 0 0 1.753-1.983v-8.906a2 2 0 0 0 -2-2z" fill="#ed667d"/><path d="m1 7.045h17.726v4.171h-17.726z" fill="#fcbd55"/><path d="m1 7.045v1.426h16.875v2.746h1.625v-4.172z" fill="#ffe7a8"/><path d="m28.497 7.045h18.503v4.171h-18.503z" fill="#fcbd55"/><path d="m28.497 7.045v1.426h16.85v2.746h1.653v-4.172z" fill="#ffe7a8"/><path d="m28.497 11.217h18.503v1.413h-18.503z" fill="#ed667d"/><path d="m1 11.217h18.5v1.413h-18.5z" fill="#ed667d"/><circle cx="23.868" cy="15.681" fill="#f6cc7c" r="3.221"/><path d="m27.089 15.681a3.183 3.183 0 0 0 -4.236-3.042c.031 0 .06-.009.092-.009a3.217 3.217 0 0 1 1.015 6.27 3.223 3.223 0 0 0 3.129-3.219z" fill="#ffe7a8"/><path d="m23.868 12.46a3.221 3.221 0 0 0 -3.221 3.221l.162.044a12.1 12.1 0 0 0 3.189.45 11.907 11.907 0 0 0 3.084-.425c0-.025.007-.047.007-.072a3.221 3.221 0 0 0 -3.221-3.218z" fill="#ffe7a8"/><path d="m29.28 6.265v6.182a1.368 1.368 0 0 1 -.841 1.271 13.632 13.632 0 0 1 -1.72.58 10.4 10.4 0 0 1 -2.721.38 10.784 10.784 0 0 1 -2.981-.45h-.01a14.327 14.327 0 0 1 -1.441-.51 1.348 1.348 0 0 1 -.65-.571 1.412 1.412 0 0 1 -.19-.7v-6.182a1.343 1.343 0 0 1 .26-.8 1.319 1.319 0 0 1 .77-.54 18.269 18.269 0 0 1 4.232-.641 18.623 18.623 0 0 1 4.261.641 1.382 1.382 0 0 1 1.031 1.34z" fill="#ea4867"/><path d="m25.247 13.656a10.784 10.784 0 0 1 -2.981-.45h-.01a14.327 14.327 0 0 1 -1.441-.51 1.353 1.353 0 0 1 -.65-.571 1.412 1.412 0 0 1 -.19-.7v-6.182a1.368 1.368 0 0 1 .061-.388c-.1.024-.193.047-.28.07a1.319 1.319 0 0 0 -.77.54 1.343 1.343 0 0 0 -.26.8v6.182a1.412 1.412 0 0 0 .19.7 1.348 1.348 0 0 0 .65.571 14.327 14.327 0 0 0 1.441.51h.01a10.784 10.784 0 0 0 2.981.45 10.4 10.4 0 0 0 2.721-.38 13.632 13.632 0 0 0 1.72-.58 1.358 1.358 0 0 0 .773-.841 12.6 12.6 0 0 1 -1.244.4 10.4 10.4 0 0 1 -2.721.379z" fill="#d2455e"/><path d="m28.249 4.925a18.623 18.623 0 0 0 -4.261-.641 18.269 18.269 0 0 0 -4.232.641 1.319 1.319 0 0 0 -.77.54 1.349 1.349 0 0 0 -.259.741 16.812 16.812 0 0 1 3.593-.484 18.624 18.624 0 0 1 4.262.641 1.381 1.381 0 0 1 1.03 1.34v6.182a.609.609 0 0 1 -.021.151c.32-.109.609-.221.848-.318a1.368 1.368 0 0 0 .841-1.271v-6.182a1.382 1.382 0 0 0 -1.031-1.34z" fill="#ed667d"/></svg>