<svg id="Layer_1_1_" enable-background="new 0 0 48 48" height="512" viewBox="0 0 48 48" width="512" xmlns="http://www.w3.org/2000/svg"><path d="m29 14c0-4.418 3.582-8 8-8s8 3.582 8 8-3.582 8-8 8-8-3.582-8-8zm18 15c0-3.866-3.134-7-7-7h-6c-3.866 0-7 3.134-7 7v13h20z" fill="#ccc"/><path d="m3 14c0-4.418 3.582-8 8-8s8 3.582 8 8-3.582 8-8 8-8-3.582-8-8zm18 15c0-3.866-3.134-7-7-7h-6c-3.866 0-7 3.134-7 7v13h20z" fill="#ccc"/><path d="m5.343 19.657c-1.448-1.448-2.343-3.448-2.343-5.657 0-4.418 3.582-8 8-8 2.209 0 4.209.895 5.657 2.343zm8.657 2.343h-6c-3.866 0-7 3.134-7 7v13l17.95-17.95c-1.267-1.266-3.017-2.05-4.95-2.05z" fill="#efefef"/><path d="m31.343 19.657c-1.448-1.448-2.343-3.448-2.343-5.657 0-4.418 3.582-8 8-8 2.209 0 4.209.895 5.657 2.343zm8.657 2.343h-6c-3.866 0-7 3.134-7 7v13l17.95-17.95c-1.267-1.266-3.017-2.05-4.95-2.05z" fill="#efefef"/><path d="m42.217 21.319c2.286-1.634 3.783-4.302 3.783-7.319 0-4.962-4.038-9-9-9s-9 4.038-9 9c0 3.017 1.497 5.685 3.783 7.319-3.335.965-5.783 4.04-5.783 7.681v13c0 .552.448 1 1 1h20c.552 0 1-.448 1-1v-13c0-3.641-2.448-6.716-5.783-7.681zm-12.217-7.319c0-3.86 3.14-7 7-7s7 3.14 7 7-3.14 7-7 7-7-3.14-7-7zm16 27h-18v-12c0-3.309 2.691-6 6-6h6c3.309 0 6 2.691 6 6zm-29.783-19.681c2.286-1.634 3.783-4.302 3.783-7.319 0-4.962-4.038-9-9-9s-9 4.038-9 9c0 3.017 1.497 5.685 3.783 7.319-3.335.965-5.783 4.04-5.783 7.681v13c0 .552.448 1 1 1h20c.552 0 1-.448 1-1v-13c0-3.641-2.448-6.716-5.783-7.681zm-12.217-7.319c0-3.86 3.14-7 7-7s7 3.14 7 7-3.14 7-7 7-7-3.14-7-7zm16 27h-18v-12c0-3.309 2.691-6 6-6h6c3.309 0 6 2.691 6 6z" fill="#474747"/></svg>