<svg id="Layer_1" height="512" viewBox="0 0 48 48" width="512" xmlns="http://www.w3.org/2000/svg" data-name="Layer 1"><path d="m13.483 33.854-2.3-2.926 3.341-1.638-.802-3.633 3.721-.026.853-3.622 3.364 1.591 2.34-2.893 2.34 2.893 3.364-1.591.853 3.622 3.721.026-.802 3.633 3.341 1.638-2.3 2.926 2.3 2.925-3.341 1.638.802 3.633-3.721.026-.853 3.622-3.364-1.591-2.34 2.893-2.34-2.893-3.364 1.591-.853-3.622-3.721-.026.802-3.633-3.341-1.638z" fill="#00a1d9"/><circle cx="24" cy="18.217" fill="#fcbd55" r="2.49"/><path d="m24 27.788a6.066 6.066 0 1 0 6.066 6.065 6.065 6.065 0 0 0 -6.066-6.065z" fill="#fcbd55"/><g fill="#53bbf3"><path d="m15.595 27.027.326-1.386-2.199.016.305 1.381z"/><path d="m19.812 24.996 1.328-1.642-2.844-1.345-.481 2.042z"/><path d="m28.71 43.472-.372 1.58 1.366.646.527-2.236z"/><path d="m36.817 30.928-3.341-1.638.802-3.633-3.721-.026-.853-3.622-3.364 1.591-2.34-2.893-1.489 1.84 1.982 2.449 3.363-1.591.854 3.622 3.721.026-.803 3.633 3.341 1.638-2.299 2.926 2.021 2.571 2.126-1.042-2.3-2.925z"/><path d="m31.628 39.813.498 2.252 2.152-.015-.705-3.191z"/></g><path d="m24 15.727a2.489 2.489 0 0 0 -2.167 1.263 2.567 2.567 0 0 1 .573-.064 2.478 2.478 0 0 1 2.158 3.717 2.49 2.49 0 0 0 -.564-4.916z" fill="#fadb83"/><path d="m24 27.788a6.042 6.042 0 0 0 -4.507 2.012 6.058 6.058 0 0 1 7.167 9.5 6.062 6.062 0 0 0 -2.66-11.512z" fill="#fadb83"/><path d="m24 39.919a6.042 6.042 0 0 0 4.507-2.019 6.058 6.058 0 0 1 -7.167-9.495 6.062 6.062 0 0 0 2.66 11.514z" fill="#eea74d"/><path d="m23.87 1h13v14.727h-13z" fill="#fbe79b"/><path d="m32.896 1h3.974v14.727h-3.974z" fill="#ffd27c"/><path d="m11.13 1h12.74v14.727h-12.74z" fill="#fbe79b"/><path d="m24 2.5h4.316v13.227h-4.316z" fill="#fad36b"/><path d="m33.068 2.5h2.052v13.227h-2.052z" fill="#ffb963"/><path d="m30.066 1h3.002v14.727h-3.002z" fill="#4fd79c"/><path d="m30.066 2.5h1.252v13.227h-1.252z" fill="#1fc091"/><path d="m11.13 2.5h1.901v13.227h-1.901z" fill="#fad36b"/><path d="m17.784 1h6.216v14.727h-6.216z" fill="#fcbd55"/><path d="m17.784 2.5h4.315v13.227h-4.315z" fill="#faa551"/><path d="m14.932 1h3.002v14.727h-3.002z" fill="#ed667d"/><path d="m14.932 2.5h1.252v13.227h-1.252z" fill="#ea4867"/><path d="m37.87 15.727v-14.727a1 1 0 0 0 -1-1h-25.74a1 1 0 0 0 -1 1v14.727a1 1 0 0 0 1 1h2.87v-2h-1.87v-12.727h1.8v11h2v-11h1v11h2v-11h4.07v7.02h2v-7.02h4.065v11h2v-11h1v11h2v-11h1.8v12.727h-19.85v2h4.842a3.435 3.435 0 0 0 1.427 4.511l-.907 1.121-2.653-1.259a1.015 1.015 0 0 0 -.862 0 1 1 0 0 0 -.54.672l-.673 2.858-2.934.02a1 1 0 0 0 -.97 1.216l.633 2.865-2.636 1.291a1 1 0 0 0 -.346 1.517l1.815 2.308-1.811 2.314a1 1 0 0 0 .346 1.517l2.636 1.291-.633 2.865a1 1 0 0 0 .97 1.216l2.934.02.673 2.858a1 1 0 0 0 .54.672 1.019 1.019 0 0 0 .862 0l2.653-1.255 1.846 2.281a1 1 0 0 0 1.554 0l1.846-2.281 2.649 1.255a1.019 1.019 0 0 0 .862 0 1 1 0 0 0 .54-.672l.673-2.858 2.934-.02a1 1 0 0 0 .97-1.216l-.633-2.865 2.636-1.291a1 1 0 0 0 .346-1.517l-1.815-2.307 1.811-2.308a1 1 0 0 0 -.346-1.517l-2.636-1.291.633-2.865a1 1 0 0 0 -.97-1.216l-2.934-.02-.673-2.858a1 1 0 0 0 -.54-.672 1.016 1.016 0 0 0 -.862 0l-2.653 1.255-.907-1.121a3.435 3.435 0 0 0 1.427-4.511h9.731a1 1 0 0 0 1-1.003zm-11.102 8.773 2.247-1.063.569 2.419a1 1 0 0 0 .967.771l2.484.017-.535 2.43a1 1 0 0 0 .536 1.114l2.233 1.093-1.537 1.954a1 1 0 0 0 0 1.237l1.537 1.954-2.233 1.093a1 1 0 0 0 -.536 1.114l.536 2.426-2.484.017a1 1 0 0 0 -.967.771l-.569 2.419-2.248-1.066a1 1 0 0 0 -1.206.276l-1.562 1.934-1.563-1.931a1 1 0 0 0 -.777-.372 1.018 1.018 0 0 0 -.428.1l-2.247 1.063-.569-2.419a1 1 0 0 0 -.967-.771l-2.484-.017.536-2.426a1 1 0 0 0 -.536-1.114l-2.233-1.093 1.537-1.954a1 1 0 0 0 0-1.237l-1.537-1.954 2.233-1.093a1 1 0 0 0 .536-1.114l-.536-2.426 2.484-.017a1 1 0 0 0 .967-.771l.569-2.419 2.247 1.055a1 1 0 0 0 1.205-.275l1.563-1.925 1.562 1.932a1 1 0 0 0 1.206.268zm-1.278-6.283a1.49 1.49 0 1 1 -1.49-1.49 1.492 1.492 0 0 1 1.49 1.49z"/><path d="m16.935 33.854a7.065 7.065 0 1 0 7.065-7.066 7.073 7.073 0 0 0 -7.065 7.066zm12.13 0a5.065 5.065 0 1 1 -5.065-5.066 5.071 5.071 0 0 1 5.065 5.066z"/><path d="m23 10.948h2v2.051h-2z"/></svg>