<svg id="Layer_1" height="512" viewBox="0 0 512 512" width="512" xmlns="http://www.w3.org/2000/svg"><g><path d="m480 256h-32c-8.836 0-16 7.163-16 16 0 88.224-71.775 160-160 160s-160-71.776-160-160 71.775-160 160-160h114.667v-64h-114.667c-59.833 0-116.084 23.3-158.393 65.608-42.307 42.308-65.607 98.559-65.607 158.392s23.3 116.084 65.607 158.392c34.668 34.668 78.701 56.562 126.393 63.343v2.265h32c59.833 0 116.084-23.3 158.393-65.608 42.307-42.308 65.607-98.559 65.607-158.392 0-8.837-7.164-16-16-16z" fill="#f5871e"/><path d="m448 256h-32c-8.836 0-16 7.163-16 16 0 88.224-71.775 160-160 160s-160-71.776-160-160 71.775-160 160-160h112v24c0 3.139 1.836 5.988 4.694 7.285 1.059.48 2.186.715 3.304.715 1.902 0 3.782-.678 5.27-1.98l64-56c1.736-1.519 2.732-3.713 2.732-6.02s-.996-4.501-2.732-6.021l-64-56c-2.362-2.066-5.714-2.562-8.573-1.265-2.859 1.298-4.695 4.147-4.695 7.286v24h-112c-59.833 0-116.084 23.3-158.393 65.608-42.307 42.308-65.607 98.559-65.607 158.392s23.3 116.084 65.607 158.392c42.309 42.308 98.56 65.608 158.393 65.608s116.084-23.3 158.393-65.608c42.307-42.308 65.607-98.559 65.607-158.392 0-8.837-7.164-16-16-16z" fill="#fabe19"/><g><path d="m272 432h-32c-88.365 0-160-71.634-160-160 0-88.365 71.634-160 160-160h32c88.365 0 160 71.634 160 160 0 88.366-71.634 160-160 160z" fill="#b9af9b"/></g><g><circle cx="240" cy="272" fill="#f0e1cd" r="160"/></g><g><path d="m240 288c-8.837 0-16-7.163-16-16v-128c0-8.837 7.163-16 16-16s16 7.163 16 16v128c0 8.837-7.163 16-16 16z" fill="#555a6e"/></g><g><path d="m304 352c-4.095 0-8.189-1.562-11.313-4.686l-64-64c-6.249-6.249-6.249-16.379 0-22.627 6.248-6.249 16.379-6.249 22.627 0l64 64c6.249 6.249 6.249 16.379 0 22.627-3.125 3.124-7.219 4.686-11.314 4.686z" fill="#555a6e"/></g><g><circle cx="240" cy="272" fill="#fabe19" r="32"/></g><g><circle cx="240" cy="272" fill="#f5871e" r="16"/></g><path d="m461.268 73.979-64-56c-1.458-1.276-3.33-1.979-5.268-1.979h-32c-4.418 0-8 3.582-8 8v112c0 4.418 3.582 8 8 8h32c1.938 0 3.81-.703 5.268-1.979l64-56c1.736-1.52 2.732-3.714 2.732-6.021s-.996-4.501-2.732-6.021z" fill="#f5871e"/><path d="m448 256h-32c-8.836 0-16 7.163-16 16 0 88.224-71.775 160-160 160s-160-71.776-160-160 71.775-160 160-160h112v24c0 3.139 1.836 5.988 4.694 7.285 1.059.48 2.186.715 3.304.715 1.902 0 3.782-.678 5.27-1.98l64-56c1.736-1.519 2.732-3.713 2.732-6.02s-.996-4.501-2.732-6.021l-64-56c-2.362-2.066-5.714-2.562-8.573-1.265-2.859 1.298-4.695 4.147-4.695 7.286v24h-112c-59.833 0-116.084 23.3-158.393 65.608-42.307 42.308-65.607 98.559-65.607 158.392s23.3 116.084 65.607 158.392c42.309 42.308 98.56 65.608 158.393 65.608s116.084-23.3 158.393-65.608c42.307-42.308 65.607-98.559 65.607-158.392 0-8.837-7.164-16-16-16z" fill="#fabe19"/><g><path d="m352 288h16c8.837 0 16-7.163 16-16 0-8.837-7.163-16-16-16h-16c-8.837 0-16 7.163-16 16 0 8.837 7.163 16 16 16z" fill="#b9af9b"/></g><g><path d="m112 288h16c8.837 0 16-7.163 16-16 0-8.837-7.163-16-16-16h-16c-8.837 0-16 7.163-16 16 0 8.837 7.163 16 16 16z" fill="#b9af9b"/></g><g><path d="m224 384v16c0 8.837 7.163 16 16 16 8.837 0 16-7.163 16-16v-16c0-8.837-7.163-16-16-16-8.837 0-16 7.163-16 16z" fill="#b9af9b"/></g></g></svg>