<svg id="Layer_1" enable-background="new 0 0 135 135" height="512" viewBox="0 0 135 135" width="512" xmlns="http://www.w3.org/2000/svg"><g id="_x33_4"><g><g><path d="m131.5 67.4999619c0 35.3471832-28.6586304 63.9943924-63.9943237 63.9943924-35.3470421-.0000001-64.0056763-28.6472092-64.0056763-63.9943924 0-35.3471069 28.6586342-63.9943237 64.0056763-63.9943237 35.3356933.0000009 63.9943237 28.6472167 63.9943237 63.9943237z" fill="#4fe88d"/></g></g><g><g><path d="m115.9418716 67.5c0 .2906418 0 .5893631-.0080795.8800507-.468338 26.3604202-21.9683609 47.561821-48.4337921 47.561821-23.6234932 0-43.2909775-16.8981323-47.5699539-39.2783051-.5732956-2.9630127-.8719177-6.0309906-.8719177-9.1635666 0-26.7479897 21.6857986-48.4418716 48.4418716-48.4418716 26.7559738 0 48.4418716 21.6938819 48.4418716 48.4418716z" fill="#35d175"/></g></g><g><g><g><g><path d="m67.5009766 67.2247009c-3.1824951 0-5.7718849-2.589386-5.7718849-5.7718811 0-3.1824913 2.5893898-5.7713356 5.7718849-5.7713356s5.7707901 2.5888443 5.7707901 5.7713356c0 3.1824951-2.588295 5.7718811-5.7707901 5.7718811zm0-9.1991386c-1.8894348 0-3.427803 1.5378227-3.427803 3.4272575 0 1.8899803 1.5383682 3.427803 3.427803 3.427803s3.426712-1.5378227 3.426712-3.427803c0-1.8894348-1.5372772-3.4272575-3.426712-3.4272575z" fill="#ffb32c"/></g></g></g><g><g><g><path d="m98.6043472 23.455452c0 .9700699-.3925934 1.8476505-1.0287399 2.483839-.636261.6361885-1.5138702 1.0287266-2.4860992 1.0287266h-55.1791268c-1.9401665 0-3.5147247-1.5724258-3.5147247-3.5125656 0-.970068.3924828-1.8499069 1.0286293-2.4860954.6362572-.6361885 1.5160675-1.0287266 2.4860954-1.0287266h55.1791267c1.9423676 0 3.5148392 1.5724258 3.5148392 3.514822z" fill="#ffbc50"/></g></g><g><g><path d="m98.4482498 24.4938183c-.1673584.5582161-.4688187 1.0382767-.8708572 1.440176-.6364441.6363754-1.5181961 1.0382767-2.489624 1.0382767h-55.1741333c-1.942585 0-3.5169334-1.5741444-3.5169334-3.5167294 0-.9713612.3908615-1.8533211 1.0273056-2.4896965.4017639-.4018993.8932037-.7033596 1.4514198-.8707848-.1005745.3237419-.1564522.6698341-.1564522 1.0382767 0 1.9425869 1.5743484 3.5167294 3.5057602 3.5167294h55.1853065c.3573303 0 .7032166-.0558071 1.038208-.1562481z" fill="#ffb32c"/></g></g><g><g><path d="m95.0877686 26.972271-27.5870667 30.8136482-27.5870666-30.8136482z" fill="#fc545d"/></g></g><g><g><path d="m95.0877686 26.972271-2.3778763 2.6571197h-50.4183808l-2.3778762-2.6571197z" fill="#f14448"/></g></g><g><g><path d="m76.9286194 26.972271-9.4279175 30.8136482-9.4279175-30.8136482z" fill="#fff"/></g></g><g><g><path d="m76.9233475 26.972271-.814972 2.6571197h-17.2153434l-.8149758-2.6571197z" fill="#e5f5f9"/></g></g><g opacity=".3"><g><g><path d="m63.0550995 22.0315323c0 .5564308-.4644394.9584293-.9584312.9584293h-18.9624329c-.5318604 0-.9584274-.4312744-.9584274-.9584293 0-.527174.4182777-.9584274.9584274-.9584274h18.9624329c.5271835 0 .9584312.4265079.9584312.9584274z" fill="#fff"/></g></g><g><g><path d="m70.4574356 22.0315323c0 .5564308-.4644394.9584293-.9584351.9584293h-3.6275635c-.531868 0-.9584351-.4312744-.9584351-.9584293 0-.527174.4182816-.9584274.9584351-.9584274h3.6275635c.5271836 0 .9584351.4265079.9584351.9584274z" fill="#fff"/></g></g></g></g><g><g><path d="m76.9233475 26.972271-.814972 2.6571197h-17.2153434l-.8149758-2.6571197z" fill="#e5f5f9"/></g></g></g><g><g><g><path d="m97.0099945 95.0233383-5.3948135 5.3904266c-.7747345.7741013-1.2100296 1.8243866-1.2100296 2.9195709v7.6284866c0 2.2803345-1.8492813 4.12854-4.1296234 4.1272202l-7.6124191-.004425c-1.0954437-.0006332-2.1462021.4342499-2.9207916 1.2088394l-5.398613 5.3986435c-1.6113052 1.6113052-4.2235794 1.6118546-5.8355637.0012207l-5.398777-5.3942642c-.7739029-.773262-1.8231583-1.2076187-2.9171677-1.2076187h-7.6274529c-2.2784653 0-4.1259003-1.8463593-4.1272202-4.1248245l-.0044327-7.6356735c-.0006332-1.0937729-.4354134-2.1425629-1.208828-2.9159775l-5.3927879-5.3928223c-1.6113014-1.6113052-1.6118393-4.223587-.0011978-5.835556l5.3941917-5.3986511c.7732697-.7739029 1.2076302-1.8231659 1.2076302-2.9171829v-7.6274338c0-2.2784729 1.8463631-4.1259079 4.1248283-4.1272278l7.6434975-.0044327c1.0937653-.0006332 2.1425552-.4354095 2.9159698-1.2088089l5.3905487-5.3904724c1.6122589-1.6122284 4.2263794-1.6116791 5.8379593.0012283l5.3903809 5.3948364c.7741089.7747421 1.8243942 1.2100449 2.9195938 1.2100449h7.6284714c2.2803345 0 4.1285477 1.8492813 4.1272202 4.1296158l-.004425 7.6202545c-.0006332 1.0954361.4342422 2.1461868 1.2088318 2.9207764l5.3962173 5.3962555c1.6122437 1.6122436 1.6117096 4.2263717-.0011978 5.8379516z" fill="#ffbc50"/></g></g></g><g><g><g><path d="m68.3999023 121.6900024c.2900391.2999878.6201172.539978.9699707.7199707-1.5598145.8400269-3.5397949.6000366-4.8598633-.7199707l-5.4001465-5.3900146c-.7700195-.7699585-1.8198242-1.2099609-2.9199219-1.2099609h3.8999023c1.0900879 0 2.1401367.4400024 2.9101563 1.2099609z" fill="#ffb32c"/></g></g><g><g><path d="m52.4599609 115.0900269h-3.8999023c-2.2700195 0-4.1201172-1.8400269-4.1201172-4.1200562l-.0100098-7.6399536c0-1.0900269-.4299316-2.1400146-1.2099609-2.9200439l-5.3898926-5.3899536c-1.6101074-1.6100464-1.6101074-4.2200317 0-5.8300171l5.3898926-5.4000244c.7800293-.7799683 1.2099609-1.8299561 1.2099609-2.919983v-7.6300049c0-2.2799683 1.8500977-4.1199951 4.130127-4.1199951l7.6398926-.0100098c1.0900879 0 2.1398926-.4299927 2.9199219-1.2099609l5.3901367-5.3900146c1.3200684-1.3200073 3.3000488-1.5599976 4.8598633-.7200317-.3498535.1799927-.6799316.4200439-.9699707.7200317l-5.3898926 5.3900146c-.7700195.7799683-1.8200684 1.2099609-2.920166 1.2099609l-7.6398926.0100098c-2.2800293 0-4.119873 1.8400269-4.119873 4.1199951v7.6300049c0 1.0900269-.4401855 2.1400146-1.2102051 2.9199829l-5.3999023 5.4000244c-1.6101074 1.6099854-1.6101074 4.2199707.0100098 5.8300171l5.3898926 5.3899536c.7700195.7800293 1.2102051 1.8300171 1.2102051 2.9200439v7.6399536c-.0000002 2.2800294 1.8498533 4.1200563 4.1298826 4.1200563z" fill="#ffb32c"/></g></g></g><g><g><circle cx="67.42" cy="92.102" fill="#ffb32c" r="18.23"/></g></g><g><g><path d="m81.6999512 80.7600098c-3.1101074-2.4700317-7.0500488-3.9500122-11.3400879-3.9500122-10.0698242 0-18.2299805 8.1599731-18.2299805 18.2299805 0 4.2900391 1.4799805 8.2400513 3.9702148 11.3500366-4.2102051-3.3400269-6.9101563-8.5-6.9101563-14.2900391 0-10.0699463 8.1601563-18.2299805 18.2299805-18.2299805 5.7800294 0 10.9399415 2.6900025 14.2800294 6.8900147z" fill="#f49f16"/></g></g><g opacity=".3"><g><g><g><path d="m67.4199219 107.2797852c-.6347656 0-1.1503906-.5146484-1.1503906-1.1499023s.515625-1.1499023 1.1503906-1.1499023c4.6396484 0 8.9414063-2.5146484 11.2246094-6.5625.3125-.5532227 1.0136719-.7495117 1.5673828-.4365234.5527344.3120117.7480469 1.0136719.4365234 1.5664063-2.6914062 4.769531-7.7597656 7.7324217-13.2285156 7.7324217z" fill="#fff"/></g></g></g><g><g><g><path d="m81.1386719 96.199707c-.0791016 0-.1601563-.0083008-.2412109-.0258789-.6210938-.1328125-1.0175781-.7436523-.8847656-1.3647461.1894531-.8823242.2841797-1.7929688.2841797-2.7070313 0-.6352539.515625-1.1499023 1.1503906-1.1499023s1.1503906.5146484 1.1503906 1.1499023c0 1.0751953-.1132813 2.1479492-.3349609 3.1875-.116211.5400391-.5927735.9101563-1.1240235.9101563z" fill="#fff"/></g></g></g></g><g opacity=".3"><g><path d="m88.9477768 73.3699951v6.5599976c0 .5200195-.4299316.9500122-.9599609.9500122-.5200195 0-.9499512-.4299927-.9499512-.9500122v-6.5599976c0-.5299683.4299316-.960022.9499512-.960022.5300293 0 .9599609.4300538.9599609.960022z" fill="#fff"/></g></g><g><g fill="#fff"><path d="m62.5448303 98.8176041c0-.626297.458149-1.1337891 1.0986328-1.1337891h3.1142578v-13.3681641l-2.6689453 1.3183594c-.6491623.2793198-1.114048.143631-1.4130859-.1582031-.4582367-.4603653-.4931984-1.4659576.3662109-1.8984375l3.5585938-1.8720703c.2441406-.1230469.4882813-.1845703.7333984-.1845703h.5498047c.6986465 0 1.2558594.5554123 1.2558594 1.265625v14.8974609h2.5908203c.6325836 0 1.125.4988937 1.125 1.1337891 0 .6527176-.5107803 1.1074219-1.125 1.1074219h-8.0869141c-.629776-.0000001-1.0986328-.4695054-1.0986328-1.1074219z"/><path d="m71.7303772 100.2248306h-8.0869141c-.7976646 0-1.3984375-.6096497-1.3984375-1.4072266 0-.7889862.5870056-1.4335938 1.3984375-1.4335938h2.8144531v-12.5854491l-2.2363281 1.1044922c-.7771912.335434-1.3699112.1761322-1.7587891-.2163086-.5918922-.5929794-.611866-1.8465424.4443359-2.3774414l3.5537109-1.8696289c.2900391-.1459961.5820313-.21875.8730469-.21875h.5498047c.8539429 0 1.5556641.6779556 1.5556641 1.5654297v14.5976563h2.2910156c.7982483 0 1.4248047.6315765 1.4248047 1.4335938.0000001.8205565-.6457061 1.4072264-1.4248046 1.4072264zm-8.0869141-.5996093h8.0869141c.4506607 0 .8251953-.3244934.8251953-.8076172 0-.4665833-.3567276-.8339844-.8251953-.8339844h-2.890625v-15.1972656c0-.5402985-.4199677-.9658203-.9560547-.9658203h-.5498047c-.1992188 0-.3945313.050293-.5986328.152832l-3.5537109 1.8696289c-.6746216.3391571-.6132355 1.1001053-.2929688 1.4213867.3264847.3285751.7335014.2434235 1.0820313.0942383l3.0869141-1.5258789v14.1508789h-3.4140625c-.4746017 0-.7988281.3749084-.7988281.8339844-.0000001.4677276.3342933.8076172.798828.8076172z"/></g></g><g opacity=".3"><g><g><g><path d="m84.9648438 34.8916016c-.2197266 0-.4404297-.0756836-.6191406-.2299805-.3984375-.3422852-.4433594-.9418945-.1005859-1.3398438l1.2402344-1.4414063c.3417969-.3984375.9433594-.4423828 1.3388672-.1005859.3984375.3422852.4433594.9418945.1005859 1.3398438l-1.2402344 1.4414063c-.1875001.2182617-.4531251.3305664-.7197266.3305664z" fill="#fff"/></g></g></g><g><g><g><path d="m74.6162109 46.918457c-.2197266 0-.4404297-.0756836-.6191406-.2299805-.3984375-.3422852-.4433594-.9418945-.1005859-1.3398438l7.6611328-8.9042969c.3417969-.3984375.9433594-.4423828 1.3388672-.1005859.3984375.3422852.4433594.9418945.1005859 1.3398438l-7.6611328 8.9042969c-.1875.2182617-.453125.3305664-.7197266.3305664z" fill="#fff"/></g></g></g></g></g></svg>