<svg id="Layer_1" enable-background="new 0 0 512 512" height="512" viewBox="0 0 512 512" width="512" xmlns="http://www.w3.org/2000/svg"><g><path d="m80 256c0-120.176 89.826-219.372 206-234.11-9.824-1.247-19.837-1.89-30-1.89-130.339 0-236 105.661-236 236s105.661 236 236 236c10.163 0 20.176-.643 30-1.89-116.174-14.738-206-113.934-206-234.11z" fill="#cee1f2"/><path d="m256 512c-68.38 0-132.667-26.629-181.02-74.98-48.351-48.353-74.98-112.64-74.98-181.02s26.629-132.667 74.98-181.02c48.353-48.351 112.64-74.98 181.02-74.98s132.667 26.629 181.02 74.98c48.351 48.353 74.98 112.64 74.98 181.02s-26.629 132.667-74.98 181.02c-48.353 48.351-112.64 74.98-181.02 74.98zm0-472c-119.103 0-216 96.897-216 216s96.897 216 216 216 216-96.897 216-216-96.897-216-216-216z" fill="#1428bf"/><path d="m349.142 320.858-63.188-63.188c.03-.553.046-1.109.046-1.67 0-8.89-3.867-16.876-10.01-22.37.006-.209.01-.419.01-.63v-117c0-11.046-8.954-20-20-20s-20 8.954-20 20v117c0 .211.004.421.01.63-6.143 5.494-10.01 13.48-10.01 22.37 0 16.569 13.431 30 30 30 .56 0 1.117-.016 1.67-.046l63.188 63.188c3.905 3.905 9.023 5.858 14.142 5.858s10.237-1.953 14.142-5.858c7.811-7.81 7.811-20.474 0-28.284z" fill="#ff5cf4"/></g></svg>