<svg id="Layer_1" enable-background="new 0 0 135 135" height="512" viewBox="0 0 135 135" width="512" xmlns="http://www.w3.org/2000/svg"><g id="_x33_7"><g><g><path d="m131.5 67.4999619c0 35.3471832-28.6586304 63.9943924-63.9943237 63.9943924-35.3470421-.0000001-64.0056763-28.6472092-64.0056763-63.9943924 0-35.3471069 28.6586342-63.9943237 64.0056763-63.9943237 35.3356933.0000009 63.9943237 28.6472167 63.9943237 63.9943237z" fill="#9ee6ff"/></g></g><g><g><path d="m115.9418716 67.5c0 .2906418 0 .5893631-.0080795.8800507-.468338 26.3604202-21.9683609 47.561821-48.4337921 47.561821-26.8069916 0-48.4418716-21.7386932-48.4418716-48.4418716 0-26.7479897 21.6857986-48.4418716 48.4418716-48.4418716 26.7559738-.0000001 48.4418716 21.6938818 48.4418716 48.4418715z" fill="#76d8ff"/></g></g><g><g><g><g><path d="m69.2800522 53.7370224v4.6271515c0 1.0730934-.8712616 1.9444542-1.9443512 1.9444542-.540947 0-1.0259323-.218914-1.3778305-.5708923-.3521118-.3519745-.5709229-.8370132-.5709229-1.3735619v-4.6271515c0-1.0730934.8712616-1.9444542 1.9487534-1.9444542 1.0704269 0 1.9443512.874218 1.9443512 1.9444542z" fill="#ffbc50"/></g></g><g><g><g><path d="m95.1940231 16.8265572c0 1.7262363-1.3962708 3.1462326-3.1482697 3.1462326h-49.4243964c-1.7378235 0-3.1481705-1.4084358-3.1481705-3.1462326 0-1.7394962 1.4068069-3.1482563 3.1481705-3.1482563h49.4243965c1.7397995 0 3.1482696 1.4084348 3.1482696 3.1482563z" fill="#ffbc50"/></g></g><g><g><path d="m95.1373444 17.3955021c-.2518463 1.4515419-1.5261078 2.5754185-3.0905838 2.5754185h-49.4265213c-1.7383232 0-3.1463356-1.4079075-3.1463356-3.1463108 0-1.5569239 1.1279106-2.8379517 2.5754166-3.0905066-.0385628.1845694-.055748.3777304-.055748.5708923 0 1.7384024 1.4122009 3.1462831 3.1463356 3.1462831h49.4265213c.1974334.0000001.3862686-.0171603.5709152-.0557765z" fill="#ffb32c"/></g></g><g><g><path d="m95.1940231 50.722744c0 1.7262383-1.3962708 3.1462326-3.1482697 3.1462326h-49.4243964c-1.7378235 0-3.1481705-1.4084358-3.1481705-3.1462326 0-1.7394981 1.4068069-3.1482582 3.1481705-3.1482582h49.4243965c1.7397995 0 3.1482696 1.4084358 3.1482696 3.1482582z" fill="#ffbc50"/></g></g><g><g><path d="m95.1373444 51.2922821c-.2542191 1.4652328-1.5451279 2.5754204-3.0905838 2.5754204h-49.4265213c-1.7383232 0-3.1463356-1.4078827-3.1463356-3.1463089 0-1.5567398 1.1277466-2.8379593 2.5754166-3.0904808-.0385628.1845665-.055748.3777008-.055748.5708656 0 1.7383995 1.4122009 3.1463089 3.1463356 3.1463089h49.4265213c.1974334 0 .3862686-.0171623.5709152-.0558052z" fill="#ffb32c"/></g></g><g><g><path d="m42.621 19.973h49.424v27.602h-49.424z" fill="#f14448"/></g></g><g><g><path d="m42.621 22.556h49.424v22.436h-49.424z" fill="#fc545d"/></g></g><g><g><g><path d="m59.096 19.973h16.475v27.602h-16.475z" fill="#e5f5f9"/></g></g></g><g><g><g><path d="m59.096 22.446h16.475v22.655h-16.475z" fill="#fff"/></g></g></g><g opacity=".3"><g><g><path d="m63.352272 15.5511398c0 .4983997-.4160004.8584728-.8584747.8584728h-16.9848061c-.4763947 0-.8584747-.3862972-.8584747-.8584728 0-.4721947.3746567-.8584728.8584747-.8584728h16.9848061c.4722023 0 .8584747.3820267.8584747.8584728z" fill="#fff"/></g></g><g><g><path d="m69.982605 15.5511398c0 .4983997-.4160004.8584728-.8584747.8584728h-3.2492447c-.4763947 0-.8584747-.3862972-.8584747-.8584728 0-.4721947.3746567-.8584728.8584747-.8584728h3.2492447c.4721984 0 .8584747.3820267.8584747.8584728z" fill="#fff"/></g></g></g><g opacity=".3"><g><g><path d="m85.1375504 49.5564346c0 .4983978-.4160004.8584709-.8584747.8584709h-16.9848023c-.4763947 0-.8584747-.3862953-.8584747-.8584709 0-.4721947.3746567-.8584709.8584747-.8584709h16.9848022c.4722061 0 .8584748.3820267.8584748.8584709z" fill="#fff"/></g></g><g><g><path d="m91.7678833 49.5564346c0 .4983978-.4160004.8584709-.8584747.8584709h-3.2492447c-.4763947 0-.8584671-.3862953-.8584671-.8584709 0-.4721947.374649-.8584709.8584671-.8584709h3.2492447c.4722061 0 .8584747.3820267.8584747.8584709z" fill="#fff"/></g></g></g></g><g><g><g><path d="m67.3336029 75.0261612c-3.8354607 0-6.9558067-3.1203461-6.9558067-6.9558105v-6.2158508c0-3.8352509 3.1203461-6.9555969 6.9558067-6.9555969 3.8350449 0 6.9553909 3.1203461 6.9553909 6.9555969v6.2158508c0 3.8354644-3.120346 6.9558105-6.9553909 6.9558105zm0-17.1226044c-2.1788788 0-3.9511528 1.7724838-3.9511528 3.950943v6.2158508c0 2.1786728 1.772274 3.9511566 3.9511528 3.9511566 2.1784592 0 3.950737-1.7724838 3.950737-3.9511566v-6.2158508c0-2.1784592-1.7722778-3.950943-3.950737-3.950943z" fill="#ffb32c"/></g></g></g></g><g opacity=".3"><g><g><path d="m89.2845688 25.5937176v16.9899883c0 .6799316-.5500488 1.2299805-1.2299805 1.2299805-.3300781 0-.630127-.1199951-.869873-.3500977-.2402344-.2399902-.3601074-.5499268-.3601074-.8798828v-16.9899883c0-.6800537.5500488-1.2299805 1.2299805-1.2299805.3300781 0 .6398926.1298828.869873.369873.2402343.2299805.3601074.5400391.3601074.8601075z" fill="#fff"/></g></g></g><g><g><path d="m85.8919449 102.9608383c-.7141724.6975021-1.0379105 1.7021713-.8718872 2.6819992l2.7648697 16.1333237c.4234695 2.4743729-2.1670532 4.3592377-4.3924866 3.188446l-14.4809189-7.6141205c-.8883057-.4649887-1.9347382-.4649887-2.8230438 0l-14.4892311 7.6141205c-2.2171211 1.1707916-4.8159599-.7140732-4.3841705-3.188446l2.7649651-16.1333237c.1661263-.9798279-.157814-1.9844971-.871788-2.6819992l-11.7243654-11.4253616c-1.7934418-1.7436752-.805397-4.7992859 1.6772842-5.1563187l16.1997604-2.3581619c.9880447-.1411438 1.8433113-.7638931 2.2834091-1.6523514l7.2404633-14.6802444c1.1127167-2.2502136 4.3176727-2.2502136 5.4303894 0l7.2404633 14.6802444c.4401016.8884583 1.2953644 1.5112076 2.2834091 1.6523514l16.1997604 2.3581619c2.4826813.3570328 3.470726 3.4126434 1.6772842 5.1563187z" fill="#ffbc50"/></g></g><g><g><path d="m83.3910141 124.9689407-14.4810333-7.6216202c-.8859482-.457283-1.9340134-.457283-2.8199615 0l-14.4905701 7.6216202c-2.2198715 1.1622696-4.8207283-.7145309-4.3825226-3.1915359l2.7629776-16.1387787c.1618843-.9717789-.1621208-1.981636-.8671112-2.6770935l-11.7277069-11.4229508c-1.7910843-1.7434082-.8097725-4.8015976 1.6767654-5.1636353l13.0330238-1.8958664c1.0859795 14.9192963 13.5378685 26.6852112 28.7429619 26.6852112 1.7244492 0 3.4107513-.1524658 5.0493698-.4477997l1.8958664 11.0609131c.4286728 2.4770051-2.162651 4.3538056-4.3920593 3.191536z" fill="#ffb32c"/></g></g></g><g opacity=".3"><g><g><g><path d="m89.5738068 92.4755859-10.8203125-1.5751953c-3.2509766-.4638672-6.0664063-2.503418-7.5302734-5.4550781l-1.5644531-3.1728516c-.3056641-.6191406-.0507813-1.3686523.5683594-1.6738281.6191406-.3041992 1.3681641-.0507813 1.6738281.5683594l1.5634766 3.1704102c1.0966797 2.2114258 3.2070313 3.7407227 5.6455078 4.0888672l10.8232422 1.5756836c.6835938.0991211 1.15625.7338867 1.0576172 1.4169922-.1021654.6997756-.757187 1.1577376-1.4169923 1.0566405z" fill="#fff"/></g></g></g><g><g><g><path d="m67.5054474 77.9077148-1.1269531-2.2856445c-.3056641-.6191406-.0507813-1.3686523.5683594-1.6738281.6191406-.3061523 1.3681641-.0507813 1.6738281.5683594l1.1269531 2.2856445c.3056641.6191406.0507813 1.3686523-.5683594 1.6738281-.6163483.3047867-1.3671875.0531769-1.6738281-.5683594z" fill="#fff"/></g></g></g></g></g></svg>