<svg id="Capa_1" enable-background="new 0 0 512 512" height="512" viewBox="0 0 512 512" width="512" xmlns="http://www.w3.org/2000/svg"><path d="m478.175 375.513s-56.241-21.091-56.243-21.092c-.187-.069-.307-.244-.307-.443v-18.805c15.928-13.075 26.108-32.906 26.108-55.073v-32.133c0-39.278-31.955-71.233-71.233-71.233-15.537 0-29.918 5.015-41.639 13.491l-33.43-12.537c-.187-.069-.307-.244-.307-.443v-18.805c15.928-13.075 26.108-32.906 26.108-55.073v-32.134c.001-39.278-31.954-71.233-71.232-71.233s-71.233 31.955-71.233 71.233v32.133c0 22.167 10.181 41.998 26.108 55.073v18.805c0 .199-.12.373-.307.443l-33.43 12.537c-11.721-8.476-26.101-13.491-41.639-13.491-39.278 0-71.233 31.955-71.233 71.233v32.134c0 22.167 10.181 41.998 26.108 55.073v18.805c0 .199-.12.374-.307.443l-56.243 21.092c-20.231 7.587-33.824 27.201-33.824 48.808v72.679c0 8.284 6.716 15 15 15h482c8.284 0 15-6.716 15-15v-72.679c0-21.607-13.593-41.221-33.825-48.808zm-142.908-127.546c0-22.736 18.497-41.233 41.233-41.233s41.233 18.497 41.233 41.233v32.133c0 22.736-18.497 41.233-41.233 41.233s-41.233-18.497-41.233-41.233zm65.376 127.617c-3.078 10.423-12.736 18.05-24.143 18.05s-21.064-7.627-24.143-18.05c5.636-5.62 9.018-13.365 9.018-21.606v-4.276c4.878 1.059 9.935 1.632 15.125 1.632s10.247-.573 15.125-1.632v4.276c0 8.241 3.382 15.986 9.018 21.606zm-185.876-304.351c0-22.736 18.497-41.233 41.233-41.233s41.233 18.497 41.233 41.233v32.133c0 22.736-18.497 41.233-41.233 41.233s-41.233-18.497-41.233-41.233zm65.376 127.618c-3.078 10.423-12.736 18.05-24.143 18.05s-21.064-7.627-24.143-18.05c5.636-5.62 9.018-13.365 9.018-21.606v-4.276c4.878 1.059 9.935 1.632 15.125 1.632s10.247-.573 15.125-1.632v4.276c0 8.24 3.382 15.985 9.018 21.606zm-185.876 49.116c0-22.736 18.497-41.233 41.233-41.233s41.233 18.497 41.233 41.233v32.133c0 22.736-18.497 41.233-41.233 41.233s-41.233-18.497-41.233-41.233zm65.376 127.617c-3.078 10.423-12.736 18.05-24.143 18.05s-21.064-7.627-24.143-18.05c5.636-5.62 9.018-13.365 9.018-21.606v-4.276c4.878 1.059 9.935 1.632 15.125 1.632s10.247-.573 15.125-1.632v4.276c0 8.241 3.382 15.986 9.018 21.606zm81.357 106.416h-211v-57.679c0-9.172 5.771-17.498 14.358-20.719l39.823-14.934c8.08 20.451 28.03 34.965 51.319 34.965s43.239-14.514 51.319-34.965l39.823 14.934c8.588 3.221 14.358 11.547 14.358 20.719zm-3.825-106.487-56.238-21.089c-.002-.001-.004-.002-.005-.002-.187-.069-.307-.244-.307-.443v-18.805c15.928-13.075 26.108-32.906 26.108-55.073v-32.133c0-12.156-3.067-23.606-8.458-33.629l6.406-2.402c8.08 20.451 28.03 34.965 51.319 34.965s43.239-14.514 51.319-34.965l6.406 2.402c-5.391 10.023-8.458 21.474-8.458 33.629v32.132c0 22.167 10.181 41.998 26.108 55.073v18.805c0 .199-.12.374-.307.443-.002.001-.004.002-.005.002l-56.238 21.089c-7.231 2.712-13.608 6.966-18.825 12.292-5.218-5.326-11.594-9.58-18.825-12.291zm244.825 106.487h-211v-57.679c0-9.172 5.771-17.498 14.358-20.719l39.823-14.934c8.08 20.451 28.03 34.965 51.319 34.965s43.239-14.514 51.319-34.965l39.823 14.934c8.588 3.221 14.358 11.547 14.358 20.719z"/></svg>