<svg id="Layer_1" height="512" viewBox="0 0 512 512" width="512" xmlns="http://www.w3.org/2000/svg" data-name="Layer 1"><path d="m437.019 74.981a256 256 0 1 0 -362.038 362.038 256 256 0 1 0 362.038-362.038zm-168.543 411.729v-30.661a12.476 12.476 0 0 0 -24.952 0v30.661c-118.161-6.319-213.024-101.828-218.324-220.252h28.733a12.476 12.476 0 1 0 0-24.951h-28.514c7.251-116.551 101.29-209.969 218.105-216.216v26.624a12.476 12.476 0 1 0 24.952 0v-26.624c116.815 6.247 210.854 99.665 218.105 216.216h-28.514a12.476 12.476 0 1 0 0 24.951h28.733c-5.3 118.424-100.163 213.933-218.324 220.252z" fill="#150f91"/><path d="m375.794 310.643-107.318-61.852v-83.249a12.476 12.476 0 0 0 -24.952 0v90.458a12.456 12.456 0 0 0 5.695 10.463c.161.11.34.224.551.346l113.565 65.452a12.476 12.476 0 1 0 12.459-21.618z" fill="#ea7513"/></svg>