<svg id="icons" enable-background="new 0 0 64 64" height="512" viewBox="0 0 64 64" width="512" xmlns="http://www.w3.org/2000/svg"><path d="m27 20.017c-2.76 0-5-2.24-5-5s2.24-5 5-5h10c2.76 0 5 2.24 5 5s-2.24 5-5 5c-2.05 0-3.811-1.24-4.58-3h-.84c-.769 1.759-2.53 3-4.58 3z" fill="#e6e9ed"/><path d="m57 39.337v2.66.01.01c-.02 1.101-1.35 1.99-3 1.99s-2.98-.89-3-1.99c0-.01 0-.01 0-.02v-2.66-.01c.91.439 1.93.68 3 .68 1.08 0 2.09-.24 3-.68z" fill="#eac6bb"/><path d="m61 28.007v2.01l-2-1.979-.03-.011c-.27.11-2.489 1-5.029 1-2.721 0-4.94-1.02-4.94-1.02v.02l-2 2.011v-2.03c0-3.86 3.13-6.99 7-6.99s6.999 3.128 6.999 6.989z" fill="#656d78"/><path d="m54 21.017c-.341 0-.673.032-1 .079 3.393.486 5.998 3.391 5.998 6.911v.029l.002.001 2 1.979v-2.01c0-3.86-3.13-6.989-7-6.989z" fill="#545c66"/><path d="m63 45.007v4.01h-18v-.02-3.99-.01c.01-1.66 1.34-2.99 3-2.99v.01h3c.02 1.101 1.35 1.99 3 1.99s2.98-.89 3-1.99h3v-.01c1.66 0 3 1.34 3 3z" fill="#5d9cec"/><path d="m61 33.007v.01c0 2.79-1.64 5.2-4 6.311-.91.439-1.92.68-3 .68-1.07 0-2.09-.24-3-.68-2.359-1.11-4-3.521-4-6.311v-.01-2.97l2-2.011v-.02s2.22 1.02 4.94 1.02c2.54 0 4.76-.89 5.029-1l.031.011 2 1.979z" fill="#eac6bb"/><path d="m59 28.037-.002-.001v4.971.01c0 2.79-1.64 5.2-4 6.311-.621.3-1.292.499-1.996.601.326.047.658.079.998.079 1.08 0 2.09-.24 3-.68 2.36-1.11 4-3.521 4-6.311v-.01-2.99z" fill="#d3b1a9"/><path d="m41 36.026v2.98c0 3.53-2.04 6.58-5 8.05-1.2.601-2.57.94-4 .94s-2.8-.34-4-.94c-2.95-1.46-4.98-4.49-5-8.01v-.04-2.98l3-2.029s3.01 1 6.5 1 5.5-1 5.5-1z" fill="#eac6bb"/><path d="m38 33.997-.002.001v5.009c0 3.53-2.039 6.58-5 8.05-.771.386-1.617.649-2.499.8.491.083.989.141 1.501.141 1.43 0 2.8-.34 4-.94 2.96-1.47 5-4.52 5-8.05v-2.98z" fill="#d3b1a9"/><path d="m36 47.066v3.931c0 1.66-1.79 3.01-4 3.01s-4-1.35-4-3.01v-3.931-.01c1.2.601 2.57.94 4 .94s2.8-.34 4-.94z" fill="#eac6bb"/><path d="m28 50.997c0 1.66 1.79 3.01 4 3.01s4-1.35 4-3.01h3c2.76 0 5 2.24 5 5v4c0 .55-.45 1-1 1h-22c-.55 0-1-.45-1-1v-4c0-2.76 2.24-5 5-5z" fill="#5d9cec"/><path d="m39 50.997h-3c2.76.001 4.998 2.24 4.998 5v4c0 .55-.449 1-1 1h3.002c.55 0 1-.45 1-1v-4c0-2.76-2.24-5-5-5z" fill="#4a89dc"/><path d="m41 32.997v3.029l-3-2.029s-2.01 1-5.5 1-6.5-1-6.5-1l-3 2.029v-3.029c0-4.42 3.58-8 8-8h6v4c2.21 0 4 1.79 4 4z" fill="#965353"/><path d="m41 36.026v-3.029c0-2.21-1.79-4-4-4v-4h-3v4c0 1.657 1.344 3 3 3 .551 0 1 .448 1 1v1z" fill="#844747"/><path d="m19 44.997v4h-18v-4c0-1.66 1.34-3 3-3v.01h3c.01 1.11 1.35 2 3 2s2.99-.89 3-2h3v-.01c1.66 0 3 1.34 3 3z" fill="#5d9cec"/><path d="m16 41.997v.01h-1.904c1.614.053 2.903 1.363 2.903 2.99v4h2.001v-4c0-1.66-1.34-3-3-3z" fill="#4a89dc"/><path d="m60 41.997v.01h-1.904c1.614.053 2.903 1.363 2.903 2.99v4h2.001v-4c0-1.66-1.34-3-3-3z" fill="#4a89dc"/><path d="m13 41.997v.01c-.01 1.11-1.35 2-3 2s-2.99-.89-3-2v-.01-2.681c.91.44 1.93.681 3 .681 1.08 0 2.09-.24 3-.681z" fill="#eac6bb"/><path d="m17 28.507v1.37c-1.721-2.25-2.76-2.66-4-2.4l2-4.06c1.24 1.33 2 3.12 2 5.09z" fill="#f6bb42"/><path d="m15 23.417-2 4.06c-1.87.391-4.189 2.34-10 1.66-.32-.04-.65-.08-1-.14v-.49c0-4.15 3.359-7.5 7.5-7.5 2.18 0 4.141.93 5.5 2.41z" fill="#ffce54"/><path d="m17 32.997v.01c0 2.78-1.641 5.19-4 6.31-.91.44-1.92.681-3 .681-1.07 0-2.09-.24-3-.681-2.359-1.119-4-3.529-4-6.31v-.01-3.86c5.811.68 8.13-1.27 10-1.66 1.24-.26 2.279.15 4 2.4z" fill="#eac6bb"/><path d="m14.999 27.855v5.142.01c0 2.78-1.64 5.19-4 6.31-.622.301-1.292.5-1.997.602.327.046.658.078.998.078 1.08 0 2.09-.24 3-.681 2.359-1.119 4-3.529 4-6.31v-.01-3.12c-.781-1.021-1.418-1.648-2.001-2.021z" fill="#d3b1a9"/><path d="m47 34.01c-.553 0-1-.447-1-1v-5.004c0-.553.447-1 1-1s1 .447 1 1v5.004c0 .553-.447 1-1 1z"/><path d="m61 34.01c-.553 0-1-.447-1-1v-5.004c0-.553.447-1 1-1s1 .447 1 1v5.004c0 .553-.447 1-1 1z"/><path d="m45 46.004c-.553 0-1-.447-1-1 0-2.205 1.794-3.999 4-3.999.553 0 1 .447 1 1s-.447 1-1 1c-1.103 0-2 .896-2 1.999 0 .553-.447 1-1 1z"/><path d="m51 43.011h-3c-.553 0-1-.447-1-1s.447-1 1-1h3c.553 0 1 .447 1 1s-.447 1-1 1z"/><path d="m45 50.01c-.553 0-1-.447-1-1v-4.006c0-.553.447-1 1-1s1 .447 1 1v4.006c0 .553-.447 1-1 1z"/><path d="m63 46.004c-.553 0-1-.447-1-1 0-1.103-.897-1.999-2-1.999-.553 0-1-.447-1-1s.447-1 1-1c2.206 0 4 1.794 4 3.999 0 .553-.447 1-1 1z"/><path d="m60 43.011h-3c-.553 0-1-.447-1-1s.447-1 1-1h3c.553 0 1 .447 1 1s-.447 1-1 1z"/><path d="m63 50.01c-.553 0-1-.447-1-1v-4.006c0-.553.447-1 1-1s1 .447 1 1v4.006c0 .553-.447 1-1 1z"/><path d="m63 50.01h-18c-.553 0-1-.447-1-1s.447-1 1-1h18c.553 0 1 .447 1 1s-.447 1-1 1z"/><path d="m51 43.011c-.553 0-1-.447-1-1v-2.683c0-.553.447-1 1-1s1 .447 1 1v2.683c0 .552-.447 1-1 1z"/><path d="m57 43.004c-.553 0-1-.447-1-1v-2.676c0-.553.447-1 1-1s1 .447 1 1v2.676c0 .553-.447 1-1 1z"/><path d="m54 41.002c-4.411 0-8-3.588-8-7.997 0-.553.447-1 1-1s1 .447 1 1c0 3.307 2.691 5.997 6 5.997s6-2.69 6-5.997c0-.553.447-1 1-1s1 .447 1 1c0 4.409-3.589 7.997-8 7.997z"/><path d="m61 29.006c-.553 0-1-.447-1-1 0-3.307-2.691-5.996-6-5.996s-6 2.689-6 5.996c0 .553-.447 1-1 1s-1-.447-1-1c0-4.409 3.589-7.996 8-7.996s8 3.587 8 7.996c0 .553-.447 1-1 1z"/><path d="m53.937 30.024c-2.901 0-5.257-1.07-5.355-1.116-.501-.231-.719-.823-.489-1.325.229-.5.824-.722 1.325-.492.021.01 2.073.934 4.52.934 2.464 0 4.646-.924 4.668-.933.509-.221 1.095.017 1.313.522.218.507-.015 1.095-.521 1.313-.105.046-2.571 1.097-5.461 1.097z"/><path d="m61 31.01c-.254 0-.509-.097-.704-.289l-2-1.98c-.392-.389-.396-1.022-.007-1.415.39-.392 1.021-.395 1.415-.007l2 1.98c.392.389.396 1.022.007 1.415-.196.197-.453.296-.711.296z"/><path d="m47 31.029c-.255 0-.511-.097-.705-.291-.392-.39-.394-1.022-.004-1.414l2-2.01c.39-.391 1.024-.394 1.414-.004.392.39.394 1.022.004 1.414l-2 2.01c-.195.197-.452.295-.709.295z"/><path d="m3 33.998c-.553 0-1-.447-1-1v-3.867c0-.553.447-1 1-1s1 .447 1 1v3.867c0 .553-.447 1-1 1z"/><path d="m17 33.998c-.553 0-1-.447-1-1v-4.5c0-.553.447-1 1-1s1 .447 1 1v4.5c0 .553-.447 1-1 1z"/><path d="m17 29.498c-.553 0-1-.447-1-1 0-3.584-2.916-6.5-6.501-6.5-3.584 0-6.499 2.916-6.499 6.5 0 .553-.447 1-1 1s-1-.447-1-1c0-4.687 3.813-8.5 8.499-8.5 4.688 0 8.501 3.813 8.501 8.5 0 .553-.447 1-1 1z"/><path d="m17.001 30.869c-.301 0-.598-.135-.795-.392-1.931-2.523-2.457-2.313-4.414-1.538-1.879.743-4.717 1.869-9.948 1.042-.545-.086-.918-.598-.831-1.144.085-.545.598-.919 1.144-.831 4.692.741 7.124-.224 8.899-.927 2.409-.955 4.025-1.363 6.738 2.181.336.438.253 1.066-.186 1.402-.181.14-.395.207-.607.207z"/><path d="m12.999 28.475c-.147 0-.298-.033-.439-.103-.496-.243-.7-.843-.457-1.338l2-4.072c.243-.496.842-.7 1.338-.457s.7.843.457 1.338l-2 4.072c-.174.355-.53.56-.899.56z"/><path d="m1 45.993c-.553 0-1-.447-1-1 0-2.206 1.794-4 4-4 .553 0 1 .447 1 1s-.447 1-1 1c-1.103 0-2 .897-2 2 0 .553-.447 1-1 1z"/><path d="m7 42.999h-3c-.553 0-1-.447-1-1s.447-1 1-1h3c.553 0 1 .447 1 1s-.447 1-1 1z"/><path d="m1 49.997c-.553 0-1-.447-1-1v-4.004c0-.553.447-1 1-1s1 .447 1 1v4.004c0 .553-.447 1-1 1z"/><path d="m19 45.993c-.553 0-1-.447-1-1 0-1.103-.897-2-2-2-.553 0-1-.447-1-1s.447-1 1-1c2.206 0 4 1.794 4 4 0 .553-.447 1-1 1z"/><path d="m16 42.999h-3c-.553 0-1-.447-1-1s.447-1 1-1h3c.553 0 1 .447 1 1s-.447 1-1 1z"/><path d="m19 49.997c-.553 0-1-.447-1-1v-4.004c0-.553.447-1 1-1s1 .447 1 1v4.004c0 .553-.447 1-1 1z"/><path d="m19 49.997h-18c-.553 0-1-.447-1-1s.447-1 1-1h18c.553 0 1 .447 1 1s-.447 1-1 1z"/><path d="m7 42.999c-.553 0-1-.447-1-1v-2.683c0-.553.447-1 1-1s1 .447 1 1v2.683c0 .553-.447 1-1 1z"/><path d="m13 42.993c-.553 0-1-.447-1-1v-2.677c0-.553.447-1 1-1s1 .447 1 1v2.677c0 .553-.447 1-1 1z"/><path d="m10 40.99c-4.411 0-8-3.587-8-7.996 0-.553.447-1 1-1s1 .447 1 1c0 3.307 2.691 5.996 6 5.996s6-2.689 6-5.996c0-.553.447-1 1-1s1 .447 1 1c0 4.409-3.589 7.996-8 7.996z"/><path d="m45 49.997c-.553 0-1-.447-1-1v-4.004c0-.553.447-1 1-1s1 .447 1 1v4.004c0 .553-.447 1-1 1z"/><path d="m20 56.997c-.553 0-1-.447-1-1 0-3.309 2.691-6 6-6 .553 0 1 .447 1 1s-.447 1-1 1c-2.206 0-4 1.794-4 4 0 .553-.447 1-1 1z"/><path d="m28 51.997h-3c-.553 0-1-.447-1-1s.447-1 1-1h3c.553 0 1 .447 1 1s-.447 1-1 1z"/><path d="m20 60.997c-.553 0-1-.447-1-1v-4c0-.553.447-1 1-1s1 .447 1 1v4c0 .553-.447 1-1 1z"/><path d="m21 61.997c-1.103 0-2-.897-2-2 0-.531.418-.914.948-.943.563-.015.992.416 1.052.942.552 0 1 .448 1 1 0 .553-.447 1.001-1 1.001z"/><path d="m44 56.997c-.553 0-1-.447-1-1 0-2.206-1.794-4-4-4-.553 0-1-.447-1-1s.447-1 1-1c3.309 0 6 2.691 6 6 0 .553-.447 1-1 1z"/><path d="m39 51.997h-3c-.553 0-1-.447-1-1s.447-1 1-1h3c.553 0 1 .447 1 1s-.447 1-1 1z"/><path d="m44 60.997c-.553 0-1-.447-1-1v-4c0-.553.447-1 1-1s1 .447 1 1v4c0 .553-.447 1-1 1z"/><path d="m43 61.997c-.553 0-1-.447-1-1s.447-1 1-1c0-.553.447-1 1-1s1 .447 1 1c0 1.103-.897 2-2 2z"/><path d="m43 61.997h-22c-.553 0-1-.447-1-1s.447-1 1-1h22c.553 0 1 .447 1 1s-.447 1-1 1z"/><path d="m28 51.997c-.553 0-1-.447-1-1v-3.936c0-.553.447-1 1-1s1 .447 1 1v3.936c0 .553-.447 1-1 1z"/><path d="m36 51.997c-.553 0-1-.447-1-1v-3.936c0-.553.447-1 1-1s1 .447 1 1v3.936c0 .553-.447 1-1 1z"/><path d="m31.999 48.997c-5.514 0-9.999-4.485-9.999-9.998 0-.553.447-1 1-1s1 .447 1 1c0 4.41 3.588 7.998 7.999 7.998 4.412 0 8.001-3.588 8.001-7.998 0-.553.447-1 1-1s1 .447 1 1c0 5.513-4.486 9.998-10.001 9.998z"/><path d="m23 40.048c-.553 0-1-.447-1-1v-6.051c0-.553.447-1 1-1s1 .447 1 1v6.051c0 .553-.447 1-1 1z"/><path d="m41 39.999c-.553 0-1-.447-1-1v-6.002c0-.553.447-1 1-1s1 .447 1 1v6.002c0 .553-.447 1-1 1z"/><path d="m41 33.997c-.553 0-1-.447-1-1 0-1.654-1.346-3-3-3-.553 0-1-.447-1-1s.447-1 1-1c2.757 0 5 2.243 5 5 0 .553-.447 1-1 1z"/><path d="m37 29.997c-.553 0-1-.447-1-1v-4c0-.553.447-1 1-1s1 .447 1 1v4c0 .553-.447 1-1 1z"/><path d="m37 25.997h-6c-.553 0-1-.447-1-1s.447-1 1-1h6c.553 0 1 .447 1 1s-.447 1-1 1z"/><path d="m23 33.997c-.553 0-1-.447-1-1 0-4.963 4.037-9 9-9 .553 0 1 .447 1 1s-.447 1-1 1c-3.859 0-7 3.141-7 7 0 .553-.447 1-1 1z"/><path d="m40.999 37.022c-.192 0-.387-.056-.559-.171l-3-2.025c-.458-.31-.578-.931-.27-1.389.309-.457.93-.577 1.389-.27l3 2.025c.458.31.578.931.27 1.389-.193.287-.509.441-.83.441z"/><path d="m32.5 35.997c-3.612 0-6.687-1.008-6.815-1.051-.523-.175-.807-.74-.634-1.264.174-.523.739-.809 1.264-.635.029.01 2.908.949 6.186.949 3.178 0 5.04-.888 5.059-.897.493-.239 1.094-.038 1.337.457.243.494.043 1.09-.449 1.336-.093.046-2.262 1.105-5.948 1.105z"/><path d="m23.001 37.022c-.321 0-.637-.154-.83-.44-.309-.458-.188-1.079.27-1.389l3-2.025c.459-.308 1.08-.188 1.389.27s.188 1.079-.27 1.389l-3 2.025c-.172.115-.367.17-.559.17z"/><path d="m2 29.994c-.553 0-1-.447-1-1v-.496c0-.553.447-1 1-1s1 .447 1 1v.496c0 .553-.447 1-1 1z"/><path d="m10 44.998c-2.243 0-4-1.318-4-3.002 0-.553.447-1 1-1s1 .447 1 1c0 .408.779 1.002 2 1.002s2-.594 2-1.002c0-.553.447-1 1-1s1 .447 1 1c0 1.684-1.757 3.002-4 3.002z"/><path d="m54 44.998c-2.243 0-4-1.318-4-3.002 0-.553.447-1 1-1s1 .447 1 1c0 .408.779 1.002 2 1.002s2-.594 2-1.002c0-.553.447-1 1-1s1 .447 1 1c0 1.684-1.757 3.002-4 3.002z"/><path d="m32 54.998c-2.757 0-5-1.796-5-4.004 0-.553.447-1 1-1s1 .447 1 1c0 1.086 1.374 2.004 3 2.004s3-.918 3-2.004c0-.553.447-1 1-1s1 .447 1 1c0 2.208-2.243 4.004-5 4.004z"/><path d="m37 21.012c-2.032 0-3.9-1.029-5-2.691-1.1 1.662-2.968 2.691-5 2.691-3.309 0-6-2.691-6-6s2.691-6 6-6h10c3.309 0 6 2.691 6 6s-2.691 6-6 6zm-5.422-5h.844c.397 0 .757.235.916.599.639 1.459 2.076 2.401 3.662 2.401 2.206 0 4-1.794 4-4s-1.794-4-4-4h-10c-2.206 0-4 1.794-4 4s1.794 4 4 4c1.586 0 3.023-.942 3.662-2.401.159-.364.519-.599.916-.599z"/><path d="m27 18.012c-.553 0-1-.447-1-1v-4c0-.553.447-1 1-1s1 .447 1 1v4c0 .552-.447 1-1 1z"/><path d="m29 16.012h-4c-.553 0-1-.447-1-1s.447-1 1-1h4c.553 0 1 .447 1 1s-.447 1-1 1z"/><path d="m35.063 16.009c-.553 0-1.005-.447-1.005-1s.442-1 .994-1h.011c.552 0 1 .447 1 1s-.448 1-1 1z"/><path d="m37.063 14.009c-.553 0-1.005-.447-1.005-1s.442-1 .994-1h.011c.552 0 1 .447 1 1s-.448 1-1 1z"/><path d="m37.065 18.011c-.553 0-1.005-.447-1.005-1s.442-1 .994-1h.011c.552 0 1 .447 1 1s-.448 1-1 1z"/><path d="m39.065 16.011c-.553 0-1.005-.447-1.005-1s.442-1 .994-1h.011c.552 0 1 .447 1 1s-.448 1-1 1z"/><path d="m31.981 10.002c-.553 0-1-.447-1-1 0-1.654 1.346-3 3-3 .553 0 1 .447 1 1s-.447 1-1 1c-.552 0-1 .448-1 1 0 .553-.447 1-1 1z"/><path d="m36.98 8c-.553 0-1-.447-1-1s.447-1 1-1c.551 0 .998-.447.998-.998s-.447-.998-.998-.998c-.553 0-1-.447-1-1s.447-1 1-1c1.653 0 2.998 1.345 2.998 2.998s-1.344 2.998-2.998 2.998z"/><path d="m36.98 4.003h-9.996c-.553 0-1-.447-1-1s.447-1 1-1h9.996c.553 0 1 .447 1 1s-.447 1-1 1z"/><path d="m36.98 8.002h-2.999c-.553 0-1-.447-1-1s.447-1 1-1h2.999c.553 0 1 .447 1 1s-.447 1-1 1z"/><path d="m31.981 11.004c-.553 0-1-.447-1-1v-1.002c0-.553.447-1 1-1s1 .447 1 1v1.002c0 .553-.447 1-1 1z"/></svg>