<svg id="Layer_1" viewBox="0 0 64 64" xmlns="http://www.w3.org/2000/svg" data-name="Layer 1"><path d="m42 33v27.97l-10-6.15-10 6.15v-27.97" fill="#c20000"/><path d="m36 57.28v-21.42a16.57 16.57 0 0 1 -8 0v21.42l4-2.46z" fill="#6090bf"/><circle cx="32" cy="20" fill="#ededed" r="17"/><path d="m32 3a17 17 0 0 1 0 34" fill="#d1d1d1"/><path d="m47 20-4.53 3.4 1.66 5.42-5.66.08-1.83 5.37-4.64-3.27-4.64 3.27-1.82-5.37-5.68-.08 1.68-5.42-4.54-3.4 4.54-3.4-1.68-5.42 5.68-.08 1.82-5.37 4.64 3.27 4.64-3.27 1.83 5.37 5.66.08-1.66 5.42z" fill="#e2900e"/><path d="m21 34.22v26.78a1 1 0 0 0 .51.9 1 1 0 0 0 1 0l9.49-5.9 9.49 5.84a.92.92 0 0 0 .51.16 1 1 0 0 0 .49-.13 1 1 0 0 0 .51-.87v-26.78a18 18 0 1 0 -22 0zm6 22.48-4 2.46v-23.6a17.76 17.76 0 0 0 4 1.72zm8-1.23-2.49-1.53a.94.94 0 0 0 -1 0l-2.51 1.53v-17.74a18.59 18.59 0 0 0 3 .27 18.59 18.59 0 0 0 3-.27zm-3-19.47a15.79 15.79 0 0 1 -4.89-.77 1.09 1.09 0 0 0 .25 0 1 1 0 0 0 .58-.18l4.06-2.83 4.06 2.87a1 1 0 0 0 .85.13 16 16 0 0 1 -4.91.78zm-9.87-13.4-3.46-2.6 3.46-2.6a1 1 0 0 0 .36-1.1l-1.28-4.14 4.34-.06a1 1 0 0 0 .93-.68l1.4-4.1 3.54 2.5a1 1 0 0 0 1.16 0l3.54-2.5 1.4 4.1a1 1 0 0 0 .93.68l4.34.06-1.28 4.14a1 1 0 0 0 .36 1.1l3.46 2.6-3.46 2.6a1 1 0 0 0 -.36 1.1l1.28 4.14-4.34.06a1 1 0 0 0 -.93.68l-1.4 4.1-3.54-2.5a1 1 0 0 0 -1.16 0l-3.54 2.5-1.4-4.1a1 1 0 0 0 -.93-.68l-4.34-.06 1.28-4.14a1 1 0 0 0 -.36-1.1zm18.87 36.56-4-2.46v-19.42a17.76 17.76 0 0 0 4-1.72zm-4-24a1 1 0 0 0 .59-.6l1.6-4.7 5-.07a1 1 0 0 0 .71-.34 16.06 16.06 0 0 1 -7.9 5.74zm11-15.16a15.91 15.91 0 0 1 -3 9.32 1 1 0 0 0 .11-.8l-1.46-4.74 4-3a1 1 0 0 0 0-1.6l-4-3 1.46-4.74a1 1 0 0 0 -.11-.8 15.91 15.91 0 0 1 3 9.36zm-3.14-9.48a1 1 0 0 0 -.71-.34l-5-.07-1.6-4.7a1 1 0 0 0 -.59-.6 16 16 0 0 1 7.9 5.71zm-12.86-6.52a15.86 15.86 0 0 1 4.9.78 1 1 0 0 0 -.84.13l-4.06 2.87-4.06-2.87a1 1 0 0 0 -.85-.13 16 16 0 0 1 4.91-.78zm-5 .81a1 1 0 0 0 -.59.6l-1.6 4.7-5 .07a1 1 0 0 0 -.71.34 16.06 16.06 0 0 1 7.9-5.71zm-11 15.19a15.91 15.91 0 0 1 3-9.32 1 1 0 0 0 -.11.8l1.46 4.74-4 3a1 1 0 0 0 0 1.6l4 3-1.46 4.74a1 1 0 0 0 .11.8 15.91 15.91 0 0 1 -3-9.36zm3.85 9.82 5 .07 1.6 4.7a1 1 0 0 0 .59.6 16 16 0 0 1 -7.87-5.71 1 1 0 0 0 .68.34z"/></svg>