<svg height="512" viewBox="0 0 64 64" width="512" xmlns="http://www.w3.org/2000/svg"><g id="Shield_star" data-name="Shield star"><path d="m59 11c-14.4209 0-26.207-10.63-26.3247-10.7373a1 1 0 0 0 -1.3511 0c-.1172.1073-11.8804 10.7373-26.3242 10.7373a1 1 0 0 0 -1 1v10.8452a44.1907 44.1907 0 0 0 27.6226 41.0811 1.0031 1.0031 0 0 0 .7548 0 44.1907 44.1907 0 0 0 27.6226-41.0811v-10.8452a1 1 0 0 0 -1-1z" fill="#ffe26f"/><path d="m55.1113 14.78c-10.123-1.1372-18.45-6.4019-22.5127-9.439a.999.999 0 0 0 -1.1972 0c-4.0625 3.0374-12.3887 8.3021-22.5132 9.439a.9994.9994 0 0 0 -.8882.9939v7.0713a40.4252 40.4252 0 0 0 23.585 36.709.9988.9988 0 0 0 .83 0 40.4252 40.4252 0 0 0 23.585-36.709v-7.0713a1 1 0 0 0 -.8887-.9939z" fill="#ffc54b"/><path d="m44.5176 27.0938a1.0012 1.0012 0 0 0 -.8076-.6807l-7.4717-1.085-3.3413-6.77a1.0418 1.0418 0 0 0 -1.794 0l-3.3413 6.77-7.4712 1.085a1 1 0 0 0 -.5547 1.706l5.4068 5.27-1.2764 7.4419a1 1 0 0 0 1.4512 1.0542l6.6826-3.5131 6.6836 3.5132a1 1 0 0 0 1.45-1.0542l-1.2764-7.4419 5.4072-5.27a1.0017 1.0017 0 0 0 .2532-1.0254z" fill="#feac38"/></g></svg>