<svg id="Capa_1" enable-background="new 0 0 512 512" viewBox="0 0 512 512" xmlns="http://www.w3.org/2000/svg"><g><g><g><g><path d="m157.552 245.422 6.483 127.158h-140.08v-145.43c0-35.84 27.39-65.34 62.54-69.04 2.64-.29 5.32 4.56 8.03 4.58 2.35.02 4.676-4.792 6.97-4.58 29.855 2.762 56.057 51.352 56.057 87.312z" fill="#d78878"/><path d="m164.035 228.02v144.56h-69.82l-5.58-2.09 12.86-69.14 37.3-60.8c0-68.29-37.3-82.44-37.3-82.44 35.3 3.77 62.54 33.95 62.54 69.91z" fill="#ca6e59"/><g><path d="m92.932 385.459h.817c17.224 0 34.688-18.116 34.688-35.339l-3.501-10.786-4.148-1.146c-3.457-.955-5.851-4.101-5.851-7.687v-35.207l-42.375 1.321v33.886c0 3.587-2.394 6.732-5.851 7.687l-4.148 1.146-5.63 11.941c-.001 17.224 18.775 34.184 35.999 34.184z" fill="#ffb09e"/><path d="m167.821 356.454c-4.854-4.797-10.856-8.27-17.433-10.088l-25.453-7.033v9.434c0 17.224-13.963 31.187-31.187 31.187-17.224 0-31.187-13.963-31.187-31.187v-9.434l-25.453 7.033c-6.578 1.818-12.58 5.291-17.433 10.088-7.589 7.5-11.859 17.726-11.859 28.396v64.856l2.712 46.064c0 2.761 2.239 5 5 5l157.184.495c2.761 0 5-2.239 5-5l1.968-46.56v-64.855c.001-10.669-4.27-20.895-11.859-28.396z" fill="#0ab69f"/><path d="m143.629 502.046-13.239 2.454h-73.284l-12.229-3.445-.496-66.385 12.725-3.08h73.284l12.248 2.749z" fill="#eef5f6"/><g fill="#ffcebf"><path d="m11.816 504.5h30.29l7.5-54.794h-41.79v50.794c0 2.209 1.79 4 4 4z"/><path d="m174.582 504.5h-29.192l-7.5-54.794h41.791z"/></g></g><path d="m112.846 307.798-8.734 5.844c-6.121 4.096-14.108 4.096-20.229 0l-8.734-5.844c-16.212-10.848-25.944-29.069-25.944-48.576v-18.676c0-16.607 9.188-31.851 23.873-39.607l19.518-10.309c.877-.463 1.926-.463 2.802 0l19.518 10.309c14.685 7.756 23.873 23 23.873 39.607v18.676c.001 19.507-9.731 37.728-25.943 48.576z" fill="#ffcebf"/></g><path d="m482.983 226.747v68.546c0 3.93-7.52 13.364-11.45 13.364l-116.138 3.563c-3.93 0-7.12-3.19-7.12-7.12v-79.26c0-38.71 31.529-69.77 70.3-69.77 28.518 0 64.408 32.207 64.408 70.677z" fill="#918291"/><path d="m487.815 226.71v78.39c0 3.93-3.18 7.12-7.11 7.12h-54.43c-9-2.95-14.85-4.95-14.85-5.15 0-.88 14.53-29.94 14.53-29.94l36-44.41c0-66.87-43.38-76.65-43.38-76.65 38.47.29 69.24 32.17 69.24 70.64z" fill="#7a6d79"/><g><path d="m417.233 385.459h.817c17.224 0 34.688-18.116 34.688-35.339l-3.501-10.786-4.148-1.146c-3.457-.955-5.851-4.101-5.851-7.687v-35.207l-42.375 1.321v33.886c0 3.587-2.394 6.732-5.851 7.687l-4.148 1.146-5.63 11.941c-.001 17.224 18.775 34.184 35.999 34.184z" fill="#ffb09e"/><path d="m492.123 356.454c-4.854-4.797-10.856-8.27-17.433-10.088l-25.453-7.033v9.434c0 17.224-13.963 31.187-31.187 31.187-17.224 0-31.187-13.963-31.187-31.187v-9.434l-25.453 7.033c-6.578 1.818-12.58 5.291-17.433 10.088-7.589 7.5-11.859 17.726-11.859 28.396v64.856l2.712 46.064c0 2.761 2.239 5 5 5l157.184.495c2.761 0 5-2.239 5-5l1.968-46.56v-64.855c0-10.669-4.271-20.895-11.859-28.396z" fill="#0ab69f"/><path d="m467.93 502.046-13.238 2.454h-73.285l-12.229-3.445-.495-66.385 12.724-3.08h73.285l12.248 2.749z" fill="#eef5f6"/><g fill="#ffcebf"><path d="m338.447 504.5h27.96l7.5-54.794h-41.79z"/><path d="m500.982 504.5h-31.29l-7.5-54.794h41.79v51.794c0 1.657-1.343 3-3 3z"/></g></g><path d="m436.526 309.907-8.562 5.729c-6 4.015-13.829 4.015-19.83 0l-8.562-5.729c-15.893-10.634-25.432-28.496-25.432-47.618v-29.571c0-11.427 11.201-19.49 22.037-15.865l10.258 3.432c7.537 2.522 15.69 2.522 23.227 0l10.258-3.432c10.836-3.625 22.037 4.438 22.037 15.865v29.571c.002 19.122-9.538 36.984-25.431 47.618z" fill="#ffcebf"/><path d="m257.397 10.232 18.969 30.514 1.508 3.863c.275.443.713.761 1.219.886l31.427 7.008c1.439.355 2.005 2.098 1.05 3.231l-23.56 25.785c-.336.399-.503.913-.466 1.433l4.319 35.975c.107 1.478-1.375 2.555-2.748 1.997l-32.663-14.327c-.483-.197-1.024-.197-1.507 0l-31.668 13.651c-1.373.558-2.855-.518-2.748-1.997l-.11-32.607.078-1.08c.038-.52-.13-1.035-.466-1.433l-23.92-28.372c-.955-1.133-.389-2.876 1.05-3.231l36.028-8.894c.506-.125.944-.443 1.219-.886l19.592-31.516c.782-1.258 2.614-1.258 3.397 0z" fill="#ffe177"/><g><path d="m255.698 385.459h.817c17.224 0 34.688-18.116 34.688-35.339l-3.501-10.786-4.148-1.146c-3.457-.955-5.851-4.101-5.851-7.687v-35.207l-42.375 1.321v33.886c0 3.587-2.394 6.732-5.851 7.687l-4.148 1.146-5.63 11.941c-.001 17.224 18.775 34.184 35.999 34.184z" fill="#ca6e59"/><path d="m293.738 308.657h-74.446c-12.828 0-23.226-10.399-23.226-23.226 0-12.828 10.399-23.226 23.226-23.226h74.446c12.828 0 23.226 10.399 23.226 23.226 0 12.827-10.398 23.226-23.226 23.226z" fill="#ffc344"/><path d="m313.662 222.43c0 21.58-1.147 40.58-17.917 51.64-9.75 6.44-21.43 10.18-33.99 10.18h-10.48c-34.14 0-61.82-27.68-61.82-61.82v-2.91c0-34.14 27.68-61.81 61.82-61.81h10.48c24.164 0 51.907 30.58 51.907 64.72z" fill="#ffe177"/><path d="m323.575 219.52v2.91c0 21.58-11.06 40.58-27.83 51.64l-12.96-13.29 16.88-28.01c0-54.44-37.91-75.06-37.91-75.06 34.14 0 61.82 27.67 61.82 61.81z" fill="#ffd15b"/><g><path d="m284.014 304.625-10.509 8.185c-9.991 7.782-23.991 7.782-33.982 0l-10.509-8.185c-9.875-7.692-15.65-19.509-15.65-32.027v-39.833c0-10.861 10.646-18.525 20.946-15.079l9.76 3.265c8.075 2.702 16.81 2.702 24.886 0l9.76-3.265c10.3-3.446 20.946 4.219 20.946 15.079v39.833c.002 12.518-5.773 24.335-15.648 32.027z" fill="#d78878"/></g><path d="m330.588 356.454c-4.854-4.797-10.856-8.27-17.433-10.088l-25.453-7.033v9.434c0 17.224-13.963 31.187-31.187 31.187-17.224 0-31.187-13.963-31.187-31.187v-9.434l-25.453 7.033c-6.578 1.818-12.58 5.291-17.433 10.088-7.589 7.5-11.859 17.726-11.859 28.396v64.856l2.712 46.064c0 2.761 2.239 5 5 5l157.184.495c2.761 0 5-2.239 5-5l1.968-46.56v-64.855c0-10.669-4.27-20.895-11.859-28.396z" fill="#0ed2b3"/><path d="m306.396 502.046-13.239 2.454h-73.284l-12.23-3.445-.495-66.385 12.725-3.08h73.284l12.248 2.749z" fill="#eef5f6"/><g fill="#d78878"><path d="m174.582 504.5h30.29l7.5-54.794h-41.79v50.794c0 2.209 1.791 4 4 4z"/><path d="m338.447 504.5h-30.29l-7.5-54.794h41.79v50.794c0 2.209-1.79 4-4 4z"/></g></g><path d="m315.286 54.759c.955-1.133.389-2.876-1.05-3.231l-36.028-8.894c-.506-.125-.944-.443-1.219-.886l-.623-1.002c-5.964 25.514-28.695 44.565-55.947 44.897l-2.597 35.933c-.107 1.478 1.375 2.555 2.748 1.997l34.375-13.981c.483-.196 1.024-.196 1.507 0l34.375 13.981c1.373.558 2.855-.518 2.748-1.997l-2.675-37.012c-.038-.52.13-1.035.466-1.433z" fill="#ffd15b"/><path d="m379.176 48.228 12.618 20.298 1.003 2.57c.183.295.474.506.811.589l20.906 4.662c.957.236 1.334 1.395.698 2.149l-15.672 17.153c-.224.265-.335.607-.31.953l2.873 23.931c.071.983-.915 1.7-1.828 1.328l-21.728-9.531c-.321-.131-.681-.131-1.003 0l-21.066 9.081c-.913.371-1.899-.345-1.828-1.328l-.073-21.691.052-.718c.025-.346-.086-.688-.31-.953l-15.912-18.873c-.636-.754-.259-1.913.698-2.149l23.966-5.916c.337-.083.628-.295.811-.589l13.033-20.965c.521-.838 1.74-.838 2.261-.001z" fill="#ffe177"/><path d="m417.684 77.848c.636-.754.259-1.913-.698-2.149l-23.966-5.916c-.337-.083-.628-.295-.811-.589l-.414-.667c-3.967 16.972-19.088 29.645-37.217 29.866l-1.727 23.903c-.071.983.915 1.7 1.828 1.328l22.867-9.301c.321-.131.681-.131 1.003 0l22.867 9.301c.913.371 1.899-.345 1.828-1.328l-1.779-24.621c-.025-.346.086-.688.31-.953z" fill="#ffd15b"/><path d="m135.132 48.228 12.618 20.298 1.003 2.57c.183.295.474.506.811.589l20.906 4.662c.957.236 1.334 1.395.698 2.149l-15.672 17.152c-.224.265-.335.607-.31.953l2.873 23.931c.071.983-.915 1.7-1.828 1.328l-21.728-9.531c-.321-.131-.681-.131-1.003 0l-21.066 9.081c-.913.371-1.899-.345-1.828-1.328l-.073-21.691.052-.718c.025-.346-.086-.688-.31-.953l-15.911-18.872c-.636-.754-.259-1.913.698-2.149l23.966-5.916c.337-.083.628-.295.811-.589l13.033-20.965c.52-.838 1.739-.838 2.26-.001z" fill="#ffe177"/><path d="m173.64 77.848c.636-.754.259-1.913-.698-2.149l-23.966-5.916c-.337-.083-.628-.295-.811-.589l-.414-.667c-3.967 16.972-19.088 29.645-37.217 29.866l-1.727 23.903c-.071.983.915 1.7 1.828 1.328l22.867-9.301c.321-.131.681-.131 1.002 0l22.867 9.301c.913.371 1.899-.345 1.828-1.328l-1.779-24.621c-.025-.346.086-.688.31-.953z" fill="#ffd15b"/></g></g><g><path d="m503.985 411.27c-4.142 0-7.5 3.358-7.5 7.5v23.437h-20.553v-32.179c0-4.142-3.358-7.5-7.5-7.5s-7.5 3.358-7.5 7.5v14.062h-83.801v-14.062c0-4.142-3.358-7.5-7.5-7.5s-7.5 3.358-7.5 7.5v32.179h-10.184v-57.357c0-7.213-1.693-14.326-4.817-20.752.669-.803 1.376-1.576 2.118-2.309 3.933-3.887 8.829-6.72 14.159-8.193l15.966-4.411c.226 21.14 17.484 38.27 38.676 38.27 21.191 0 38.449-17.128 38.676-38.266l15.96 4.411c5.321 1.455 10.258 4.326 14.165 8.184 5.979 5.914 9.398 13.795 9.627 22.191.111 4.071 3.446 7.296 7.493 7.296.069 0 .139-.001.208-.003 4.141-.112 7.406-3.561 7.293-7.701-.334-12.279-5.332-23.803-14.087-32.462-5.694-5.631-12.962-9.847-20.702-11.962l-29.587-8.177c-.212-.059-.36-.25-.36-.464v-10.785h33.968c8.06 0 14.617-6.557 14.617-14.616v-78.384c0-42.775-34.401-77.831-76.685-78.144-20.732-.15-40.294 7.81-55.019 22.427-14.726 14.617-22.836 34.093-22.836 54.841v79.26c0 8.06 6.557 14.616 14.617 14.616h33.966v10.783c0 .213-.144.402-.349.458l-29.601 8.179c-7.981 2.213-15.333 6.496-21.131 12.42-5.795-5.925-13.149-10.207-21.129-12.42l-29.601-8.179c-.206-.057-.349-.245-.349-.458v-14.343h12.595c16.879 0 30.612-13.732 30.612-30.612.072-9.504-4.248-18.309-11.413-24.066 7.781-11.413 12.078-24.996 12.078-39.049v-2.91c0-7.852-1.303-15.544-3.874-22.865-1.373-3.908-5.651-5.966-9.562-4.591-3.908 1.372-5.964 5.653-4.591 9.561 2.008 5.719 3.026 11.74 3.026 17.895v2.91c0 10.68-3.156 21.023-8.911 29.798v-19.462c0-7.619-3.546-14.541-9.729-18.992s-13.874-5.617-21.096-3.2l-9.76 3.266c-6.49 2.171-13.638 2.171-20.127 0l-9.76-3.265c-7.225-2.417-14.915-1.251-21.097 3.2-6.183 4.451-9.729 11.373-9.729 18.992v19.449c-5.752-8.763-8.911-19.082-8.911-29.785v-2.91c0-29.947 24.368-54.31 54.32-54.31h10.48c12.154 0 23.651 3.928 33.248 11.36 3.275 2.536 7.986 1.937 10.522-1.337 2.536-3.275 1.938-7.986-1.338-10.522-12.25-9.486-26.922-14.5-42.432-14.5h-10.48c-38.223 0-69.32 31.092-69.32 69.31v2.91c0 14.092 4.287 27.665 12.076 39.068-7.153 5.771-11.482 14.593-11.41 24.047 0 16.879 13.732 30.612 30.612 30.612h12.595v14.341c0 .213-.144.402-.349.458l-29.601 8.179c-7.795 2.154-14.956 6.297-20.708 11.982-.321.317-.626.648-.937.974-.849-.919-1.761-1.777-2.698-2.603v-122.5c0-42.922-34.521-78.102-76.955-78.42-20.807-.14-40.43 7.837-55.207 22.504-14.779 14.669-22.918 34.215-22.918 55.036v45.96c0 4.142 3.358 7.5 7.5 7.5s7.5-3.358 7.5-7.5v-45.96c0-16.793 6.565-32.558 18.486-44.39 10.01-9.936 22.783-16.087 36.557-17.707v21.356l-16.922 8.938c-17.191 9.08-27.87 26.797-27.87 46.239v18.677c0 19.652 8.694 38.055 23.554 50.51v20.767c0 .213-.144.402-.349.458l-29.601 8.179c-1.307.361-2.588.798-3.855 1.269v-33.336c0-4.142-3.358-7.5-7.5-7.5s-7.5 3.358-7.5 7.5v42.333c-.629.559-1.253 1.124-1.853 1.717-8.953 8.849-14.087 21.143-14.087 33.73v119.65c0 4.142 3.358 7.5 7.5 7.5s7.5-3.358 7.5-7.5v-47.293h21.583v47.293c0 4.142 3.358 7.5 7.5 7.5s7.5-3.358 7.5-7.5v-65.411h83.801v65.411c0 4.142 3.358 7.5 7.5 7.5s7.5-3.358 7.5-7.5v-47.293h10.184v47.293c0 4.142 3.358 7.5 7.5 7.5s7.5-3.358 7.5-7.5v-47.293h21.291v47.293c0 4.142 3.358 7.5 7.5 7.5s7.5-3.358 7.5-7.5v-65.41h19.492c4.142 0 7.5-3.358 7.5-7.5s-3.358-7.5-7.5-7.5h-19.492v-14.062c0-4.142-3.358-7.5-7.5-7.5s-7.5 3.358-7.5 7.5v32.179h-21.291v-57.357c0-8.606 3.511-17.012 9.631-23.062 3.933-3.887 8.829-6.72 14.159-8.193l17.956-4.961v.132c0 21.332 17.355 38.687 38.687 38.687s38.687-17.355 38.687-38.687v-.132l17.956 4.961c5.33 1.473 10.226 4.306 14.159 8.193 6.121 6.049 9.631 14.455 9.631 23.062v57.356h-21.291v-32.179c0-4.142-3.358-7.5-7.5-7.5s-7.5 3.358-7.5 7.5v14.062h-33.792c-4.142 0-7.5 3.358-7.5 7.5s3.358 7.5 7.5 7.5h33.792v65.41c0 4.142 3.358 7.5 7.5 7.5s7.5-3.358 7.5-7.5v-47.293h21.291v47.294c0 4.142 3.358 7.5 7.5 7.5s7.5-3.358 7.5-7.5v-47.293h10.184v47.293c0 4.142 3.358 7.5 7.5 7.5s7.5-3.358 7.5-7.5v-65.411h83.801v65.411c0 4.142 3.358 7.5 7.5 7.5s7.5-3.358 7.5-7.5v-47.293h20.553v47.293c0 4.142 3.358 7.5 7.5 7.5s7.5-3.358 7.5-7.5v-85.73c-.001-4.142-3.359-7.5-7.501-7.5zm-85.935-38.816c-13.061 0-23.687-10.626-23.687-23.687v-3.798c5.952-2.256 10-8.013 10-14.469v-8.386c4.184 2.691 8.933 4.05 13.688 4.05 4.753 0 9.502-1.358 13.686-4.048v8.384c0 6.447 4.045 12.204 10.001 14.47v3.797c-.001 13.061-10.627 23.687-23.688 23.687zm14.305-68.78-8.562 5.729c-3.489 2.335-7.998 2.335-11.488 0l-8.562-5.729c-13.84-9.261-22.103-24.732-22.103-41.385v-29.572c0-3.004 1.398-5.735 3.837-7.49 1.604-1.155 3.465-1.749 5.363-1.749.986 0 1.983.161 2.958.487l10.258 3.432c9.023 3.02 18.963 3.02 27.986 0l10.259-3.432c2.848-.953 5.882-.493 8.32 1.262 2.438 1.756 3.837 4.486 3.837 7.49v29.572c.001 16.653-8.262 32.124-22.103 41.385zm-76.575-77.835c0-16.72 6.536-32.416 18.403-44.196 11.754-11.667 27.314-18.074 43.864-18.074 34.248-.024 62.285 28.414 62.272 63.146v78h-26.678c10.089-11.631 15.817-26.618 15.817-42.426v-29.572c0-7.888-3.671-15.055-10.073-19.664-6.401-4.608-14.363-5.817-21.843-3.313l-10.258 3.432c-5.955 1.992-12.514 1.992-18.468 0l-10.258-3.432c-7.479-2.503-15.442-1.295-21.844 3.313-6.401 4.608-10.073 11.776-10.073 19.664v29.572c0 15.809 5.728 30.795 15.817 42.426h-26.678zm-199.245 1.151v113.453c-1.298-.485-2.611-.935-3.95-1.305l-29.6-8.179c-.206-.057-.35-.246-.35-.458v-20.684c14.921-12.456 23.655-30.899 23.655-50.594v-18.677c0-19.441-10.679-37.159-27.87-46.239l-16.922-8.938v-21.331c30.924 3.785 55.037 30.65 55.037 62.952zm-86.224 117.958c5.923-2.27 9.949-8.01 9.949-14.448v-10.287c4.209 2.668 8.97 4.018 13.738 4.018 4.729 0 9.453-1.33 13.637-3.956v10.225c0 6.474 4.07 12.247 10.05 14.49v3.777c0 13.061-10.626 23.687-23.687 23.687s-23.687-10.626-23.687-23.687zm-13.606-85.725v-18.677c0-13.865 7.616-26.5 19.876-32.975l17.417-9.199 17.417 9.199c12.26 6.475 19.875 19.11 19.875 32.975v18.677c0 17.039-8.454 32.868-22.615 42.342l-8.734 5.844c-3.611 2.416-8.276 2.416-11.887 0l-8.734-5.844c-14.161-9.475-22.615-25.304-22.615-42.342zm94.193 182.984v-32.179c0-4.142-3.358-7.5-7.5-7.5s-7.5 3.358-7.5 7.5v14.062h-83.801v-14.062c0-4.142-3.358-7.5-7.5-7.5s-7.5 3.358-7.5 7.5v32.179h-21.582v-57.357c0-8.606 3.511-17.012 9.631-23.062 3.933-3.887 8.829-6.72 14.159-8.193l16.016-4.425c.218 21.146 17.48 38.283 38.677 38.283 21.188 0 38.443-17.123 38.676-38.256l15.916 4.397c5.33 1.473 10.226 4.306 14.158 8.192.988.977 1.911 2.026 2.767 3.123-2.877 6.212-4.433 13.029-4.433 19.939v57.356h-10.184zm164.511-156.662c0 8.608-7.003 15.612-15.612 15.612h-2.016c5.618-7.583 8.883-16.684 9.32-26.335.77-.575 1.441-1.28 2.145-1.931 3.889 2.949 6.236 7.623 6.163 12.654zm-94.543-52.779c0-2.735 1.273-5.22 3.493-6.818 1.46-1.051 3.154-1.592 4.881-1.592.898 0 1.805.146 2.693.443l9.76 3.265c9.559 3.198 20.087 3.198 29.645 0l9.761-3.266c2.593-.867 5.354-.45 7.573 1.149 2.22 1.598 3.493 4.083 3.493 6.818v39.833c0 10.277-4.65 19.794-12.758 26.109l-10.509 8.186c-7.29 5.679-17.474 5.678-24.764 0l-10.509-8.186c-8.108-6.315-12.758-15.832-12.758-26.109v-39.832zm-23.246 52.779c-.072-5.006 2.276-9.694 6.16-12.65.703.662 1.416 1.317 2.15 1.952.441 9.641 3.706 18.734 9.319 26.31h-2.016c-8.609 0-15.613-7.003-15.613-15.612zm82.582 63.222c0 13.061-10.626 23.687-23.687 23.687s-23.687-10.626-23.687-23.687l-.022-4.716c4.851-2.678 8.021-7.839 8.021-13.551v-8.05c4.934 2.467 10.31 3.706 15.688 3.706s10.753-1.24 15.688-3.706v8.05c0 5.711 3.17 10.872 8.021 13.55-.038.117-.017 4.483-.022 4.717z"/><path d="m212.855 86.255-2.746 37.991c-.187 2.585.975 5.084 3.072 6.608s4.832 1.857 7.234.88l35.283-14.351 35.283 14.351c.911.371 1.871.553 2.825.553 1.561 0 3.108-.487 4.409-1.432 2.098-1.524 3.259-4.023 3.072-6.608l-2.746-37.991 24.552-29.121c1.671-1.982 2.2-4.687 1.399-7.152-.801-2.466-2.818-4.343-5.335-4.964l-36.979-9.129-20.11-32.349c-1.369-2.202-3.777-3.541-6.37-3.541s-5.001 1.339-6.37 3.541l-20.109 32.349-36.979 9.129c-2.517.621-4.535 2.498-5.335 4.964-.801 2.465-.272 5.169 1.399 7.152zm22.921-36.534c1.899-.469 3.54-1.661 4.572-3.322l15.35-24.693 15.35 24.693c1.033 1.661 2.673 2.853 4.572 3.322l28.228 6.968-18.741 22.229c-1.261 1.496-1.888 3.424-1.747 5.375l2.096 29-26.933-10.954c-1.812-.737-3.84-.737-5.651 0l-26.933 10.955 2.096-29c.141-1.951-.486-3.879-1.747-5.375l-18.741-22.229z"/><path d="m102.638 99.659-1.777 24.587c-.187 2.585.975 5.084 3.072 6.608 2.097 1.523 4.833 1.856 7.234.879l22.834-9.288 22.834 9.288c.911.371 1.871.553 2.825.553 1.561 0 3.108-.487 4.409-1.432 2.098-1.524 3.259-4.023 3.072-6.608l-1.777-24.587 15.89-18.847c1.671-1.982 2.2-4.687 1.399-7.152-.801-2.466-2.818-4.343-5.335-4.964l-23.933-5.908-13.015-20.936c-1.369-2.202-3.777-3.541-6.37-3.541s-5.001 1.339-6.37 3.541l-13.015 20.936-23.932 5.908c-2.517.621-4.535 2.498-5.335 4.964-.801 2.465-.272 5.169 1.399 7.152zm18.536-23.039c1.899-.469 3.54-1.661 4.572-3.322l8.255-13.28 8.255 13.28c1.033 1.661 2.673 2.853 4.572 3.322l15.181 3.748-10.079 11.955c-1.261 1.496-1.888 3.424-1.747 5.375l1.127 15.596-14.484-5.891c-.906-.369-1.866-.553-2.826-.553s-1.92.184-2.826.553l-14.484 5.891 1.127-15.596c.141-1.951-.486-3.879-1.747-5.375l-10.079-11.955z"/><path d="m346.682 99.659-1.777 24.587c-.187 2.585.975 5.084 3.072 6.608 2.096 1.523 4.832 1.856 7.234.879l22.834-9.288 22.834 9.288c.911.371 1.871.553 2.825.553 1.561 0 3.108-.487 4.409-1.432 2.098-1.524 3.259-4.023 3.072-6.608l-1.777-24.587 15.89-18.847c1.671-1.982 2.2-4.687 1.399-7.152-.801-2.466-2.818-4.343-5.335-4.964l-23.933-5.908-13.015-20.936c-1.369-2.202-3.777-3.541-6.37-3.541s-5.001 1.339-6.37 3.541l-13.015 20.936-23.932 5.908c-2.517.621-4.535 2.498-5.335 4.964-.801 2.465-.272 5.169 1.399 7.152zm18.536-23.039c1.899-.469 3.54-1.661 4.572-3.322l8.255-13.28 8.255 13.28c1.033 1.661 2.673 2.853 4.572 3.322l15.181 3.748-10.079 11.955c-1.261 1.496-1.888 3.424-1.747 5.375l1.127 15.596-14.484-5.891c-.906-.369-1.866-.553-2.826-.553s-1.92.184-2.826.553l-14.484 5.891 1.127-15.596c.141-1.951-.486-3.879-1.747-5.375l-10.079-11.955z"/></g></g><g/><g/><g/><g/><g/><g/><g/><g/><g/><g/><g/><g/><g/><g/><g/></svg>