<svg height="512" viewBox="0 0 32 32" width="512" xmlns="http://www.w3.org/2000/svg"><g id="Achievement"><path d="m20 30a1.985 1.985 0 0 1 -1.026-.288l-2.974-1.785-2.975 1.79a1.984 1.984 0 0 1 -1.025.283 2 2 0 0 1 -2-2v-11h12v11a2 2 0 0 1 -2 2z" fill="#fd3730"/><path d="m18.636 3.61a2.976 2.976 0 0 1 4.436 2.872 3 3 0 0 1 2.19 4.83 3 3 0 0 1 -.751 5.257 2.987 2.987 0 0 1 -3.452 4.014 2.966 2.966 0 0 1 -5.059 1.496 2.966 2.966 0 0 1 -5.059-1.5 2.987 2.987 0 0 1 -3.452-4.014 3 3 0 0 1 -.751-5.257 3 3 0 0 1 2.19-4.83 2.976 2.976 0 0 1 4.436-2.868 2.963 2.963 0 0 1 5.272 0z" fill="#f87600"/><circle cx="16" cy="12.5" fill="#fac100" r="6.5"/></g></svg>