<svg id="color" enable-background="new 0 0 24 24" height="512" viewBox="0 0 24 24" width="512" xmlns="http://www.w3.org/2000/svg"><path d="m21.489 8.691c-.238-1.059-.463-2.059-.463-3.05 0-2.209.835-3.478.841-3.487.134-.194.169-.439.095-.663-.075-.224-.25-.399-.474-.475l-2.921-.978c-.229-.076-.48-.038-.675.103l-.313.225c-1.544 1.108-3.641 1.029-5.097-.191-.279-.233-.684-.233-.963 0-1.457 1.22-3.553 1.299-5.097.191l-.314-.225c-.196-.141-.447-.179-.675-.102l-2.921.978c-.222.074-.395.25-.471.471-.075.222-.041.468.089.662.009.013.844 1.281.844 3.491 0 .991-.225 1.992-.463 3.05-.251 1.118-.511 2.273-.511 3.484 0 9.102 9.71 11.774 9.809 11.8l.191.025.191-.025c.099-.026 9.809-2.699 9.809-11.8 0-1.211-.26-2.366-.511-3.484z" fill="#ffc107"/><path d="m17.724 10.579c-.061-.178-.215-.307-.399-.334l-3.366-.502-1.519-3.207c-.083-.175-.233-.296-.454-.286-.193 0-.369.113-.451.289l-1.498 3.217-3.364.524c-.186.029-.339.159-.397.337-.059.178-.014.374.118.508l2.457 2.499-.567 3.547c-.031.189.05.379.206.489.086.06.187.09.287.09l.243-.063 2.997-1.668 3.009 1.648c.169.092.374.08.529-.031.156-.111.235-.301.204-.49l-.591-3.543 2.439-2.516c.132-.135.177-.331.117-.508z" fill="#ff8f00"/><path d="m12 0h-.018c-.165.004-.329.062-.464.175-.771.645-1.72.971-2.672.971-.848 0-1.697-.258-2.425-.78l-.313-.225c-.123-.089-.269-.137-.417-.141h-.041c-.073.002-.146.015-.217.039l-2.921.978c-.222.074-.395.25-.471.471-.075.222-.041.468.089.662.009.013.844 1.281.844 3.491 0 .991-.225 1.992-.463 3.05-.251 1.118-.511 2.273-.511 3.484 0 9.102 9.71 11.774 9.809 11.8l.191.025v-7.972l-2.979 1.659-.244.063c-.101 0-.201-.03-.287-.09-.156-.11-.237-.299-.207-.489l.567-3.547-2.457-2.499c-.132-.134-.177-.33-.118-.508s.212-.308.397-.337l3.362-.524 1.498-3.217c.082-.176.258-.289.451-.289.005 0 .01 0 .016-.001v-6.249z" fill="#dea806"/><path d="m12 6.25c-.005 0-.01 0-.016.001-.193 0-.369.113-.451.289l-1.498 3.217-3.362.523c-.186.029-.339.159-.397.337-.059.178-.014.374.118.508l2.457 2.499-.567 3.547c-.031.189.05.379.206.489.086.06.187.09.287.09l.243-.063 2.98-1.659z" fill="#de7c00"/></svg>