<svg id="svg4404" height="512" viewBox="0 0 16.933333 16.933334" width="512" xmlns="http://www.w3.org/2000/svg" xmlns:xlink="http://www.w3.org/1999/xlink" xmlns:svg="http://www.w3.org/2000/svg"><linearGradient id="linearGradient4384" gradientUnits="userSpaceOnUse" x1="4.875" x2="12.295" xlink:href="#linearGradient4172" y1="288.581735" y2="288.581735"/><linearGradient id="linearGradient4172"><stop id="stop4168" offset="0" stop-color="#feaa2b"/><stop id="stop4176" offset=".50033963" stop-color="#ffee58"/><stop id="stop4170" offset="1" stop-color="#feaa2b"/></linearGradient><linearGradient id="linearGradient4394" gradientUnits="userSpaceOnUse" x1="4.37947" x2="12.85947" xlink:href="#linearGradient4172" y1="288.61647" y2="288.61647"/><g id="layer1" transform="translate(0 -280.067)"><path id="path4259" d="m4.4984261 280.59529a.26460982.26460982 0 0 0 -.2656152.26562v2.9099a.26460982.26460982 0 0 0 .119372.22065l2.5269773 1.68414v-5.08031zm2.9104167 0v5.43326l.7927181.52813v.38913h-.7932341a.26460979.26460979 0 0 0 -.2645833.26458v1.00769c-1.688047.55749-2.9109326 2.1475-2.9109326 4.01991 0 2.33487 1.899494 4.2323 4.2343652 4.2323 2.3348709 0 4.2323019-1.89743 4.2323019-4.2323 0-1.87282-1.221815-3.46327-2.9099011-4.02043v-1.00717a.26460979.26460979 0 0 0 -.2645834-.26458h-.7942659v-.38758l.7953004-.5302v-5.43274zm2.6463522 0v5.08031l2.526977-1.68414a.26460982.26460982 0 0 0 .117306-.22065v-2.9099a.26460982.26460982 0 0 0 -.263552-.26562zm-2.3822848 6.87968h1.5875v.60513c-.2572491-.049-.5218748-.077-.7932341-.077-.2717377 0-.5366306.0283-.7942659.0775zm.7942659 1.58699c1.7503699 0 3.1739679 1.42566 3.1739679 3.17603s-1.423598 3.17345-3.1739679 3.17345c-1.7503696 0-3.1760319-1.42308-3.1760319-3.17345s1.4256623-3.17603 3.1760319-3.17603zm0 .52916c-1.4643867 0-2.6463493 1.18248-2.6463493 2.64687s1.1819626 2.64635 2.6463493 2.64635c1.4643868 0 2.6442829-1.18196 2.6442829-2.64635s-1.1798961-2.64687-2.6442829-2.64687z" fill="url(#linearGradient4394)" font-variant-ligatures="normal" font-variant-position="normal" font-variant-caps="normal" font-variant-numeric="normal" font-variant-alternates="normal" font-feature-settings="normal" text-indent="0" text-align="start" text-decoration-line="none" text-decoration-style="solid" text-decoration-color="#000000" text-transform="none" text-orientation="mixed" white-space="normal" shape-padding="0" isolation="auto" mix-blend-mode="normal" solid-color="#000000" solid-opacity="1" vector-effect="none"/></g></svg>