<svg id="OBJECT" height="512" viewBox="0 0 32 32" width="512" xmlns="http://www.w3.org/2000/svg"><path d="m30 21.4-3.46 1.02-.4 3.58-9.19-7.71 3.86-4.6z" fill="#ff4755"/><path d="m2 21.4 3.46 1.02.4 3.58 9.19-7.71-3.86-4.6z" fill="#ff4755"/><path d="m16 6-8 3v4.06a14.47 14.47 0 0 0 8 12.94 14.47 14.47 0 0 0 8-12.94v-4.06z" fill="#0083fd"/><path d="m16 21.29a10.39 10.39 0 0 1 -4-8.23v-1.29l4-1.5 4 1.5v1.29a10.39 10.39 0 0 1 -4 8.23z" fill="#fff5f5"/><g fill="#303030"><path d="m30.64 20.64-5.87-4.93a16.63 16.63 0 0 0 .23-2.65v-4.06a1 1 0 0 0 -.65-.94l-8-3a1.05 1.05 0 0 0 -.7 0l-8 3a1 1 0 0 0 -.65.94v4.06a16.63 16.63 0 0 0 .23 2.65l-5.87 4.93a1 1 0 0 0 .36 1.72l2.82.83.32 2.92a1 1 0 0 0 .62.82 1 1 0 0 0 .38.07 1 1 0 0 0 .64-.23l4.27-3.59a15.49 15.49 0 0 0 4.78 3.71 1 1 0 0 0 .9 0 15.49 15.49 0 0 0 4.78-3.71l4.27 3.59a1 1 0 0 0 .64.23 1 1 0 0 0 .38-.07 1 1 0 0 0 .62-.82l.32-2.92 2.82-.83a1 1 0 0 0 .36-1.72zm-23.99 3.36-.19-1.72a1 1 0 0 0 -.72-.85l-1.67-.43 3.7-3.1a15.38 15.38 0 0 0 1.79 3.72zm9.35.84a13.4 13.4 0 0 1 -7-11.78v-3.37l7-2.62 7 2.62v3.37a13.4 13.4 0 0 1 -7 11.81zm10.26-3.41a1 1 0 0 0 -.72.85l-.19 1.72-2.91-2.44a15.38 15.38 0 0 0 1.79-3.72l3.7 3.1z"/><path d="m20.35 10.84-4-1.5a.94.94 0 0 0 -.7 0l-4 1.5a1 1 0 0 0 -.65.93v1.29a11.4 11.4 0 0 0 4.38 9 1 1 0 0 0 1.24 0 11.4 11.4 0 0 0 4.38-9v-1.29a1 1 0 0 0 -.65-.93zm-1.35 2.22a9.38 9.38 0 0 1 -3 6.94 9.38 9.38 0 0 1 -3-6.92v-.59l3-1.13 3 1.13z"/></g></svg>