<svg enable-background="new 0 0 283.465 283.465" height="512" viewBox="0 0 283.465 283.465" width="512" xmlns="http://www.w3.org/2000/svg"><g id="Layer_1_6_"><g clip-rule="evenodd" fill-rule="evenodd"><path d="m54.081 110.294c64.365-21.798 110.939-21.798 175.304 0v45.337c-66.742-22.019-108.561-22.019-175.304 0 0-15.112 0-30.225 0-45.337z" fill="#fcaf17"/><path d="m262.205 143.738c-12.052-8.355-23.711-12.756-32.821-15.257v27.15l-18.276 18.187c18.567 3.788 30.865 8.911 43.695 15.701-3.052-9.557-5.303-20.849-8.355-30.406z" fill="#ef9a21"/><path d="m229.384 155.631c-6.3-2.079-12.378-3.96-18.276-5.646v23.833z" fill="#e97b24"/><path d="m21.26 143.738c12.052-8.355 23.711-12.756 32.821-15.257v27.15l18.276 18.187c-18.567 3.788-30.864 8.911-43.695 15.701 3.052-9.557 5.303-20.849 8.355-30.406z" fill="#ef9a21"/><path d="m54.081 155.631c6.3-2.079 12.378-3.96 18.276-5.646v23.833z" fill="#e97b24"/></g></g></svg>