<svg clip-rule="evenodd" fill-rule="evenodd" height="512" stroke-linejoin="round" stroke-miterlimit="2" viewBox="0 0 64 64" width="512" xmlns="http://www.w3.org/2000/svg"><g transform="translate(0 -207)"><g id="ICON" transform="translate(4.5 8.5)"><g transform="translate(-4.5 -8.5)"><path d="m47.049 250.338c3.72.573 8.37.259 11.119-.921 1.807-.776 2.832-1.968 2.832-3.346 0-2.155-.75-4.147-2.021-5.752-.343-.432-.972-.506-1.405-.163s-.506.972-.163 1.405c.996 1.259 1.589 2.82 1.589 4.51 0 .389-.269.69-.641.966-.575.426-1.394.751-2.347 1.002-3.012.793-7.305.79-10.297-.015-.801-1.146-1.757-2.185-2.841-3.092.589-3.662 3.969-6.45 8.018-6.45 1.692 0 3.265.486 4.569 1.321.464.297 1.083.162 1.381-.303s.162-1.084-.303-1.381c-.623-.4-1.296-.735-2.009-.996 1.173-1.019 1.916-2.521 1.916-4.195 0-3.066-2.489-5.555-5.554-5.555-.774 0-1.51.159-2.179.445-1.15-1.655-2.828-2.957-4.81-3.683 1.174-1.019 1.916-2.521 1.916-4.195 0-3.066-2.488-5.554-5.554-5.554-3.065 0-5.554 2.488-5.554 5.554 0 1.674.742 3.176 1.916 4.195-1.068.391-2.048.949-2.904 1.64-1.137-.228-2.309-.228-3.446 0-.856-.691-1.836-1.249-2.904-1.64 1.174-1.019 1.916-2.521 1.916-4.195 0-3.066-2.489-5.554-5.554-5.554-3.066 0-5.554 2.488-5.554 5.554 0 1.674.742 3.176 1.916 4.195-1.982.727-3.661 2.028-4.81 3.683-.669-.286-1.405-.445-2.179-.445-3.065 0-5.554 2.489-5.554 5.555 0 1.674.742 3.176 1.916 4.195-3.79 1.389-6.47 4.883-6.47 8.948 0 1.378 1.025 2.57 2.832 3.346 2.749 1.18 7.399 1.494 11.119.921-.891 1.915-1.385 4.03-1.385 6.252 0 1.533.839 2.868 2.361 3.933.452.317 1.076.206 1.392-.246.317-.452.207-1.076-.246-1.392-.911-.638-1.507-1.378-1.507-2.295 0-7.497 6.483-13.554 14.434-13.554s14.434 6.057 14.434 13.554c0 .808-.469 1.48-1.202 2.066-.914.731-2.219 1.311-3.757 1.767-4.9 1.45-12.09 1.578-17.412.395-.539-.12-1.074.221-1.194.759-.119.539.221 1.074.76 1.193 6.591 1.466 15.879.998 20.86-1.343 2.493-1.171 3.945-2.849 3.945-4.837 0-2.222-.494-4.337-1.385-6.252zm-25.923-5.406c-.589-3.662-3.969-6.45-8.018-6.45-4.459 0-8.108 3.384-8.108 7.589 0 .389.269.69.641.966.575.426 1.394.751 2.347 1.002 3.012.793 7.305.79 10.297-.015.801-1.145 1.757-2.185 2.841-3.092zm2.812-7.295c-2.447.018-4.91-.3-6.759-.932-.137.147-.281.286-.432.418 3.009 1.104 5.319 3.534 6.143 6.523 1.349-.853 2.84-1.523 4.432-1.97-.529-.336-1.029-.735-1.49-1.197-.838-.839-1.47-1.808-1.894-2.842zm23.315-.514c-.151-.132-.296-.271-.432-.418-1.849.632-4.313.95-6.759.933-.426 1.036-1.06 2.008-1.902 2.849-.459.458-.956.855-1.482 1.189 1.592.447 3.082 1.116 4.432 1.97.824-2.989 3.134-5.42 6.143-6.523zm-.208-8.201c-1.453-2.069-3.951-3.428-6.78-3.428-1.541 0-2.984.403-4.213 1.105.761.4 1.476.92 2.116 1.561.39.39.389 1.024-.001 1.414-.391.39-1.024.389-1.414-.001-2.62-2.623-6.876-2.626-9.499-.006-2.624 2.619-2.626 6.876-.007 9.499 2.62 2.623 6.876 2.626 9.499.006 2.001-1.998 2.477-4.948 1.429-7.4-.217-.507.018-1.096.526-1.313.507-.217 1.095.019 1.312.526.644 1.506.845 3.156.603 4.752 1.835-.024 3.649-.246 5.105-.677-.247-.63-.384-1.315-.384-2.032 0-1.573.656-2.995 1.708-4.006zm3.847.451c1.961 0 3.554 1.593 3.554 3.555 0 1.961-1.593 3.554-3.554 3.554-1.962 0-3.555-1.593-3.555-3.554 0-1.962 1.593-3.555 3.555-3.555zm-37.784 0c1.962 0 3.555 1.593 3.555 3.555 0 1.961-1.593 3.554-3.555 3.554-1.961 0-3.554-1.593-3.554-3.554 0-1.962 1.593-3.555 3.554-3.555zm14.84-2.774c-1.229-.702-2.672-1.105-4.213-1.105-2.829 0-5.327 1.359-6.78 3.428 1.052 1.011 1.708 2.433 1.708 4.006 0 .717-.136 1.402-.384 2.032 1.456.431 3.27.653 5.105.677-.402-2.65.417-5.449 2.456-7.485.638-.637 1.35-1.155 2.108-1.553zm12.317-10.213c1.962 0 3.554 1.592 3.554 3.554 0 1.961-1.592 3.554-3.554 3.554s-3.554-1.593-3.554-3.554c0-1.962 1.592-3.554 3.554-3.554zm-16.53 0c1.962 0 3.554 1.592 3.554 3.554 0 1.961-1.592 3.554-3.554 3.554s-3.554-1.593-3.554-3.554c0-1.962 1.592-3.554 3.554-3.554z"/></g><g transform="translate(-9.411 -6.5)"><circle cx="26" cy="259" r="1"/></g></g></g></svg>