<svg id="Icons" height="512" viewBox="0 0 60 60" width="512" xmlns="http://www.w3.org/2000/svg"><path d="m16 20v-5.992a1.934 1.934 0 0 0 -.51-1.321 1.826 1.826 0 0 0 -1-.62l-8.07-2.01a1.948 1.948 0 0 0 -2.42 1.88v6.041z" fill="#4ab591"/><path d="m1.63 19.07 13.86-6.38a1.93 1.93 0 0 1 .51 1.32v5.99z" fill="#388c6e"/><path d="m39 40.01v5.99a1.934 1.934 0 0 0 .51 1.321 1.826 1.826 0 0 0 1 .62l8.071 2.01a1.948 1.948 0 0 0 2.419-1.878v-6.041z" fill="#4ab591"/><path d="m53.686 40.96-14.176 6.36a1.93 1.93 0 0 1 -.51-1.32v-5.99z" fill="#388c6e"/><path d="m58.975 20.219-4.583 20a1.009 1.009 0 0 1 -.984.779h-46.808a1.012 1.012 0 0 1 -.989-.781l-4.583-20a1 1 0 0 1 .981-1.217h55.991a1 1 0 0 1 .975 1.219z" fill="#5acca6"/></svg>