<svg id="Layer_2" enable-background="new 0 0 100 100" viewBox="0 0 100 100" xmlns="http://www.w3.org/2000/svg"><path d="m57.6801758 89.3515625c-1.1044922 0-2-.8955078-2-2v-18.9487305c0-6.6694336-5.4262695-12.0957031-12.0961914-12.0957031h-24.4882813c-6.6694336 0-12.0957031 5.4262695-12.0957031 12.0957031v18.9487305c0 1.1044922-.8955078 2-2 2s-2-.8955078-2-2v-18.9487305c0-8.875 7.2207031-16.0957031 16.0957031-16.0957031h24.4882812c8.8754883 0 16.0961914 7.2207031 16.0961914 16.0957031v18.9487305c.0000001 1.1044922-.8955077 2-1.9999999 2z"/><path d="m31.3398438 48.0458984c-9.2182617 0-16.7182617-7.5-16.7182617-16.71875 0-9.2182617 7.5-16.7182617 16.7182617-16.7182617 9.21875 0 16.71875 7.5 16.71875 16.7182617 0 9.21875-7.5 16.71875-16.71875 16.71875zm0-29.4370117c-7.0126953 0-12.7182617 5.7055664-12.7182617 12.7182617 0 7.0131836 5.7055664 12.71875 12.7182617 12.71875 7.0131836 0 12.71875-5.7055664 12.71875-12.71875 0-7.0126953-5.7055665-12.7182617-12.71875-12.7182617z"/><path d="m95 76.0986328c-1.1044922 0-2-.8955078-2-2v-16.453125c0-5.6542969-4.6000977-10.2543945-10.2543945-10.2543945h-21.2646485c-5.0063477 0-9.2592773 3.5795898-10.1118164 8.5117188-.1875 1.0888672-1.222168 1.8188477-2.3115234 1.6298828-1.0883789-.1879883-1.8183594-1.2231445-1.6298828-2.3115234 1.1850586-6.8549805 7.0952148-11.8300781 14.0532227-11.8300781h21.2646484c7.8598633-.0000001 14.2543945 6.3945311 14.2543945 14.2543944v16.453125c0 1.1044922-.8955078 2-2 2z"/><path d="m72.1132812 40.2197266c-8.152832 0-14.7856445-6.6328125-14.7856445-14.7856445s6.6328125-14.7856445 14.7856445-14.7856445c8.1533203 0 14.7861328 6.6328125 14.7861328 14.7856445s-6.6328124 14.7856445-14.7861328 14.7856445zm0-25.5712891c-5.9472656 0-10.7856445 4.8383789-10.7856445 10.7856445s4.8383789 10.7856445 10.7856445 10.7856445 10.7861328-4.8383789 10.7861328-10.7856445-4.8388671-10.7856445-10.7861328-10.7856445z"/></svg>