<svg clip-rule="evenodd" fill-rule="evenodd" stroke-linejoin="round" stroke-miterlimit="2" viewBox="0 0 267 267" xmlns="http://www.w3.org/2000/svg" xmlns:serif="http://www.serif.com/"><g id="ICON"><path d="m197.779 113.81c-22.786 4.026-43.37 5.759-64.422 5.642-20.257-.112-40.944-1.912-64.438-5.858l1.87-12.689c.163-1.106-.126-2.231-.801-3.123-.675-.891-1.679-1.474-2.788-1.617-12.418-1.602-25.492-3.893-39.651-6.962-1.397-.303-2.852.132-3.854 1.152-1.003 1.02-1.412 2.482-1.084 3.874l6.213 26.407s-15.46 20.099-15.46 20.099c-.805 1.047-1.067 2.414-.704 3.684s1.307 2.293 2.544 2.757c6.84 2.565 14.271 4.714 22.066 6.492l-1.343 6.241c-.443 2.056.716 4.119 2.702 4.811 27.057 9.428 63.465 12.748 94.693 12.837 31.927.09 67.652-3.407 94.716-12.837 1.986-.692 3.145-2.755 2.702-4.811l-1.343-6.241c7.795-1.778 15.226-3.927 22.066-6.492 1.237-.464 2.181-1.487 2.544-2.757.362-1.27.101-2.637-.704-3.684l-15.461-20.099s6.214-26.407 6.214-26.407c.327-1.392-.082-2.854-1.084-3.874s-2.457-1.455-3.855-1.152c-14.159 3.069-27.232 5.36-39.65 6.962-1.109.143-2.114.726-2.789 1.617-.675.892-.963 2.017-.8 3.123zm24.029 44.207c-25.804 8.27-58.824 11.29-88.463 11.206-29.004-.082-62.622-2.949-88.486-11.208 0 0 8.352-38.805 8.352-38.805 30.086 5.855 55.407 8.438 80.099 8.575 25.832.144 50.977-2.427 80.158-8.517zm-161.099-45.868 1.22-8.284c-9.451-1.319-19.293-3.026-29.704-5.16l5.164 21.949c.287 1.219.01 2.502-.753 3.495 0 0-13.155 17.102-13.156 17.101 4.942 1.622 10.151 3.038 15.544 4.271l6.903-32.071c.479-2.228 2.661-3.658 4.896-3.208 3.355.676 6.648 1.311 9.886 1.907zm166.934 33.372c5.392-1.233 10.602-2.649 15.543-4.27l-13.155-17.102c-.764-.993-1.04-2.276-.754-3.495 0 0 5.165-21.948 5.164-21.948-10.41 2.133-20.252 3.84-29.704 5.159l1.241 8.417c3.219-.631 6.484-1.306 9.805-2.027 1.081-.234 2.211-.029 3.141.57s1.583 1.544 1.816 2.625z"/></g></svg>