<svg id="Capa_1" enable-background="new 0 0 512 512" height="512" viewBox="0 0 512 512" width="512" xmlns="http://www.w3.org/2000/svg"><g><path d="m509.25 282.89c-20.054-13.676-41.277-27.922-63.585-38.43l-20.095 30.068c-3.768 5.638-10.705 7.771-16.683 5.07-12.479-5.64-25.288-10.605-38.381-14.869l-13.943 29.197c-3.784 7.364-.205 16.524 7.336 18.942 31.75 10.178 61.595 24.403 89.096 42.061 3.937 2.528 8.952-.532 8.946-5.433l-.039-32.18c-.006-4.824 2.949-9.084 7.276-10.49l38.63-12.555c4.844-1.576 5.709-8.471 1.442-11.381z" fill="#ffe02f"/><g><path d="m465.746 308.764c-17.706-10.877-36.261-20.475-55.569-28.67-.434-.144-.865-.305-1.29-.497-.747-.338-1.499-.665-2.248-.997-10.404-4.303-21.023-8.2-31.843-11.669-1.5-.481-2.851-1.211-4.044-2.12-.082-.027-.164-.055-.246-.082l-13.943 29.197c-3.784 7.364-.204 16.524 7.336 18.941 31.75 10.178 61.595 24.403 89.096 42.061 3.937 2.528 8.952-.532 8.946-5.433l-.039-32.18c-.005-3.399 1.465-6.513 3.844-8.551z" fill="#fbc700"/></g><path d="m408.887 279.597c-12.48-5.64-25.288-10.605-38.381-14.869l-13.943 29.197c-2.425 4.719-1.814 10.168.914 14.116z" fill="#834aa3"/><path d="m2.75 282.89c20.054-13.676 42.307-26.892 64.615-37.4l19.065 29.037c3.768 5.638 10.705 7.771 16.683 5.07 12.479-5.64 25.288-9.575 38.381-13.838l13.943 28.167c3.784 7.364.205 16.524-7.336 18.942-31.75 10.178-61.595 24.403-89.096 42.061-3.937 2.528-8.952-.532-8.946-5.433l.039-32.18c.006-4.824-2.949-9.084-7.276-10.49l-38.63-12.555c-4.844-1.576-5.709-8.471-1.442-11.381z" fill="#ffe02f"/><g><path d="m155.438 293.925-13.943-28.167c-7.872 2.563-15.639 5.014-23.295 7.782-4.071 1.527-8.11 3.119-12.118 4.768-.99.425-1.982.843-2.967 1.289-.426.192-.857.353-1.29.497-19.308 8.195-37.863 17.792-55.569 28.67 2.38 2.038 3.849 5.152 3.845 8.55l-.039 32.18c-.006 4.9 5.009 7.961 8.946 5.433 27.501-17.657 57.345-31.883 89.096-42.061 7.538-2.417 11.118-11.577 7.334-18.941z" fill="#fbc700"/></g><path d="m103.113 279.597c-.618.279-1.247.494-1.881.672l53.291 27.772c2.728-3.947 3.339-9.396.914-14.116l-13.943-28.167c-13.093 4.264-25.902 8.199-38.381 13.839z" fill="#834aa3"/><path d="m56.788 201.946c60.028-29.243 127.313-45.78 199.494-45.78 70.966 0 138.313 16.393 198.909 45.812 7.938 3.854 10.574 14.508 5.512 22.082l-34.98 52.341c-3.766 5.635-10.696 7.767-16.673 5.074-46.999-21.175-98.624-32.892-152.768-32.892-54.297 0-106.061 11.784-153.166 33.073-5.979 2.702-12.917.571-16.686-5.068l-35.134-52.571c-5.057-7.567-2.433-18.211 5.492-22.071z" fill="#ffe02f"/><g><path d="m175.218 248.114-25.162-63.104c-2.396-6.009-.942-12.667 2.968-17.157-33.727 7.794-65.908 19.319-96.234 34.092-7.926 3.861-10.549 14.505-5.492 22.072l35.134 52.571c3.769 5.64 10.707 7.77 16.686 5.068 25.194-11.386 51.722-20.05 79.256-25.65-3.138-1.571-5.727-4.308-7.156-7.892z" fill="#fbc700"/></g></g></svg>