<svg clip-rule="evenodd" fill-rule="evenodd" height="512" stroke-linejoin="round" stroke-miterlimit="2" viewBox="0 0 267 267" width="512" xmlns="http://www.w3.org/2000/svg"><g id="ICON"><path d="m224.08 129.849-6.623 30.171c-.233 1.081-1.037 3.469-4.957 2.625-3.322-.715-3.589-.792-6.116-1.429l-1.647 11.746c9.451 1.319 19.294 3.026 29.705 5.16l-5.165-21.949c-.286-1.219-.01-2.502.754-3.495l13.156-17.101s-11.25-4.003-19.107-5.728zm-181.111.697c-5.392 1.232-14.547 3.409-19.488 5.031l13.155 17.101c.763.993 1.04 2.276.753 3.495 0 0-5.164 21.949-5.163 21.948 10.409-2.133 20.252-3.84 29.703-5.159l-1.822-12.368c-3.238.595-2.586.469-5.94 1.145-2.235.45-4.417-.979-4.896-3.208zm178.84-11.735-8.341 38.748c-29.181-6.09-54.326-8.661-80.158-8.517-24.692.137-50.013 2.72-80.099 8.575 0 0-8.352-38.804-8.352-38.804 25.863-8.26 59.482-11.127 88.486-11.209 29.639-.084 62.659 2.936 88.463 11.206z" fill="rgb(0,0,0)"/></g></svg>