<svg height="512" viewBox="0 0 32 32" width="512" xmlns="http://www.w3.org/2000/svg" xmlns:xlink="http://www.w3.org/1999/xlink"><linearGradient id="Gradient-Icon" gradientUnits="userSpaceOnUse" x1="9.994" x2="22.738" y1="29.769" y2="7.695"><stop offset="0" stop-color="#4c46c8"/><stop offset="1" stop-color="#87bfff"/></linearGradient><g id="Layer_2" data-name="Layer 2"><path d="m27 16h-5v-7a3 3 0 0 0 -3-3h-6a3 3 0 0 0 -3 3v3h-5a3 3 0 0 0 -3 3v9a2 2 0 0 0 2 2h24a2 2 0 0 0 2-2v-5a3 3 0 0 0 -3-3zm-23-1a1 1 0 0 1 1-1h5v10h-6zm8-6a1 1 0 0 1 1-1h6a1 1 0 0 1 1 1v15h-8zm10 15v-6h5a1 1 0 0 1 1 1v5z" fill="url(#Gradient-Icon)"/></g></svg>