<svg height="512" viewBox="0 0 128 128" width="512" xmlns="http://www.w3.org/2000/svg"><path d="m106.082 88.962v-25.195a1.749 1.749 0 0 0 -1.75-1.75h-25.138v-24.639a1.749 1.749 0 0 0 -1.75-1.75h-26.888a1.749 1.749 0 0 0 -1.75 1.75v12.7h-25.138a1.749 1.749 0 0 0 -1.75 1.75v37.13a5.227 5.227 0 0 0 -4.668 5.18v1.833a5.243 5.243 0 0 0 5.237 5.236h83.026a5.243 5.243 0 0 0 5.237-5.236v-1.829a5.227 5.227 0 0 0 -4.668-5.18zm-3.5-23.445v23.383h-23.388v-23.383zm-50.276-26.389h23.388v49.772h-23.388zm-26.888 14.454h23.388v35.318h-23.388zm81.832 42.393a1.738 1.738 0 0 1 -1.737 1.736h-83.026a1.738 1.738 0 0 1 -1.737-1.736v-1.833a1.74 1.74 0 0 1 1.737-1.742h83.026a1.74 1.74 0 0 1 1.737 1.738z"/></svg>