<svg id="Layer_1" enable-background="new 0 0 60 60" height="512" viewBox="0 0 60 60" width="512" xmlns="http://www.w3.org/2000/svg"><path d="m53 18.5h-14v-6c0-.55-.45-1-1-1h-16c-.55 0-1 .45-1 1v14h-14c-.55 0-1 .45-1 1v20c0 .55.45 1 1 1h15 16 15c.55 0 1-.45 1-1v-28c0-.55-.45-1-1-1zm-45 10h13v18h-13zm15-1v-14h14v6 27h-14zm29 19h-13v-26h13z"/><path d="m30 26c-.55 0-1 .45-1 1v6c0 .55.45 1 1 1s1-.45 1-1v-6c0-.55-.45-1-1-1z"/><path d="m12.5 33.5c-.55 0-1 .45-1 1v6c0 .55.45 1 1 1s1-.45 1-1v-6c0-.55-.45-1-1-1z"/><path d="m16.5 33.5c-.55 0-1 .45-1 1v6c0 .55.45 1 1 1s1-.45 1-1v-6c0-.55-.45-1-1-1z"/><path d="m49.5 37.5c.55 0 1-.45 1-1v-6c0-.55-.45-1-1-1s-1 .45-1 1v6c0 .55.45 1 1 1z"/><path d="m45.5 37.5c.55 0 1-.45 1-1v-6c0-.55-.45-1-1-1s-1 .45-1 1v6c0 .55.45 1 1 1z"/><path d="m41.5 37.5c.55 0 1-.45 1-1v-6c0-.55-.45-1-1-1s-1 .45-1 1v6c0 .55.45 1 1 1z"/></svg>