<svg height="512" viewBox="0 0 128 128" width="512" xmlns="http://www.w3.org/2000/svg" xmlns:xlink="http://www.w3.org/1999/xlink"><linearGradient id="a" gradientUnits="userSpaceOnUse" x1="97.142" x2="30.858" y1="118.065" y2="51.781"><stop offset="0" stop-color="#fd5c70"/><stop offset="1" stop-color="#ffce64"/></linearGradient><path d="m56.353 38.878-1.2 7.03a1.749 1.749 0 0 0 2.539 1.844l6.308-3.318 6.312 3.318a1.75 1.75 0 0 0 2.54-1.844l-1.206-7.03 5.108-4.978a1.75 1.75 0 0 0 -.97-2.984l-7.058-1.026-3.157-6.395a1.749 1.749 0 0 0 -3.138 0l-3.157 6.4-7.058 1.026a1.749 1.749 0 0 0 -.97 2.984zm4.335-5.657a1.751 1.751 0 0 0 1.318-.958l1.994-4.041 1.994 4.041a1.751 1.751 0 0 0 1.317.958l4.46.648-3.226 3.145a1.749 1.749 0 0 0 -.5 1.549l.761 4.442-3.989-2.1a1.751 1.751 0 0 0 -1.629 0l-3.988 2.095.761-4.441a1.748 1.748 0 0 0 -.5-1.549l-3.228-3.145zm48.312 59.954h-2.918v-18.826a1.749 1.749 0 0 0 -1.75-1.75h-25.138v-17.112a1.749 1.749 0 0 0 -1.75-1.75h-26.888a1.75 1.75 0 0 0 -1.75 1.75v12.7h-25.138a1.751 1.751 0 0 0 -1.75 1.75v23.238h-2.918a1.75 1.75 0 0 0 -1.75 1.75v8.807a1.751 1.751 0 0 0 1.75 1.75h54.683a1.75 1.75 0 1 0 0-3.5h-52.933v-5.307h86.5v5.307h-10.365a1.75 1.75 0 0 0 0 3.5h12.115a1.75 1.75 0 0 0 1.75-1.75v-8.807a1.749 1.749 0 0 0 -1.75-1.75zm-83.582-21.483h23.388v21.483h-23.388zm26.888-1.75v-12.7h23.388v35.933h-23.388zm26.888 23.233v-17.075h23.388v17.075zm10.325 10.557a1.75 1.75 0 0 1 -1.75 1.75h-4.969a1.75 1.75 0 0 1 0-3.5h4.971a1.75 1.75 0 0 1 1.748 1.75z" fill="url(#a)"/></svg>