<svg height="512" viewBox="0 0 128 128" width="512" xmlns="http://www.w3.org/2000/svg" xmlns:xlink="http://www.w3.org/1999/xlink"><linearGradient id="a" gradientUnits="userSpaceOnUse" x1="94.982" x2="27.051" y1="113.905" y2="45.974"><stop offset="0" stop-color="#fd5c70"/><stop offset="1" stop-color="#ffce64"/></linearGradient><path d="m106.082 88.958v-25.191a1.749 1.749 0 0 0 -1.75-1.75h-25.138v-24.639a1.749 1.749 0 0 0 -1.75-1.75h-26.888a1.749 1.749 0 0 0 -1.75 1.75v12.7h-25.138a1.749 1.749 0 0 0 -1.75 1.75v37.13a5.229 5.229 0 0 0 -4.668 5.182v1.83a5.246 5.246 0 0 0 5.24 5.24h45.2a1.75 1.75 0 0 0 0-3.5h-45.2a1.741 1.741 0 0 1 -1.74-1.74v-1.83a1.742 1.742 0 0 1 1.74-1.74h83.02a1.742 1.742 0 0 1 1.74 1.74v1.83a1.741 1.741 0 0 1 -1.74 1.74h-14.62a1.75 1.75 0 0 0 0 3.5h14.62a5.246 5.246 0 0 0 5.24-5.24v-1.83a5.229 5.229 0 0 0 -4.668-5.182zm-3.5-23.441v23.383h-23.388v-23.383zm-50.276-26.389h23.388v49.772h-23.388zm-3.5 14.454v35.318h-23.388v-35.318zm34.713 45.878a1.749 1.749 0 0 1 -1.75 1.75h-4.969a1.75 1.75 0 0 1 0-3.5h4.969a1.749 1.749 0 0 1 1.75 1.75z" fill="url(#a)"/></svg>