<?xml version="1.0" encoding="iso-8859-1"?>
<!-- Uploaded to: SVG Repo, www.svgrepo.com, Generator: SVG Repo Mixer Tools -->
<!DOCTYPE svg PUBLIC "-//W3C//DTD SVG 1.1//EN" "http://www.w3.org/Graphics/SVG/1.1/DTD/svg11.dtd">
<svg fill="#ee2d2d" version="1.1" id="Capa_1" xmlns="http://www.w3.org/2000/svg"
	xmlns:xlink="http://www.w3.org/1999/xlink" width="800px" height="800px" viewBox="0 0 600.91 600.91"
	xml:space="preserve">
	<g>
		<g>
			<g>
				<path d="M538.416,406.661H62.495c-32.058,0-58.14,26.082-58.14,58.141v77.469c0,32.059,26.082,58.14,58.14,58.14h475.921
				c32.059,0,58.14-26.081,58.14-58.14v-77.469C596.557,432.743,570.475,406.661,538.416,406.661z M553.717,542.271
				c0,8.45-6.851,15.3-15.3,15.3H62.495c-8.45,0-15.3-6.85-15.3-15.3v-77.469c0-8.45,6.85-15.3,15.3-15.3h475.922
				c8.449,0,15.3,6.85,15.3,15.3V542.271z" />
				<path d="M538.416,600.91H62.495c-32.334,0-58.64-26.306-58.64-58.64v-77.469c0-32.335,26.306-58.641,58.64-58.641h475.921
				c15.639,0,30.357,6.106,41.445,17.194c11.089,11.089,17.194,25.808,17.194,41.446v77.469
				C597.056,574.604,570.75,600.91,538.416,600.91z M62.495,407.161c-31.783,0-57.64,25.857-57.64,57.641v77.469
				c0,31.782,25.857,57.64,57.64,57.64h475.921c31.782,0,57.64-25.857,57.64-57.64v-77.469c0-15.371-6.002-29.84-16.901-40.738
				c-10.898-10.899-25.367-16.902-40.738-16.902H62.495z M538.417,558.07H62.495c-8.712,0-15.8-7.088-15.8-15.8v-77.469
				c0-8.712,7.088-15.8,15.8-15.8h475.922c8.712,0,15.8,7.088,15.8,15.8v77.469C554.217,550.982,547.129,558.07,538.417,558.07z
				 M62.495,450.002c-8.161,0-14.8,6.639-14.8,14.8v77.469c0,8.161,6.639,14.8,14.8,14.8h475.922c8.161,0,14.8-6.639,14.8-14.8
				v-77.469c0-8.161-6.639-14.8-14.8-14.8H62.495z" />
			</g>
			<g>
				<path d="M343.947,19.225C332.689,7.325,316.837,0.5,300.456,0.5s-32.233,6.824-43.491,18.724L20.769,268.881
				c-8.454,8.936-13.894,20.016-15.731,32.042c-1.693,11.081-0.23,22.417,4.232,32.779c4.461,10.363,11.69,19.216,20.904,25.603
				c9.999,6.93,21.786,10.594,34.087,10.594h472.391c12.302,0,24.089-3.663,34.087-10.594c9.215-6.387,16.442-15.239,20.904-25.603
				c4.461-10.362,5.925-21.697,4.231-32.779c-1.837-12.026-7.276-23.107-15.73-32.042L343.947,19.225z M536.651,327.059H64.26
				c-14.947,0-22.644-17.879-12.372-28.736L288.084,48.667c3.359-3.551,7.866-5.326,12.372-5.326s9.012,1.775,12.372,5.326
				l236.195,249.656C559.295,309.18,551.598,327.059,536.651,327.059z" />
				<path d="M536.651,370.398H64.26c-12.402,0-24.288-3.694-34.372-10.683c-9.292-6.44-16.581-15.367-21.079-25.816
				c-4.499-10.448-5.975-21.878-4.267-33.052c1.854-12.128,7.338-23.301,15.862-32.311L256.601,18.88
				C267.953,6.882,283.938,0,300.456,0c16.519,0,32.503,6.882,43.855,18.881l236.196,249.656
				c8.524,9.009,14.009,20.182,15.861,32.311c1.707,11.173,0.232,22.603-4.267,33.052c-4.499,10.45-11.788,19.377-21.078,25.816
				C560.941,366.704,549.056,370.398,536.651,370.398z M300.456,1c-16.245,0-31.964,6.768-43.128,18.568L21.132,269.225
				c-8.383,8.861-13.778,19.848-15.601,31.773c-1.679,10.989-0.228,22.229,4.197,32.506c4.424,10.277,11.593,19.057,20.73,25.39
				c9.916,6.872,21.604,10.505,33.802,10.505h472.391c12.2,0,23.889-3.633,33.802-10.505c9.137-6.332,16.306-15.112,20.73-25.389
				c4.424-10.278,5.875-21.519,4.196-32.507c-1.821-11.926-7.216-22.913-15.6-31.773L343.584,19.568
				C332.421,7.768,316.701,1,300.456,1z M536.651,327.559H64.26c-7.118,0-13.288-4.062-16.103-10.599
				c-2.814-6.538-1.524-13.812,3.368-18.981L287.721,48.323c3.345-3.535,7.868-5.482,12.735-5.482c4.868,0,9.39,1.947,12.735,5.482
				l236.195,249.656c4.892,5.17,6.182,12.443,3.367,18.981C549.938,323.497,543.769,327.559,536.651,327.559z M300.456,43.84
				c-4.59,0-8.854,1.836-12.008,5.17L52.252,298.666c-4.613,4.875-5.83,11.733-3.175,17.898c2.654,6.164,8.472,9.994,15.184,9.994
				h472.391c6.712,0,12.529-3.83,15.184-9.994c2.653-6.165,1.437-13.023-3.176-17.898L312.464,49.01
				C309.31,45.676,305.045,43.84,300.456,43.84z" />
			</g>
		</g>
	</g>
</svg>