<?xml version="1.0" encoding="iso-8859-1"?>
<!-- Uploaded to: SVG Repo, www.svgrepo.com, Generator: SVG Repo Mixer Tools -->
<svg fill="#ec1111" height="800px" width="800px" version="1.1" id="Layer_1" xmlns="http://www.w3.org/2000/svg"
	xmlns:xlink="http://www.w3.org/1999/xlink" viewBox="0 0 512 512" xml:space="preserve">
	<g>
		<g>
			<path d="M191.832,101.871c-3.956-1.411-8.306,0.655-9.716,4.609c-2.789,7.824-5.436,15.963-7.871,24.192
			c-1.19,4.027,1.109,8.257,5.137,9.448c0.719,0.213,1.445,0.314,2.159,0.314c3.282,0,6.311-2.142,7.289-5.45
			c2.354-7.963,4.915-15.835,7.611-23.398C197.852,107.631,195.788,103.281,191.832,101.871z" />
		</g>
	</g>
	<g>
		<g>
			<path d="M320.075,81.495c-20.451-47.462-41.626-69.744-45.797-73.852c-3.963-4.017-9.221-6.647-14.812-7.408
			c-7.314-0.998-14.7,1.206-20.249,6.018c-0.405,0.348-0.799,0.71-1.135,1.04c-4.054,3.909-25.329,25.867-46.156,74.201
			c-1.662,3.857,0.118,8.331,3.974,9.992c3.854,1.662,8.33-0.117,9.992-3.974c20.093-46.63,40.49-67.094,42.794-69.319
			c0.143-0.14,0.29-0.276,0.466-0.428c2.272-1.97,5.286-2.869,8.261-2.462c2.289,0.312,4.442,1.392,6.061,3.042
			c0.033,0.033,0.067,0.067,0.1,0.101c3.698,3.631,23.128,24.026,42.534,69.065c26.921,62.478,40.859,140.923,41.425,233.157
			c0.017,2.767-1.091,5.478-3.041,7.44s-4.654,3.086-7.419,3.086h-49.475V295.22c0-17.424-14.175-31.599-31.598-31.599
			c-17.423,0-31.599,14.175-31.599,31.599v35.976h-49.475c-2.766,0-5.471-1.124-7.419-3.086s-3.058-4.673-3.041-7.44
			c0.36-58.597,6.184-112.128,17.308-159.104c0.967-4.087-1.561-8.184-5.647-9.151c-4.086-0.97-8.184,1.56-9.151,5.646
			c-11.389,48.093-17.349,102.771-17.717,162.516c-0.042,6.787,2.679,13.44,7.462,18.254c4.783,4.813,11.419,7.573,18.206,7.573
			h49.533c0.54,9.348,5.165,17.613,12.109,23.046v13.623c-7.09,2.625-12.166,9.434-12.166,17.425v79.904
			c0,17.423,14.175,31.598,31.599,31.598c17.424,0,31.598-14.175,31.598-31.598v-79.904c0-7.991-5.076-14.8-12.166-17.425V369.45
			c6.944-5.433,11.568-13.699,12.109-23.046h49.533c6.787,0,13.423-2.761,18.206-7.574c4.784-4.814,7.504-11.467,7.462-18.254
			C362.162,226.294,347.807,145.854,320.075,81.495z M256.001,496.792c-9.038,0-16.391-7.353-16.391-16.39v-79.904
			c0-1.868,1.519-3.386,3.386-3.386h26.01c1.867,0,3.385,1.519,3.385,3.386v79.904h0
			C272.391,489.44,265.038,496.792,256.001,496.792z M251.776,381.905v-6.036c1.383,0.186,2.791,0.291,4.225,0.291
			c1.434,0,2.841-0.105,4.224-0.291v6.036H251.776z M272.392,344.561c0,9.038-7.353,16.39-16.39,16.39
			c-9.038,0-16.391-7.353-16.391-16.39V295.22h-0.001c0-6.293,3.57-11.762,8.787-14.507v43.23c0,4.2,3.405,7.604,7.604,7.604
			c4.199,0,7.604-3.404,7.604-7.604v-43.23c5.216,2.746,8.787,8.214,8.787,14.507V344.561z" />
		</g>
	</g>
	<g>
		<g>
			<path d="M317.665,174.901c-6.401-29.544-14.99-56.921-25.525-81.37c-1.661-3.857-6.133-5.638-9.992-3.974
			c-3.857,1.661-5.636,6.135-3.974,9.992c10.148,23.55,18.434,49.986,24.629,78.572c0.773,3.563,3.923,5.996,7.424,5.996
			c0.534,0,1.076-0.056,1.616-0.173C315.948,183.054,318.554,179.005,317.665,174.901z" />
		</g>
	</g>
	<g>
		<g>
			<path d="M327.764,237.918c-1.193-10.908-2.639-21.706-4.3-32.092c-0.662-4.148-4.562-6.964-8.708-6.309
			c-4.147,0.663-6.971,4.562-6.308,8.709c1.62,10.139,3.033,20.685,4.199,31.346c0.426,3.894,3.721,6.779,7.549,6.779
			c0.277,0,0.556-0.015,0.835-0.048C325.206,245.846,328.22,242.093,327.764,237.918z" />
		</g>
	</g>
</svg>