<svg id="Layer_1" enable-background="new 0 0 64 64" viewBox="0 0 64 64" xmlns="http://www.w3.org/2000/svg"><path d="m22 20.2-.6-.9c-.4-.6-1-1-1.7-1.2-1-.2-1.9.7-1.7 1.8l.7 3.5c.3 1.5 1.4 2.7 2.9 3.1l1 .3zm19.4 6.6 1-.3c1.5-.4 2.6-1.6 2.9-3.1l.7-3.5c.2-1-.7-1.9-1.7-1.8-.7.1-1.3.6-1.7 1.2l-.6.9zm21.8 37.2v-8.7c0-4.6-2.8-8.8-7-10.5l-12.5-5.2c-1.8-.7-2.9-2.4-2.9-4.3v-6.3h-17.6v6.2c0 1.9-1.1 3.6-2.9 4.3l-12.5 5.3c-4.3 1.8-7 5.9-7 10.5v8.7z" fill="#f0b496"/><path d="m23.2 34.5.9 1.2 2.3 2.3c1.1 1.1 2.9 1.7 4.4 1.7h2.3c1.5 0 3.4-.6 4.4-1.7l2.3-2.3.9-1.2v-5.5h-17.5z" fill="#e6a082"/><path d="m33.2 37c1.5 0 3.4-.6 4.4-1.7l2.3-2.3c1.2-1.3 2-2.9 2.2-4.7l.7-6.6c.1-1.3.2-2.6.2-4v-6.7c0-5.6-4.5-10.1-10.1-10.1h-1.9c-5.5 0-10 4.5-10 10.1v6.7c0 1.3.1 2.6.2 4l.7 6.6c.2 1.8 1 3.4 2.2 4.7l2.3 2.3c1.1 1.1 2.9 1.7 4.4 1.7z" fill="#f0c8aa"/><path d="m21.8 10.8c.1-1.4 1.1-2.8 2.4-3.3 2.7-1 3.9.7 7.7.7 3.9 0 5-1.7 7.7-.7 1.3.5 2.3 1.9 2.4 3.2v.1h1c-.1-3.1-1.5-5.9-3.8-7.7-2-1.1-4.5-1.8-7.3-1.8-2.5 0-4.8.5-6.7 1.5-2.5 1.8-4.2 4.7-4.2 8z" fill="#e6a082"/><path d="m42.5 4.7c-2-2.9-6-4.7-10.6-4.7s-8.6 1.8-10.6 4.7-2.8 6.4-1.9 13.4h.3c.5.1 1 .4 1.4.7 1.4-5.5.4-4.6.8-9.4.1-1.3 1.1-2.7 2.4-3.2 2.7-1 3.9.7 7.7.7 3.9 0 5-1.7 7.7-.7 1.3.5 2.2 1.9 2.3 3.2.4 4.9-.7 3.9.8 9.6.4-.4.9-.8 1.5-.9h.2c.8-6.8 0-10.6-2-13.4zm-4.9 23.5c-.3-.5-.9-.8-1.5-.8h-8.2c-.6 0-1.2.3-1.5.8-.7 1-1 2.3-1 3.5v1.1c0 .4.4.8.8.8s.8-.4.8-.8v-2.3h10v2.3c0 .4.4.8.8.8s.8-.4.8-.8v-1.1c0-1.2-.3-2.4-1-3.5z" fill="#6b4c38"/><path d="m63.2 55.3c0-4.6-2.8-8.8-7-10.5l-12.5-5.2c-.1 0-.1-.1-.2-.1-2.4 4.8-6.4 8.9-11.5 12-5.1-3.1-9.1-7.2-11.5-12-.1 0-.1.1-.2.1l-12.5 5.2c-4.3 1.8-7 5.9-7 10.5v8.7h62.4z" fill="#ff7878"/></svg>