<svg viewBox="0 0 512 512" xmlns="http://www.w3.org/2000/svg"><g id="Layer_2" data-name="Layer 2"><g id="Layer_1_copy_14" data-name="Layer 1 copy 14"><g id="_76" data-name="76"><g id="background"><path d="m256 10a246.06 246.06 0 0 1 95.75 472.67 246.06 246.06 0 0 1 -191.5-453.34 244.37 244.37 0 0 1 95.75-19.33m0-10c-141.38 0-256 114.62-256 256s114.62 256 256 256 256-114.62 256-256-114.62-256-256-256z" fill="#fc0"/></g><g fill="#fc0"><path d="m387.1 345.59c-13.76-58.07-54.1-102.89-104.47-114.75a76.27 76.27 0 0 1 -53.26 0c-50.37 11.86-90.71 56.68-104.47 114.75a14.37 14.37 0 0 0 2.59 12.05 162 162 0 0 0 257 0 14.37 14.37 0 0 0 2.61-12.05z"/><circle cx="256" cy="159.32" r="68.32"/></g></g></g></g></svg>