<svg id="Layer_1" height="512" viewBox="0 0 512 512" width="512" xmlns="http://www.w3.org/2000/svg" data-name="Layer 1"><g fill-rule="evenodd"><path d="m256.006 0c141.345 0 255.987 114.622 255.987 256.005s-114.642 255.995-255.987 255.995c-141.392 0-255.987-114.622-255.987-255.995s114.595-256.005 255.987-256.005z" fill="#ffc107"/><path d="m256.006 246.657a67.668 67.668 0 1 0 -67.652-67.664 67.756 67.756 0 0 0 67.652 67.664zm76.29 14.158a119.9 119.9 0 0 1 -152.581 0 149.714 149.714 0 0 0 -73.709 122.567.051.051 0 0 0 .022.011c49.01 11.836 99.588 17.287 149.978 17.287s100.978-5.447 150-17.285a149.712 149.712 0 0 0 -73.706-122.58z" fill="#fff"/></g></svg>