<svg id="Layer_1" enable-background="new 0 0 64 64" viewBox="0 0 64 64" xmlns="http://www.w3.org/2000/svg"><path d="m63.2 64v-8.7c0-4.6-2.8-8.8-7-10.5l-12.5-5.2c-1.8-.7-2.9-2.4-2.9-4.3v-6.3h-17.6v6.2c0 1.9-1.1 3.6-2.9 4.3l-12.5 5.3c-4.3 1.8-7 5.9-7 10.5v8.7z" fill="#f0b496"/><path d="m56.2 44.8-12.4-5.2v.3c0 6.5-5.3 11.8-11.7 11.8-6.5 0-11.8-5.3-11.8-11.8v-.3l-12.5 5.2c-4.3 1.8-7 5.9-7 10.5v8.7h62.4v-8.7c0-4.6-2.8-8.7-7-10.5z" fill="#5d5d5d"/><path d="m32 42.2c2 0 4.2-.1 7.5-3.4.6-.6 1.2-1.3 1.6-1.9-.2-.5-.3-1.1-.3-1.7v-3.9c-.6 1.2-1.4 1.9-2.2 2.3l-.1-.2c-.2-.8-.5-1.5-1-2.1-.3-.5-.9-.8-1.5-.8h-8.1c-.6 0-1.2.3-1.5.8-.4.7-.8 1.4-1 2.1l-.1.2c-.8-.5-1.6-1.2-2.2-2.4v3.9c0 .6-.1 1.2-.3 1.7.5.7 1 1.3 1.6 1.9 3.2 3.2 5.3 3.5 7.6 3.5z" fill="#e6a082"/><path d="m22 20.2-.6-.9c-.4-.6-1-1-1.7-1.2-1-.2-1.9.7-1.7 1.8l.7 3.5c.3 1.5 1.4 2.7 2.9 3.1l1 .3zm19.4 6.6 1-.3c1.5-.4 2.6-1.6 2.9-3.1l.7-3.5c.2-1-.7-1.9-1.7-1.8-.7.1-1.3.6-1.7 1.2l-.6.9z" fill="#f0b496"/><path d="m33.2 37c1.5 0 3.4-.6 4.4-1.7l2.3-2.3c1.2-1.3 2-2.9 2.2-4.7l.7-6.6c.1-1.3.2-2.6.2-4v-6.7c0-5.6-4.5-10.1-10.1-10.1h-1.9c-5.5 0-10 4.5-10 10.1v6.7c0 1.3.1 2.6.2 4l.7 6.6c.2 1.8 1 3.4 2.2 4.7l2.3 2.3c1.1 1.1 2.9 1.7 4.4 1.7z" fill="#f0c8aa"/><g fill="#6b4c38"><path d="m42.3 15.6v5.9c-.2 6.4-1.9 8.6-3.7 9.6l-.1-.2c-.2-.8-.5-1.5-1-2.1-.3-.5-.9-.8-1.5-.8h-8.1c-.6 0-1.2.3-1.5.8-.4.7-.8 1.4-1 2.1l-.1.2c-1.8-1-3.5-3.2-3.7-9.6v-5.9h-1.4v10.6c0 3.5 1 7 4.2 10 3.1 3 5.2 3.4 7.5 3.4 2 0 4.2-.1 7.5-3.4 3.1-3 4.2-6.6 4.2-10v-10.6z"/><path d="m42.5 4.7c-2-2.9-6-4.7-10.6-4.7s-8.6 1.8-10.6 4.7-2.8 6.4-1.9 13.4h.3c.5.1 1 .4 1.4.7 1.4-5.5.4-4.6.8-9.4.1-1.3 1.1-2.7 2.4-3.2 2.7-1 3.9.7 7.7.7 3.9 0 5-1.7 7.7-.7 1.3.5 2.2 1.9 2.3 3.2.4 4.9-.7 3.9.8 9.6.4-.4.9-.8 1.5-.9h.2c.8-6.8 0-10.6-2-13.4z"/></g></svg>