<svg id="Layer_1" enable-background="new 0 0 64 64" viewBox="0 0 64 64" xmlns="http://www.w3.org/2000/svg"><path d="m21.8 36.9 10.2 8.7 10.2-8.7z" fill="#aa7846"/><path d="m63.7 64v-8.8c0-4.7-2.8-8.9-7.1-10.7l-12.6-5.3c-1.8-.7-2.9-2.5-2.9-4.4v-6.3h-18.1v6.3c0 1.9-1.2 3.7-2.9 4.4l-12.6 5.3c-4.3 1.8-7.1 6-7.1 10.7v8.8z" fill="#a05032"/><path d="m56.5 44.5-12.6-5.3c-.4-.2-.8-.4-1.1-.6l-10.8 7s-6.3-3.9-11-6.9c-.3.2-.6.4-.9.5l-12.6 5.3c-4.3 1.8-7.1 6-7.1 10.7v8.8h63.3v-8.8c0-4.7-2.9-8.9-7.2-10.7z" fill="#c89664"/><path d="m43.9 39.2-11.9 6.4-11.9-6.4-1.5.6 7.4 14.3 6-5.8 6 5.8 7.4-14.3z" fill="#aa7846"/><path d="m21.8 19.6-.6-.9c-.4-.6-1-1.1-1.8-1.2-1-.2-2 .7-1.8 1.8l.7 3.6c.3 1.5 1.4 2.8 2.9 3.2l1 .3zm19.8 6.7 1-.3c1.5-.4 2.6-1.7 2.9-3.2l.7-3.6c.2-1-.7-2-1.8-1.8-.7.1-1.4.6-1.8 1.2l-.6.9z" fill="#a05032"/><path d="m23 34.1.9 1.2 2.4 2.3c1.1 1.1 2.9 1.8 4.5 1.8h2.4c1.6 0 3.4-.6 4.5-1.8l2.4-2.3.9-1.2v-5.6h-18z" fill="#823214"/><path d="m33.2 36.6c1.6 0 3.4-.6 4.5-1.8l2.4-2.3c1.2-1.3 2-3 2.2-4.7l.7-6.7c.1-1.3.2-2.7.2-4v-6.8c0-5.7-4.6-10.3-10.3-10.3h-1.9c-5.7 0-10.3 4.6-10.3 10.3v6.8c0 1.3.1 2.7.2 4l.7 6.7c.2 1.8 1 3.4 2.2 4.7l2.4 2.3c1.1 1.1 2.9 1.8 4.5 1.8z" fill="#b46446"/><path d="m18.6 39.8 7.4 11.6 6-5.8-10.2-8.7zm26.8 0-7.4 11.6-6-5.8 10.2-8.7z" fill="#e6b482"/></svg>