<svg id="Layer_1" enable-background="new 0 0 64 64" viewBox="0 0 64 64" xmlns="http://www.w3.org/2000/svg"><path d="m63.7 64v-8.8c0-4.7-2.8-8.9-7.1-10.7l-12.7-5.3c-1.8-.7-2.9-2.5-2.9-4.4v-6.3h-18v6.3c0 1.9-1.2 3.7-2.9 4.4l-12.6 5.3c-4.3 1.8-7.1 6-7.1 10.7v8.8z" fill="#f0b496"/><path d="m56.5 44.5-12.7-5.3c-1.3-.5-2.2-1.6-2.7-2.8v3.1c0 5.1-4.1 9.2-9.2 9.2s-9.2-4.1-9.2-9.2v-3.1c-.4 1.2-1.4 2.3-2.6 2.8l-12.6 5.3c-4.3 1.8-7.1 6-7.1 10.7v8.8h63.3v-8.8c0-4.7-2.9-8.9-7.2-10.7z" fill="#6eb4dc"/><path d="m56.5 44.5-12.6-5.3v.3c0 6.6-5.3 11.9-11.9 11.9s-11.9-5.3-11.9-11.9v-.3l-12.6 5.3c-4.3 1.8-7.1 6-7.1 10.7v8.8h63.3v-8.8c0-4.7-2.9-8.9-7.2-10.7z" fill="#1e648c"/><path d="m32 41.9c2 0 4.3-.1 7.6-3.4.6-.6 1.2-1.3 1.7-1.9-.2-.6-.3-1.2-.3-1.8v-3.9c-.6 1.2-1.4 1.9-2.2 2.4l-.1-.2c-.2-.8-.5-1.5-1-2.2-.3-.5-.9-.8-1.5-.8h-8.4c-.6 0-1.2.3-1.5.8-.4.7-.8 1.4-1 2.2l-.1.2c-.8-.5-1.6-1.2-2.2-2.4v3.9c0 .6-.1 1.2-.4 1.8.5.7 1 1.3 1.7 1.9 3.2 3.1 5.3 3.4 7.7 3.4z" fill="#e6a082"/><path d="m21.8 19.6-.6-.9c-.4-.6-1-1.1-1.8-1.2-1-.2-2 .7-1.8 1.8l.7 3.6c.3 1.5 1.4 2.8 2.9 3.2l1 .3zm19.8 6.7 1-.3c1.5-.4 2.6-1.7 2.9-3.2l.7-3.6c.2-1-.7-2-1.8-1.8-.7.1-1.4.6-1.8 1.2l-.6.9z" fill="#f0b496"/><path d="m33.2 36.7c1.6 0 3.4-.6 4.5-1.8l2.4-2.3c1.2-1.3 2-3 2.2-4.7l.7-6.7c.1-1.3.2-2.7.2-4v-6.8c0-5.8-4.6-10.4-10.3-10.4h-1.9c-5.7 0-10.3 4.6-10.3 10.3v6.8c0 1.3.1 2.7.2 4l.7 6.7c.2 1.8 1 3.4 2.2 4.7l2.4 2.3c1.1 1.1 2.9 1.8 4.5 1.8 6.9.1-4.3.1 2.5.1z" fill="#f0c8aa"/><path d="m43.2 18.1-.2.9c-.3 1.1-.5 2.3-.6 3.4-.4 5.3-2 7.2-3.6 8.2l-.1-.2c-.2-.8-.5-1.5-1-2.2-.3-.5-.9-.8-1.5-.8h-8.4c-.6 0-1.2.3-1.5.8-.4.7-.8 1.4-1 2.2l-.1.2c-1.7-1-3.3-3-3.7-8.6-.1-.9-.2-1.8-.5-2.7l-.3-1.2-.1.4c-.4 1.9-.6 3.8-.6 5.7v1.4c0 3.5 1 7.1 4.2 10.2 3.1 3 5.3 3.4 7.6 3.4 2 0 4.3-.1 7.6-3.4 3.2-3.1 4.2-6.7 4.2-10.2v-1.1c.3-2.1.1-4.2-.4-6.4z" fill="#aa641e"/><path d="m43.7 16.2c-1.1-.1-5-.3-6.8-.3-2.1 0-3.7 1-4.5 1h-.7c-.8 0-2.4-1-4.5-1-1.8 0-5.7.2-6.8.3-.2 0-.3.2-.3.3v.8c0 .2.1.4.3.5s.5.3.7.9c.3 1 .7 4.3 3.3 4.9 2.5.5 4.6-.1 5.4-1.4s.9-3.5 1.9-3.5h.7c1 0 1.1 2.2 1.9 3.5s2.9 2 5.4 1.4c2.5-.5 3-3.9 3.3-4.9.2-.6.5-.8.7-.9s.3-.3.3-.5v-.8c0-.1-.2-.2-.3-.3zm-14.6 5.7c-.3.5-1.5 1.4-3.2 1.4-.5 0-1-.1-1.5-.2-.7-.2-1.3-.8-1.8-1.6-.7-1.4-.7-3.3-.6-3.6.2-.7 1.3-1 3.2-1 2.2 0 4.5.6 4.8 1.3.3.6-.4 2.9-.9 3.7zm12.3-.5c-.4.8-1 1.4-1.8 1.6-.5.2-1 .2-1.5.2-1.7 0-2.9-.9-3.2-1.4-.6-.8-1.3-3-.9-3.8.3-.7 2.5-1.3 4.8-1.3 1.9 0 3 .3 3.2 1 .1.5.1 2.3-.6 3.7z" fill="#5d5d5d"/><path d="m30 19.2c.1-.5.1-.9 0-1.1-.3-.7-2.5-1.3-4.8-1.3-1.9 0-3 .3-3.2 1 0 .1-.1.5-.1 1 1.6-.1 3.9-.2 5.1-.2 1.3 0 2.2.3 3 .6zm12-.4c0-.5 0-.9-.1-1-.2-.7-1.3-1-3.2-1-2.2 0-4.5.6-4.8 1.3-.1.2-.1.6 0 1.1.8-.3 1.7-.6 2.9-.6 1.3 0 3.6.1 5.2.2z" fill="#e6a082"/></svg>