<svg id="Layer_1" enable-background="new 0 0 64 64" viewBox="0 0 64 64" xmlns="http://www.w3.org/2000/svg"><path d="m22.3 38 9.7 8.4 9.7-8.4z" fill="#bebebe"/><path d="m62.3 64v-8.4c0-4.5-2.7-8.5-6.8-10.2l-12.1-5.1c-1.7-.7-2.8-2.4-2.8-4.2v-6.1h-17.2v6.1c0 1.8-1.1 3.5-2.8 4.2l-12.1 5c-4.1 1.7-6.8 5.8-6.8 10.2v8.5zm-40-42.5-.6-.9c-.4-.6-1-1-1.7-1.1-1-.2-1.9.7-1.7 1.7l.7 3.4c.3 1.5 1.4 2.6 2.8 3l1 .3zm18.9 6.4 1-.3c1.4-.4 2.5-1.6 2.8-3l.7-3.4c.2-1-.7-1.9-1.7-1.7-.7.1-1.3.5-1.7 1.1l-.6.9z" fill="#f0b496"/><path d="m23.4 35.3c.3.4.5.8.9 1.1l2.3 2.2c1 1.1 2.8 1.7 4.3 1.7h2.3c1.5 0 3.3-.6 4.3-1.7l2.3-2.2c.3-.3.6-.7.9-1.1v-5.3h-17.3z" fill="#e6a082"/><path d="m33.1 37.8c1.5 0 3.3-.6 4.3-1.7l2.3-2.2c1.2-1.2 1.9-2.8 2.1-4.5l.7-6.4c.1-1.3.2-2.6.2-3.9v-6.5c0-5.4-4.4-9.8-9.8-9.8h-1.8c-5.4 0-9.8 4.4-9.8 9.8v6.5c0 1.3.1 2.6.2 3.9l.7 6.4c.2 1.7.9 3.3 2.1 4.5l2.3 2.2c1 1.1 2.8 1.7 4.3 1.7z" fill="#f0c8aa"/><path d="m41.7 7.3c-.6-.4-1.4-.2-1.8.4.7-1.2.6-2.3.1-3.2-1.1-1.2-2.5-2.1-4.1-2.6-.1 0-.2 0-.2-.1-.9-.3-1.8-.4-2.8-.4h-1.8c-5.4 0-9.8 4.4-9.8 9.8v6.5l.2 1.2c1.1-3 1.5-4.8 1.5-6 .1-1.4 1-2.5 2.2-3 1-.4 2.1-.5 3.1-.1l.7.2c2.1.6 3.9.6 5.9 0l.7-.2c1-.3 2.1-.3 3.1.1 1.3.5 2.1 1.7 2.2 3 0 1.5.2 2.8 1.5 6l.2-1.2v-6.5c0-1.4-.3-2.7-.8-3.8.1 0 0-.1-.1-.1z" fill="#e6a082"/><path d="m39.5 7.2.5-.8c2.3-3.8-3.7-6.4-8.1-6.4-3.5 0-6.8 1.3-9.4 3.6-3.5 3.2-2.6 9.3-2.1 16l1 .7.6-2.4c.4-1.7.7-3.5.9-5.2l.1-.8c.1-1.4 1-2.5 2.2-3 1-.4 2.1-.5 3.1-.1h.7c2.1.6 3.9.6 5.9 0l.7-.2c1-.3 2.1-.3 3.1.1 1.3.5 2.1 1.7 2.2 3l.1.8c.1 1.8.4 3.5.9 5.2l.6 2.4 1-.7c.5-5.9 1.5-11.3-1.8-13.4-.6-.4-1.4-.2-1.8.4z" fill="#6b4c38"/><path d="m41.7 20.2v.9c-1.6-.1-2.6-.1-4.2-.1-.9 0-1.7.1-2.6.2l-1.1.2-.2-.6c-.1-.3-.1-.6 0-.8s.4-.4.7-.5l.7-.1c.8-.1 1.6-.2 2.5-.2h.6c1.3 0 2 0 2.8.1.5 0 .8.4.8.9zm-11.3.6-.2.6-1.1-.2c-.9-.1-1.7-.2-2.6-.2-1.6 0-2.6 0-4.2.1v-.9c0-.5.4-.9.9-.9.8-.1 1.5-.1 2.8-.1h.6c.8 0 1.7.1 2.5.2l.7.1c.3 0 .5.2.7.5 0 .3 0 .6-.1.8z" fill="#e6a082"/><path d="m43.1 18.7-1.2-.1c-1.6-.1-2.7-.1-4.3-.1-.9 0-1.7.1-2.6.2l-2.2.3c-.6.1-1.1.1-1.6 0l-2.1-.3c-.9-.1-1.7-.2-2.6-.2-1.7 0-2.7 0-4.3.1l-1.2.1c-.2 0-.4.2-.4.4v.8c0 .2.1.4.2.5.2.2.4.5.5.8l.4 1.6c.1.5.5.9 1.1 1.1 1.9.5 4 .6 6 .3.7-.1 1.2-.5 1.5-1.1l.8-2c.2-.4.6-.7 1-.7s.8.3 1 .7l.8 2c.3.6.8 1 1.5 1.1 1.9.2 4.1.1 6-.3.5-.1.9-.5 1.1-1.1l.4-1.6c.1-.3.2-.6.5-.8.1-.1.2-.3.2-.5v-.8c-.2-.2-.3-.4-.5-.4zm-12.7 2.1-.2.6-.6 1.4c-.2.4-.5.6-.9.7-.7.1-1.4.1-2 .1-1.3 0-2.6-.1-3.7-.4-.3-.1-.5-.3-.6-.5v-2.4c0-.5.4-.9.9-.9.8-.1 1.5-.1 2.8-.1h.6c.8 0 1.7.1 2.5.2l.7.1c.3 0 .5.2.7.5-.1.2-.1.5-.2.7zm11.3 1.6v.2c-.1.3-.3.5-.6.6-1.1.3-2.4.4-3.7.4-.7 0-1.4 0-2-.1-.4 0-.8-.3-.9-.7l-.6-1.4-.2-.6c-.1-.3-.1-.6 0-.8s.4-.4.7-.5l.7-.1c.8-.1 1.6-.2 2.5-.2h.6c1.3 0 2 0 2.8.1.5 0 .9.4.9.9v2.2z" fill="#5d5d5d"/><path d="m55.5 45.3-12.1-5.1c-.4-.2-.7-.4-1-.6l-10.4 6.8s-6-3.8-10.5-6.6c-.3.2-.6.4-.9.5l-12.1 5c-4.1 1.7-6.8 5.8-6.8 10.2v8.5h60.6v-8.4c0-4.5-2.7-8.5-6.8-10.3z" fill="#3c3c3c"/><path d="m23.6 64h15.4l7.7-22.3-3.3-1.4c-.4-.2-.7-.4-1-.6l-10.4 6.7s-6-3.8-10.5-6.6c-.3.2-.6.4-.9.5l-3 1.3z" fill="#dcdcdc"/><path d="m17.9 41.4 8.4 13.1 5.7-5.5-11.4-8.7zm28.6.2-8.8 12.9-5.7-5.5 11.4-8.7z" fill="#c8c8c8"/><path d="m19.2 40.9 7.1 11 5.7-5.5-9.7-8.4zm25.6 0-7.1 11-5.7-5.5 9.7-8.4z" fill="#f0f0f0"/><path d="m45.5 64 6.2-7.9-6-2.3 4.4-.8.1-9.9-5.4-2.2-8.8 23.1zm-27 0-6.2-7.9 6-2.3-4.4-.8-.1-9.9 5.4-2.2 8.8 23.1z" fill="#5d5d5d"/><path d="m28.9 64 1.5-10.9-1.5-3.7 3.1-3 3.1 3-1.5 3.7 1.5 10.9z" fill="#ff7878"/><path d="m28.9 49.4.8 1.9 2.3-2.3 2.3 2.3.8-1.9-3.1-3z" fill="#e65a5a"/></svg>