<svg height="496pt" viewBox="-24 0 496 496.0015" width="496pt" xmlns="http://www.w3.org/2000/svg"><path d="m268.707031 310.207031-6.09375.015625-22.535156 12.683594c-9.199219 4.773438-19.382813 9.769531-29.75 9.957031l-.328125.003907c-11.664062.207031-28.910156-3.855469-39.15625-9.410157l-17.042969-12.957031-6.671875.015625c-49.886718 10.167969-87.441406 54.140625-87.441406 106.816406v45.46875h298.070312v-45.464843c0-53.234376-38.359374-97.585938-89.050781-107.128907zm0 0" fill="#ff9c7a"/><path d="m246.734375 279.542969-17.1875 6.308593c-6.585937 2.421876-13.484375 3.726563-20.433594 4.058594-11.074219.527344-22.039062-2.386718-32.085937-7.058594l-9.699219-5.25-17.535156 33.691407 21.050781 12.167969c10.246094 5.554687 27.492188 9.617187 39.15625 9.410156l.328125-.003906c10.367187-.1875 20.550781-5.183594 29.75-9.957032l28.625-11.742187zm0 0" fill="#d94635"/><path d="m99.613281 140.207031c-15.203125 7.335938-22.867187 24.550781-18.238281 40.277344 4.398438 14.929687 18.867188 25.128906 34.851562 24.308594l-15.035156-63.011719" fill="#ff9c7a"/><path d="m320.421875 141.980469c12.460937 3.21875 18.832031 20.160156 14.226563 37.84375-4.605469 17.683593-22.84375 29.410156-35.308594 26.191406zm0 0" fill="#ff9c7a"/><path d="m318.652344 77.554688c-3.378906-10.675782-11.1875-34.585938-34.617188-53.621094-27.390625-22.515625-58.511718-23.328125-68.1875-23.210938-60.492187-6.148437-93.242187 29.015625-93.242187 29.015625-22.148438 15.550781-8.042969 38.996094-8.042969 38.996094-4.429688 3.828125-8.863281 7.542969-13.289062 11.371094-.519532 1.230469-1.257813 3.066406-2.039063 5.328125-6.273437 18.121094-5.363281 34.789062-3.542969 47.679687h-.191406c.429688 2.515625.898438 4.964844 1.367188 7.402344.074218.421875.144531.855469.21875 1.261719.738281 4.269531 1.804687 9.324218 3.355468 14.984375 9.710938 39.339843 24.6875 67.886719 35.914063 85.824219 23.277343 37.183593 40.820312 45.578124 51.167969 49.089843 5.128906 1.742188 24.476562 7.429688 46.042968 0 12.855469-4.425781 27.480469-14.015625 47.324219-47.117187 8.105469-13.527344 18.144531-32.789063 26.722656-57.863282-.035156.503907-.070312 1.074219-.105469 1.558594 5.390626-11.878906 12.246094-30.441406 14.761719-54.0625 1.511719-14.203125 3.714844-33.476562-3.617187-56.636718zm0 0" fill="#ffd5ae"/><path d="m110.53125 147.292969c2.714844-15.378907 4.144531-23.25 7.914062-32.296875 3.007813-7.21875 6.292969-15.101563 13.472657-22.574219 12.316406-12.816406 27.859375-15.863281 35.210937-17.304687 23.765625-4.660157 43.464844 3.296874 49.773438 5.574218 18.644531 6.730469 20.046875 12.648438 34.382812 16.824219 18.066406 5.226563 35.429688 1.394531 48.253906-3.246094 2.730469 11.484375 4.460938 21.484375 5.597657 29.398438 2.734375 19.078125 3.09375 33.515625 3.164062 37.023437.222657 11.074219-.238281 20.480469-.792969 27.566406 5.390626-11.878906 12.246094-30.441406 14.761719-54.0625 1.511719-14.203124 3.71875-33.476562-3.613281-56.636718-3.378906-10.675782-11.1875-34.585938-34.617188-53.621094-27.390624-22.515625-58.511718-23.328125-68.1875-23.210938-60.496093-6.152343-93.246093 29.011719-93.246093 29.011719-22.148438 15.550781-8.042969 38.996094-8.042969 38.996094-4.429688 3.828125-8.863281 7.542969-13.289062 11.371094-.519532 1.230469-1.257813 3.066406-2.039063 5.328125-7.789063 22.5-4.503906 42.773437-2.148437 56.34375 1.460937 8.429687 3 19.707031 8.335937 32.863281 1.253906-11.292969 3.894531-20.464844 5.109375-27.347656zm0 0" fill="#ff9c7a"/><path d="m312.789062 335.011719c6.007813-1.394531 12.273438-2.132813 18.707032-2.132813 45.242187 0 81.917968 36.515625 81.917968 81.5625s-36.675781 81.558594-81.917968 81.558594c-45.238282 0-81.914063-36.515625-81.914063-81.5625 0-38.636719 26.980469-71 63.207031-79.425781" fill="#239198"/><path d="m331.496094 456.332031c-2.210938 0-4-1.789062-4-4v-80.410156c0-2.207031 1.789062-4 4-4 2.210937 0 4 1.792969 4 4v80.410156c0 2.210938-1.789063 4-4 4zm0 0" fill="#fff"/><path d="m371.875 416.125h-80.757812c-2.210938 0-4-1.792969-4-4s1.789062-4 4-4h80.753906c2.214844 0 4 1.792969 4 4s-1.785156 4-3.996094 4zm0 0" fill="#fff"/><path d="m16.390625 377.972656-16.390625 9.136719 16.390625 9.132813 8.957031 16.695312 8.964844-16.695312 16.382812-9.132813-16.382812-9.136719-8.964844-16.695312zm0 0" fill="#1a7bbf"/><path d="m413.6875 120.429688-16.382812 9.132812 16.382812 9.132812 8.964844 16.699219 8.960937-16.699219 16.386719-9.132812-16.386719-9.132812-8.960937-16.699219zm0 0" fill="#d94635"/></svg>