<svg id="Layer_1" enable-background="new 0 0 64 64" viewBox="0 0 64 64" xmlns="http://www.w3.org/2000/svg"><path d="m22.4 22.1-.6-.9c-.4-.6-1-1-1.7-1.1-1-.2-1.9.7-1.7 1.7l.7 3.4c.3 1.4 1.4 2.6 2.8 3l1 .3zm18.6 6.3 1-.3c1.4-.4 2.5-1.6 2.8-3l.7-3.4c.2-1-.7-1.9-1.7-1.7-.7.1-1.3.5-1.7 1.1l-.6.9z" fill="#f0b496"/><path d="m61.9 55.7v8.3h-59.8v-8.3c0-.3 0-.7.1-1 .1-.6.1-1.1.3-1.7.1-.5.3-1 .5-1.4.2-.5.4-1 .7-1.5 1.2-2 3-3.6 5.2-4.5l12-5c1.7-.7 2.8-2.3 2.8-4.2v-6h16.9v6c0 1.8 1.1 3.5 2.8 4.2l12 5c2.2.9 4 2.5 5.2 4.5.3.5.5 1 .7 1.5s.3.9.5 1.4c.1.5.2 1.1.3 1.7-.2.3-.2.7-.2 1z" fill="#aa5a78"/><path d="m23.5 35.7c.3.4.5.8.9 1.1l2.2 2.2c1 1.1 2.8 1.7 4.2 1.7h2.2c1.5 0 3.2-.6 4.2-1.7l2.2-2.2c.3-.3.6-.7.9-1.1v-5.3h-16.8z" fill="#e6a082"/><g fill="#c87896"><path d="m61.8 54.7c-2.2.8-4.6 1-6.8.5-.6-.1-1.3-.3-1.9-.6h-.1c-2.6-1-5.3-1-7.8 0h-.1c-3 1.1-6.1 1.1-9 0h-.1c-1.3-.5-2.6-.8-3.9-.8s-2.6.3-3.9.8h-.1c-3 1.1-6.1 1.1-9 0h-.1c-2.6-1-5.3-1-7.8 0h-.1c-.8.2-1.5.4-2.1.6-2.3.5-4.6.3-6.8-.5.1-.6.1-1.1.3-1.7 2 .8 4 1 6 .5.6-.1 1.2-.3 1.9-.5h.1c3-1.1 6.1-1.1 9 0h.1c2.6 1 5.3 1 7.8 0h.1c1.5-.6 3-.9 4.5-.9s3 .3 4.5.9h.1c2.6 1 5.3 1 7.8 0h.1c2.9-1.1 6.1-1.1 9 0h.1c.6.2 1.2.4 1.8.5 2 .4 4 .2 6-.5h.1c.2.5.3 1.1.3 1.7z"/><path d="m61.1 51.6c-1.6.5-3.4.6-5 .4-1-.1-2-.4-3-.7h-.1c-2.6-1-5.3-1-7.8 0h-.1c-3 1.1-6.1 1.1-9 0h-.1c-1.3-.5-2.6-.7-3.9-.7s-2.6.2-3.9.7h-.1c-3 1.1-6.1 1.1-9 0h-.1c-2.6-1-5.3-1-7.8 0h-.1c-1 .4-2 .6-3 .8-1.7.2-3.4.1-5-.4.2-.5.4-1 .7-1.5 1.2.3 2.4.4 3.7.3 1-.1 2-.3 3-.7h.1c3-1.1 6.1-1.1 9 0h.1c2.6 1 5.3 1 7.8 0h.1c1.5-.6 3-.9 4.5-.9s3 .3 4.5.9h.1c2.6 1 5.3 1 7.8 0h.1c2.9-1.1 6.1-1.1 9 0h.1c1 .4 2 .6 3 .7 1.2.1 2.5 0 3.7-.3.2.4.5.9.7 1.4zm-42.7 4.7-5.5 5.5 2.2 2.2h2.3l-2.2-2.2 3.1-3.2 3.2 3.2-2.1 2.2h2.3l2.2-2.2zm13.6.1-5.5 5.5 2.2 2.2h2.3l-2.2-2.2 3.1-3.2 3.2 3.2-2.1 2.1h2.3l2.2-2.2zm13.6-.1-5.5 5.5 2.2 2.2h2.3l-2.2-2.2 3.1-3.2 3.2 3.2-2.1 2.2h2.3l2.2-2.2z"/><path d="m45.6 56.3-5.5 5.5 2.2 2.2h2.3l-2.2-2.2 3.1-3.2 3.2 3.2-2.1 2.2h2.3l2.2-2.2z"/></g><path d="m20.5 39.5c0 1 .6 2 1.6 2.3 7.6 2.9 12.6 2.7 19.7 0 1-.4 1.6-1.3 1.6-2.3v-4.5c0-1.4-1.1-2.5-2.5-2.5h-17.9c-1.4 0-2.5 1.1-2.5 2.5z" fill="#964664"/><path d="m33.1 38.2c1.5 0 3.2-.6 4.2-1.7l2.2-2.2c1.2-1.2 1.9-2.8 2.1-4.5l.7-6.3c.1-1.3.2-2.5.2-3.8v-6.4c0-5.4-4.3-9.7-9.7-9.7h-1.8c-5.4 0-9.7 4.3-9.7 9.7v6.4c0 1.3.1 2.5.2 3.8l.7 6.3c.2 1.7.9 3.2 2.1 4.5l2.2 2.2c1 1.1 2.8 1.7 4.2 1.7z" fill="#f0c8aa"/><path d="m42.8 5-.3-1.1c-.5-1.5-1.8-2.5-3.3-2.5-1 0-2 .4-2.7 1.1l-.3-.5c-1-1.2-2.4-2-4-2-3.5 0-6.9 1.6-9.2 4.3l-.9 1.1c-2 2.3-3 5.4-2.7 8.5l.5 6.2h.4c.5.1.9.3 1.3.7.4-1.4.9-3.7 1.1-6.5 2 0 4-.4 5.9-1l1.9-.7c2.1-.8 3.8-2.3 4.8-4.2l.1.6c.5 1.1 1.4 2.1 2.4 2.7l2.5 1.4c1.1.6 1.8 1.8 1.9 3.1l.3 4.6c.4-.4.8-.6 1.3-.7h.3c.7-5.1.2-10.3-1.3-15.1z" fill="#aa641e"/></svg>