<svg id="Layer_1" enable-background="new 0 0 512 512" height="512" viewBox="0 0 512 512" width="512" xmlns="http://www.w3.org/2000/svg"><g><g clip-rule="evenodd" fill-rule="evenodd"><path d="m256.014 511.997c132.236 0 240.066-107.83 240.066-240.066s-107.83-240.095-240.066-240.095-240.094 107.858-240.094 240.094 107.858 240.067 240.094 240.067z" fill="#9589e8"/><path d="m138.121 172.86h132.236 44.872 58.649v-99.553c0-28.46-23.272-51.761-51.761-51.761-10.318 0-19.984 3.09-28.091 8.362-15.874-18.284-39.26-29.906-65.253-29.906h-4.195c-47.565 0-86.457 38.892-86.457 86.428z" fill="#5a5b5e"/><path d="m143.564 151.714h224.872c15.591 0 28.346 12.756 28.346 28.346 0 15.591-12.756 28.346-28.346 28.346h-224.872c-15.591 0-28.346-12.756-28.346-28.346-.001-15.591 12.755-28.346 28.346-28.346z" fill="#e3a98e"/><path d="m256.014 305.266 139.238 74.778c21.628 11.622 34.498 32.428 35.235 56.778-43.767 46.29-105.732 75.175-174.472 75.175s-130.706-28.885-174.472-75.175c.737-24.35 13.578-45.156 35.235-56.778z" fill="#5a5b5e"/><path d="m256.014 305.266 45.241 24.293v178.157c-14.655 2.806-29.792 4.281-45.241 4.281-15.477 0-30.586-1.474-45.241-4.281v-178.157z" fill="#eee"/><path d="m210.773 259.288h90.482v122.06c-13.266 7.795-28.743 12.274-45.241 12.274-16.526 0-31.975-4.479-45.241-12.274 0-40.734 0-81.298 0-122.06z" fill="#f9b895"/><path d="m301.255 311.842c-13.975 5.726-29.253 8.901-45.241 8.901s-31.266-3.175-45.241-8.901v-52.554h90.482z" fill="#e3a98e"/><path d="m352.505 130.765v69.988c0 53.065-43.427 96.52-96.491 96.52-53.093 0-96.52-43.455-96.52-96.52v-67.238c45.071-1.474 84.699-20.098 109.332-48.047 19.872 22.507 49.409 38.948 83.679 45.297z" fill="#f9b895"/></g><path d="m291.646 236.413c0 9.836-3.997 18.765-10.46 25.2-6.435 6.435-15.335 10.431-25.172 10.431-9.836 0-18.737-3.997-25.2-10.431-6.435-6.435-10.431-15.364-10.431-25.2 0-3.43 2.806-6.236 6.236-6.236h58.762c3.458-.001 6.265 2.806 6.265 6.236z" fill="#f7f7f6"/><path d="m191.753 154.746c-3.458 0-6.236-2.778-6.236-6.236 0-3.43 2.778-6.236 6.236-6.236h23.074c3.458 0 6.236 2.806 6.236 6.236 0 3.458-2.778 6.236-6.236 6.236zm105.42 0c-3.43 0-6.236-2.778-6.236-6.236 0-3.43 2.806-6.236 6.236-6.236h23.102c3.43 0 6.236 2.806 6.236 6.236 0 3.458-2.806 6.236-6.236 6.236z" fill="#5a5b5e"/><path d="m197.054 167.389c0-3.458 2.806-6.236 6.236-6.236 3.458 0 6.236 2.778 6.236 6.236v11.225c0 3.458-2.778 6.236-6.236 6.236-3.43 0-6.236-2.778-6.236-6.236zm105.42 0c0-3.458 2.806-6.236 6.236-6.236 3.458 0 6.264 2.778 6.264 6.236v11.225c0 3.458-2.806 6.236-6.264 6.236-3.43 0-6.236-2.778-6.236-6.236z" fill="#404041"/></g></svg>