<svg id="Layer_1" enable-background="new 0 0 512 512" viewBox="0 0 512 512" xmlns="http://www.w3.org/2000/svg"><g><path d="m416 452.545c52.054-44.927 85-111.389 85-185.545 0-135.31-109.69-245-245-245s-245 109.69-245 245c0 74.156 32.946 140.618 85 185.545 1.55 1.338 318.45 1.338 320 0z" fill="#00429c"/><circle cx="256" cy="267" fill="#0055ca" r="200"/><path d="m170 320h-4c-38.66 0-70 31.34-70 70v62.545c9.404 8.116 19.431 15.53 30 22.159.526.33 1.053-5.522 1.582-5.196 1.954 1.205 3.927 2.384 5.917 3.535v-83.043c0-28.645 17.206-53.272 41.847-64.108z" fill="#d9e7ec"/><path d="m416 390c0-38.66-31.34-70-70-70h-4l-5.128 4.021h-29.745l-100.468-1.404-10.85.383c-7.991 0-15.477-1.661-22.631.805-27.455 9.463-47.178 35.526-47.178 66.195v84.704c13.803 8.657 28.53 15.977 44 21.777 2.411.904 4.841-5.697 7.287-4.867 24.704 8.376 51.178 12.918 78.713 12.918 26.461 0 51.942-4.195 75.815-11.956 3.429-1.115 6.824 5.165 10.185 3.905 27.316-10.241 52.316-25.22 74-43.936z" fill="#fff5f5"/><path d="m186.277 321.468-6.042.596v175.064c.838.272 1.677.54 2.519.803.606.19 1.213 3.309 1.821 3.494 22.597 6.876 46.579 10.575 71.425 10.575 30.262 0 59.242-5.487 86-15.519v-176.481h-10.234l-6.766 2.319z" fill="#ff5757"/><path d="m184.574 322.149-4.34-2.149h-10.234v176.481c4.789 1.795 9.649 3.444 14.574 4.943z" fill="#ff4343"/><path d="m331.766 320h-151.532l39.267 46.961c1.999 2.39 5.673 2.39 7.672 0l28.827-34.476 28.827 34.476c1.999 2.39 5.673 2.39 7.672 0z" fill="#fff5f5"/><path d="m208.321 34.151h-37.236c-16.569 0-30 13.431-30 30v100c0 16.569 13.431 30 30 30h37.236c16.569 0 30-13.431 30-30v-100c0-16.568-13.432-30-30-30z" fill="#ca6d36"/><path d="m340.915 34.151h-90.273c-16.569 0-30 13.431-30 30v100c0 16.569 13.431 30 30 30h90.273c16.569 0 30-13.431 30-30v-100c0-16.568-13.432-30-30-30z" fill="#d97f4a"/><path d="m146 230c-13.807 0-25-11.193-25-25v-10c0-13.807 11.193-25 25-25 13.807 0 25 11.193 25 25v10c0 13.807-11.193 25-25 25z" fill="#ffbd86"/><path d="m145.998 230c-13.806-.001-24.998-11.194-24.998-25v-10c0-13.806 11.192-24.999 24.998-25-6.071 4.561-9.998 11.822-9.998 20v20c0 8.178 3.927 15.439 9.998 20z" fill="#f6a96c"/><path d="m366 170v-20c0-60.751-49.249-110-110-110-60.751 0-110 49.249-110 110v40c0 50.351 33.83 92.8 80 105.859v26.545c0 16.569 13.431 30 30 30s30-13.431 30-30v-26.545c33.586-9.499 60.641-34.551 72.895-66.883 2.252.666 4.637 1.024 7.105 1.024 13.807 0 25-11.193 25-25v-10c0-13.807-11.193-25-25-25z" fill="#f6a96c"/><path d="m271 41.015c-53.655 7.316-95 53.322-95 108.985v40c0 50.792 34.425 93.543 81.216 106.195 9.023 2.44 18.545 2.44 27.568 0 46.791-12.652 81.216-55.403 81.216-106.195v-40c0-55.663-41.345-101.669-95-108.985z" fill="#ffbd86"/><path d="m197.947 45c0-24.853 20.147-45 45-45h-30c-24.853 0-45 20.147-45 45 0 24.853 20.147 45 45 45h30c-24.853 0-45-20.147-45-45z" fill="#ca6d36"/><path d="m269.053 90h-30.553c-24.853 0-45-20.147-45-45 0-24.853 20.147-45 45-45h90.553c8.284 0 15 6.716 15 15 0 41.421-33.578 75-75 75z" fill="#d97f4a"/><path d="m350.25 120.5h-60c-15.163 0-27.5 12.336-27.5 27.5v1.032h-13.5v-1.032c0-15.164-12.337-27.5-27.5-27.5h-60c-15.163 0-27.5 12.336-27.5 27.5v18.958c0 15.164 12.337 27.5 27.5 27.5h60c15.163 0 27.5-12.336 27.5-27.5v-2.926h13.5v2.926c0 15.164 12.337 27.5 27.5 27.5h60c15.163 0 27.5-12.336 27.5-27.5v-18.958c0-15.164-12.337-27.5-27.5-27.5z" fill="#00a4fb"/><path d="m169.374 166.958v-18.958c0-6.893 5.607-12.5 12.5-12.5h-20.124c-6.893 0-12.5 5.607-12.5 12.5v18.958c0 6.893 5.607 12.5 12.5 12.5h20.124c-6.893 0-12.5-5.608-12.5-12.5z" fill="#ffbd86"/><path d="m234.25 166.958v-18.958c0-6.893-5.607-12.5-12.5-12.5h-40.75c-6.893 0-12.5 5.607-12.5 12.5v18.958c0 6.893 5.607 12.5 12.5 12.5h40.75c6.893 0 12.5-5.608 12.5-12.5z" fill="#fed2a4"/><path d="m362.75 166.958c0 6.893-5.607 12.5-12.5 12.5h-60c-6.893 0-12.5-5.607-12.5-12.5v-18.958c0-6.893 5.607-12.5 12.5-12.5h60c6.893 0 12.5 5.607 12.5 12.5z" fill="#fed2a4"/><path d="m256 260c-16.569 0-30-13.431-30-30 0-4.142 3.358-7.5 7.5-7.5h45c4.142 0 7.5 3.358 7.5 7.5 0 16.569-13.431 30-30 30z" fill="#fff5f5"/><path d="m263.5 259.055c-2.397.617-4.91.945-7.5.945-16.568 0-30-13.431-30-30 0-4.142 3.358-7.5 7.5-7.5h15c-4.142 0-7.5 3.358-7.5 7.5 0 13.979 9.561 25.724 22.5 29.055z" fill="#e5f2fd"/><path d="m241.5 196.731c-2.929-2.93-2.929-7.678 0-10.607 2.929-2.928 7.678-2.928 10.606 0 1.042 1.042 2.424 1.616 3.893 1.616s2.851-.574 3.893-1.616c2.929-2.928 7.678-2.928 10.606 0 2.929 2.93 2.929 7.678 0 10.607-3.875 3.875-9.024 6.009-14.5 6.009s-10.623-2.134-14.498-6.009z" fill="#f6a96c"/><circle cx="208.5" cy="157.5" fill="#6d3326" r="15"/><circle cx="303.5" cy="157.5" fill="#6d3326" r="15"/><circle cx="218.5" cy="150" fill="#fff5f5" r="7.5"/><circle cx="313.5" cy="150" fill="#fff5f5" r="7.5"/><path d="m300 430c-10.37 0-18.777-8.407-18.777-18.777v-19.01c0-2.761 2.239-5 5-5h27.554c2.761 0 5 2.239 5 5v19.01c0 10.37-8.407 18.777-18.777 18.777z" fill="#ffc143"/><path d="m300 418.606c-5.523 0-10-4.477-10-10v-10.348c0-1.471 1.192-2.663 2.663-2.663h14.674c1.471 0 2.663 1.192 2.663 2.663v10.348c0 5.523-4.477 10-10 10z" fill="#ffcd6b"/></g><g/><g/><g/><g/><g/><g/><g/><g/><g/><g/><g/><g/><g/><g/><g/></svg>