<svg viewBox="0 0 64 64" xmlns="http://www.w3.org/2000/svg"><path d="m47 28h5v-8a16 16 0 0 0 -16-16h-8a16 16 0 0 0 -16 16v8z" fill="#262a2d"/><path d="m47 20v16a12 12 0 0 1 -12 12h-6a12 12 0 0 1 -12-12v-16h19l1-4 2 4z" fill="#ffbe82"/><path d="m36 48v3.2l-4 4.8-4-4.8v-3.2z" fill="#ff965a"/><path d="m47 60h-15v-4l4 2 4-5-.4-.61a10.6628 10.6628 0 0 1 4.69 2.77 10.5031 10.5031 0 0 1 2.71 4.84z" fill="#e4f2f6"/><path d="m17 60h15v-4l-4 2-4-5 .4-.61a10.6628 10.6628 0 0 0 -4.69 2.77 10.5031 10.5031 0 0 0 -2.71 4.84z" fill="#e4f2f6"/><path d="m35.293 40.293a2.3986 2.3986 0 0 1 -1.707.707h-3.1719a2.3986 2.3986 0 0 1 -1.707-.707 1 1 0 0 0 -1.4141 1.414 4.3849 4.3849 0 0 0 3.1211 1.293h3.1719a4.3849 4.3849 0 0 0 3.1211-1.293 1 1 0 0 0 -1.4141-1.414z" fill="#e87a43"/><g fill="#262a2d"><path d="m27.373 24.7793a1 1 0 0 0 1.2539-1.5586 5.9776 5.9776 0 0 0 -7.2539 0 1 1 0 1 0 1.2539 1.5586 4.0149 4.0149 0 0 1 4.7461 0z"/><path d="m35.373 23.2207a1 1 0 1 0 1.2539 1.5586 4.0149 4.0149 0 0 1 4.7461 0 1 1 0 0 0 1.2539-1.5586 5.9776 5.9776 0 0 0 -7.2539 0z"/><path d="m29 33v-4a2 2 0 0 0 -4 0v4a2 2 0 0 0 4 0z"/><path d="m37 27a2.0026 2.0026 0 0 0 -2 2v4a2 2 0 0 0 4 0v-4a2.0026 2.0026 0 0 0 -2-2z"/></g><path d="m32.293 36.293a.4138.4138 0 0 1 -.5859 0 1 1 0 0 0 -1.4141 1.414 2.4142 2.4142 0 0 0 3.4141 0 1 1 0 0 0 -1.4141-1.414z" fill="#e87a43"/><path d="m32 56-4 2-4-5 3-3 1 1.2z" fill="#c6dbe0"/><path d="m40 53-4 5-4-2 4-4.8 1-1.2 2.6 2.39z" fill="#c6dbe0"/><path d="m31 56h2v4h-2z" fill="#c6dbe0"/><path d="m16 30h1a0 0 0 0 1 0 0v6a0 0 0 0 1 0 0h-1a3 3 0 0 1 -3-3 3 3 0 0 1 3-3z" fill="#ffbe82"/><path d="m47 30h1a3 3 0 0 1 3 3 3 3 0 0 1 -3 3h-1a0 0 0 0 1 0 0v-6a0 0 0 0 1 0 0z" fill="#ff965a"/><path d="m45 20v16a11.9967 11.9967 0 0 1 -12 12h2a11.9967 11.9967 0 0 0 12-12v-16z" fill="#ff965a"/><path d="m26 31.5a.5.5 0 0 1 -.5-.5v-2a.5.5 0 0 1 1 0v2a.5.5 0 0 1 -.5.5z" fill="#e8e8e8"/><path d="m36 31.5a.5.5 0 0 1 -.5-.5v-2a.5.5 0 0 1 1 0v2a.5.5 0 0 1 -.5.5z" fill="#e8e8e8"/></svg>