<?xml version="1.0" encoding="iso-8859-1"?>
<!-- Generator: Adobe Illustrator 19.0.0, SVG Export Plug-In . SVG Version: 6.00 Build 0)  -->
<svg version="1.1" id="Capa_1" xmlns="http://www.w3.org/2000/svg" xmlns:xlink="http://www.w3.org/1999/xlink" x="0px" y="0px"
	 viewBox="0 0 512 512" style="enable-background:new 0 0 512 512;" xml:space="preserve">
<path style="fill:#FCE0A2;" d="M296.932,314.08c-9.531-1.916-16.387-10.287-16.387-20.009v-46.004h-45.143l0,0h-45.143v46.004
	c0,9.721-6.857,18.093-16.387,20.009l-11,2.211v73.876h72.53l0,0h72.53v-73.876L296.932,314.08z"/>
<path style="fill:#F2CA91;" d="M236.594,248.068v63c0,9.721,6.857,18.093,16.387,20.009l11.782,2.877l43.168,12.454v-30.117
	l-11-2.211c-9.531-1.916-16.387-10.287-16.387-20.009v-46.004L236.594,248.068L236.594,248.068z"/>
<path style="fill:#4CBAD8;" d="M390.924,338.885l-91.681-28.586c-2.138-0.667-4.468-0.231-6.22,1.164l-57.622,45.859l-57.622-45.859
	c-1.753-1.395-4.082-1.831-6.22-1.164l-91.681,28.586c-40.145,11.82-67.708,48.669-67.708,90.518v60.322
	c0,4.802,3.893,8.695,8.695,8.695h429.072c4.802,0,8.695-3.893,8.695-8.695v-60.322
	C458.633,387.554,431.069,350.705,390.924,338.885z"/>
<path style="fill:#37A6C4;" d="M390.924,338.885l-91.681-28.586c-2.138-0.667-4.468-0.231-6.221,1.164l-28.259,22.491l82.825,23.895
	c39.162,11.108,66.725,47.957,66.725,89.806v50.765h35.624c4.802,0,8.695-3.893,8.695-8.695v-60.322
	C458.633,387.554,431.069,350.705,390.924,338.885z"/>
<path style="fill:#2195BD;" d="M70.084,412.721c-4.267,0-7.726,3.459-7.726,7.726v77.974H77.81v-77.974
	C77.81,416.18,74.352,412.721,70.084,412.721z"/>
<g>
	<path style="fill:#F2CA8F;" d="M350.258,200.069h-18.342v-53.192h18.342c9.452,0,17.114,7.662,17.114,17.114v18.965
		C367.371,192.407,359.709,200.069,350.258,200.069z"/>
	<path style="fill:#F2CA8F;" d="M120.546,200.069h18.342v-53.192h-18.342c-9.452,0-17.114,7.662-17.114,17.114v18.965
		C103.432,192.407,111.094,200.069,120.546,200.069z"/>
</g>
<path style="fill:#FCE0A2;" d="M235.402,284.124L235.402,284.124c-59.144,0-107.089-47.945-107.089-107.089v-30.096
	c0-59.144,47.945-107.089,107.089-107.089l0,0c59.144,0,107.089,47.945,107.089,107.089v30.096
	C342.491,236.178,294.546,284.124,235.402,284.124z"/>
<path style="fill:#F2CA91;" d="M235.402,39.85L235.402,39.85c-7.575,0-14.964,0.791-22.094,2.287
	c48.543,10.182,84.996,53.233,84.996,104.802v30.096c0,51.569-36.453,94.62-84.996,104.802c7.13,1.496,14.519,2.287,22.093,2.287
	l0,0c59.144,0,107.089-47.945,107.089-107.089v-30.096C342.491,87.796,294.546,39.85,235.402,39.85z"/>
<path style="fill:#F9A058;" d="M253.624,0h-36.445c-61.611,0-111.556,49.945-111.556,111.556v44.07
	c2.932-5.218,8.511-8.749,14.922-8.749h7.767c0.008-13.028,2.344-25.511,6.611-37.057c47.353-13.416,95.48,23.199,147.819,23.199
	c26.141,0,43.985-5.85,56.053-13.004l0.279-0.003c2.224,8.585,3.41,17.587,3.415,26.866h7.768c6.411,0,11.991,3.531,14.922,8.749
	v-44.07C365.18,49.945,315.234,0,253.624,0z"/>
<path style="fill:#EF8D43;" d="M253.624,0h-36.445c-1.296,0-2.585,0.03-3.871,0.074c59.817,2.041,107.685,51.167,107.685,111.482
	v16.232c6.999-2.174,12.89-4.861,17.803-7.774l0.279-0.003c2.223,8.585,3.41,17.587,3.415,26.866h7.767
	c6.411,0,11.991,3.531,14.922,8.749v-44.07C365.18,49.945,315.234,0,253.624,0z"/>
<circle style="fill:#E9F6FF;" cx="408.28" cy="420.45" r="91.55"/>
<path style="fill:#CCDFED;" d="M408.276,328.893c-7.667,0-15.112,0.948-22.23,2.723c39.82,9.933,69.323,45.934,69.323,88.83
	s-29.503,78.896-69.323,88.83c7.117,1.775,14.562,2.724,22.23,2.724c50.564,0,91.553-40.99,91.553-91.553
	S458.839,328.893,408.276,328.893z"/>
<path style="fill:#FC6060;" d="M455.346,414.354h-39.344V375.01c0-4.267-3.458-7.726-7.726-7.726c-4.267,0-7.726,3.459-7.726,7.726
	v39.344h-39.344c-4.267,0-7.726,3.459-7.726,7.726s3.458,7.726,7.726,7.726h39.344v39.344c0,4.267,3.458,7.726,7.726,7.726
	c4.267,0,7.726-3.459,7.726-7.726v-39.344h39.344c4.267,0,7.726-3.459,7.726-7.726S459.613,414.354,455.346,414.354z"/>
<g>
	<path style="fill:#2195BD;" d="M235.402,357.323l-23.358,20.429c-3.868,3.383-9.696,3.189-13.331-0.443l-57.572-57.525
		l30.419-9.485c2.138-0.667,4.468-0.231,6.22,1.164L235.402,357.323z"/>
	<path style="fill:#2195BD;" d="M235.402,357.323l23.358,20.429c3.868,3.383,9.696,3.189,13.331-0.443l57.572-57.525l-30.419-9.485
		c-2.138-0.667-4.468-0.231-6.22,1.164L235.402,357.323z"/>
</g>
<g>
</g>
<g>
</g>
<g>
</g>
<g>
</g>
<g>
</g>
<g>
</g>
<g>
</g>
<g>
</g>
<g>
</g>
<g>
</g>
<g>
</g>
<g>
</g>
<g>
</g>
<g>
</g>
<g>
</g>
</svg>
