<svg id="Capa_1" enable-background="new 0 0 512 512" height="512" viewBox="0 0 512 512" width="512" xmlns="http://www.w3.org/2000/svg"><g><path d="m181.595 16.516c-31.925 0-57.806 25.881-57.806 57.806v107.355h115.695v-165.161z" fill="#736572"/><path d="m305.211 8.061h-28.276l-12.677-8.061h-49.631c-18.243 0-33.032 14.789-33.032 33.032l.082 148.645h198.534v-98.616c0-41.421-33.579-75-75-75z" fill="#615260"/><path d="m305.466 0h-41.208c0 9.122 7.395 16.516 16.516 16.516h24.694c36.486 0 66.065 29.578 66.065 66.065v99.097h16.515v-99.097c-.001-45.608-36.974-82.581-82.582-82.581z" fill="#4e3d4d"/><path d="m406.108 375.453-91.565-28.614h-124.608l-91.565 28.614c-24.133 7.541-40.564 29.891-40.564 55.175v56.598c0 13.682 11.092 24.774 24.774 24.774h148.645l24.775-16.074 24.774 16.074h148.645c2.895 0 5.675-.495 8.258-1.408l8.995-18.249v-61.715c0-25.284-16.431-47.634-40.564-55.175z" fill="#dbd8db"/><path d="m408.702 391.214c17.331 5.419 28.976 21.258 28.976 39.415v79.963c9.6-3.413 16.516-12.595 16.516-23.366v-56.598c0-25.284-16.431-47.634-40.564-55.175l-91.565-28.614-4.927 15.766z" fill="#c9c5c9"/><path d="m264.229 404.954h-24.745l-8.258 107.046h32.96z" fill="#736572"/><path d="m198.194 307.71h109.909v63.903h-109.909z" fill="#f4aa73"/><path d="m198.194 272.516v35.194c17.264 9.132 36.916 14.354 57.806 14.354 7.317 0 14.47-.667 21.423-1.917 10.305-1.852 19.867 5.697 19.867 16.167v35.298h16.516v-99.097h-115.612z" fill="#e29a6c"/><path d="m272.622 406.319c1.286-1.181 2.45-2.493 3.469-3.915l-15.305-30.604h-9.671l-15.393 30.616c3.518 4.928 8.816 8.536 15.016 9.868 3.466.744 6.035 3.666 6.308 7.2l7.14 92.516h16.589z" fill="#615260"/><path d="m231.144 388.129c0 5.332 1.713 10.245 4.579 14.287l9.446-8.094c6.185-5.301 15.312-5.3 21.497.002l9.425 8.081c2.867-4.043 4.602-8.942 4.602-14.276v-24.779h-49.548v24.779z" fill="#4e3d4d"/><path d="m196.674 330.442c-8.22-4.567-18.588-1.359-22.794 7.052l-4.849 9.698c-2.469 4.939-2.307 10.786.433 15.58l18.732 32.78c5.145 9.003 17.216 11.094 25.089 4.346l42.633-36.542z" fill="#eceaec"/><path d="m313.806 331.194-57.888 32.161 42.633 36.542c7.873 6.748 19.944 4.657 25.089-4.346l14.989-26.23z" fill="#eceaec"/><path d="m336.589 127.987-14.525-25.124-127.695-23.227c-15.208-2.767-29.208 8.916-29.208 24.374v36.377c0 13.682-11.092 24.774-24.774 24.773h-2.947c-10.8 0-20.642 7.771-21.719 18.516-1.238 12.358 8.432 22.775 20.537 22.775h12.804c3.698 48.452 39.482 87.924 86.18 97.084 0 0 13.654-.152 20.757-.152 40.809 0 76.325-41.513 80.555-96.932z" fill="#fbbd80"/><path d="m375.742 165.161h-4.146c-13.663 0-24.747-11.062-24.774-24.725l-.025-12.449c-.024-11.954-8.58-22.186-20.34-24.325l-4.393-.799v95.33c0 52.262-37.361 95.755-86.822 105.342 6.715 1.317 13.654 2.013 20.757 2.013 56.502 0 102.702-43.678 106.932-99.097h11.629c10.8.001 20.642-7.771 21.719-18.517 1.238-12.357-8.433-22.773-20.537-22.773z" fill="#f4aa73"/><g fill="#eceaec"><path d="m371.532 173.419h-41.29c-4.565 0-8.258-3.698-8.258-8.258s3.693-8.258 8.258-8.258h41.29c4.565 0 8.258 3.698 8.258 8.258s-3.693 8.258-8.258 8.258z"/><path d="m272.435 181.677c-3.944 0-7.25-2.77-8.065-6.468-1.21-.734-4.145-1.79-8.452-1.79-4.306 0-7.242 1.056-8.452 1.79-.815 3.698-4.121 6.468-8.065 6.468-4.565 0-8.258-3.698-8.258-8.258 0-9.569 10.419-16.516 24.774-16.516s24.774 6.948 24.774 16.516c.003 4.561-3.691 8.258-8.256 8.258z"/><path d="m181.597 173.419h-41.29c-4.565 0-8.258-3.698-8.258-8.258s3.693-8.258 8.258-8.258h41.29c4.565 0 8.258 3.698 8.258 8.258s-3.694 8.258-8.258 8.258z"/></g><path d="m210.5 181.677c-4.565 0-8.258-3.698-8.258-8.258v-8.258c0-4.56 3.693-8.258 8.258-8.258s8.258 3.698 8.258 8.258v8.258c0 4.561-3.693 8.258-8.258 8.258z" fill="#845252"/><path d="m222.887 140.387h-24.774c-4.565 0-8.258-3.698-8.258-8.258s3.693-8.258 8.258-8.258h24.774c4.565 0 8.258 3.698 8.258 8.258 0 4.561-3.693 8.258-8.258 8.258z" fill="#615260"/><path d="m214.629 206.452h-8.258c-18.218 0-33.032-14.819-33.032-33.032v-8.258c0-9.109 7.411-16.516 16.516-16.516h41.29c9.105 0 16.516 7.407 16.516 16.516v8.258c0 18.213-14.814 33.032-33.032 33.032zm-24.774-41.291v8.258c0 9.109 7.411 16.516 16.516 16.516h8.258c9.105 0 16.516-7.407 16.516-16.516v-8.258z" fill="#fff"/><path d="m301.339 181.677c-4.565 0-8.258-3.698-8.258-8.258v-8.258c0-4.56 3.693-8.258 8.258-8.258s8.258 3.698 8.258 8.258v8.258c0 4.561-3.694 8.258-8.258 8.258z" fill="#845252"/><path d="m313.726 140.387h-24.774c-4.565 0-8.258-3.698-8.258-8.258s3.693-8.258 8.258-8.258h24.774c4.565 0 8.258 3.698 8.258 8.258 0 4.561-3.694 8.258-8.258 8.258z" fill="#615260"/><path d="m305.468 206.452h-8.258c-18.218 0-33.032-14.819-33.032-33.032v-8.258c0-9.109 7.411-16.516 16.516-16.516h41.29c9.105 0 16.516 7.407 16.516 16.516v8.258c0 18.213-14.815 33.032-33.032 33.032zm-24.774-41.291v8.258c0 9.109 7.411 16.516 16.516 16.516h8.258c9.105 0 16.516-7.407 16.516-16.516v-8.258z" fill="#fff"/><path d="m256 247.742c-10.339 0-20.331-2.609-28.895-7.548-3.952-2.274-5.315-7.327-3.032-11.278 2.266-3.948 7.315-5.315 11.274-3.028 12.129 6.984 29.177 6.984 41.306 0 3.952-2.286 9.008-.919 11.274 3.028 2.282 3.952.919 9.004-3.032 11.278-8.564 4.939-18.556 7.548-28.895 7.548z" fill="#e29a6c"/><path d="m342.804 347.193-4.848-9.698c-4.205-8.411-14.574-11.619-22.794-7.053l-1.355.753v3.652c0 15.627 10 29.431 24.794 34.465l.027.009 3.743-6.55c2.74-4.794 2.902-10.64.433-15.578z" fill="#dbd8db"/></g></svg>