<svg id="Capa_1" enable-background="new 0 0 453.54 453.54" height="512" viewBox="0 0 453.54 453.54" width="512" xmlns="http://www.w3.org/2000/svg"><g><g><path d="m424.051 453.542c1.824-49.296-29.223-68.256-29.223-68.256l-130.801-73.943h-74.519l-130.797 73.943s-31.046 18.96-29.222 68.256z" fill="#f9c5b8"/></g><g><path d="m180.206 320.907h93.128c-20.634-11.143-15.073-53.978-15.073-53.978h-62.981c-.001 0 5.56 42.835-15.074 53.978z" fill="#f9c5b8"/></g><g><path d="m193.989 299.133c22.25-2.541 44.028-9.999 63.601-21.024.076-6.576.671-11.179.671-11.179h-62.981c-.001-.001 2.183 16.879-1.291 32.203z" fill="#f5a997"/></g><g><path d="m330.18 97.519h-103.096-103.095c-8.077 64.419 11.144 143.366 73.502 164.892 8.898 3.07 20.38 7.048 29.593 4.801 9.214 2.247 20.696-1.73 29.595-4.801 62.358-21.526 81.577-100.473 73.501-164.892z" fill="#542d6d"/></g><g><g><path d="m335.397 171.5c-1.96 15.151-10.534 26.402-19.149 25.128-8.616-1.274-14.01-14.589-12.051-29.741 1.961-15.151 10.534-26.402 19.149-25.129 8.618 1.275 14.011 14.59 12.051 29.742z" fill="#f5a997"/></g><g><g><path d="m316.126 185.379c-1.168 0-2.231-.793-2.523-1.979-2.147-8.694-3.123-18.998 5.92-29.488.94-1.089 2.58-1.208 3.668-.272 1.088.938 1.21 2.581.272 3.668-7.852 9.107-6.601 17.6-4.812 24.846.345 1.395-.506 2.804-1.901 3.147-.208.053-.418.078-.624.078z" fill="#e9837b"/></g><g><path d="m324.868 170.28c-.161 0-.324-.015-.488-.046-4.175-.79-8.475-.005-8.519 0-1.416.257-2.77-.666-3.036-2.075-.265-1.41.659-2.768 2.069-3.036.213-.041 5.286-.983 10.456 0 1.412.268 2.338 1.629 2.07 3.04-.236 1.247-1.327 2.117-2.552 2.117z" fill="#e9837b"/></g></g></g><g><g><path d="m118.142 171.5c1.961 15.151 10.534 26.402 19.149 25.128 8.616-1.274 14.01-14.589 12.051-29.741-1.961-15.151-10.534-26.402-19.149-25.129-8.615 1.275-14.01 14.59-12.051 29.742z" fill="#f5a997"/></g><g><g><path d="m137.413 185.379c-.207 0-.416-.024-.625-.077-1.396-.344-2.247-1.753-1.902-3.147 1.789-7.246 3.041-15.738-4.812-24.846-.938-1.088-.816-2.73.272-3.668 1.085-.937 2.729-.818 3.668.272 9.044 10.491 8.067 20.794 5.92 29.488-.29 1.185-1.352 1.978-2.521 1.978z" fill="#e9837b"/></g><g><path d="m138.163 170.28c-.159 0-.321-.015-.484-.046-.075-.013-4.358-.789-8.519 0-1.407.269-2.772-.659-3.04-2.07-.269-1.411.658-2.772 2.07-3.04 5.168-.985 10.244-.041 10.456 0 1.411.268 2.338 1.629 2.07 3.04-.237 1.246-1.328 2.116-2.553 2.116z" fill="#e9837b"/></g></g></g><g><path d="m314.03 135.196c-1.544-43.225-28.073-96.623-82.469-96.33h-5.558-5.558c-54.397-.293-80.924 53.104-82.469 96.33-1.553 43.445 11.768 93.551 38.825 120.198 12.685 12.491 31.929 18.499 49.202 18.799 17.272-.3 36.517-6.308 49.202-18.799 27.059-26.647 40.378-76.753 38.825-120.198z" fill="#f9c5b8"/></g><g><path d="m140.772 181.685s3.349-1.4 3.319-49.592c7.709-19.39 24.739-11.015 42.442-14.718 16.521-3.456 22.771-18.52 30.549-31.545 10.521-17.619 36.241-5.945 49.471-18.878 0 21.799 8.618 37.199 26.249 51.244 20.133 16.037 16.028 39.271 17.193 63.351 8.918-6.314 1.841-36.509 14.173-37.355 0 0 28.646-73.44-34.57-112.919-8.077-36.241-60.594-43.468-80.356-8.477-59.498-27.491-75.823 40.758-75.823 40.758-21.497 16.767-15.804 65.041-2.788 79.082 7.53 8.121 5.145 20.233 10.141 39.049" fill="#542d6d"/></g><g><path d="m264.027 311.342 130.801 73.943s31.046 18.96 29.223 68.256h-394.561c-1.825-49.296 29.222-68.256 29.222-68.256l130.797-73.943c-.001 0 39.491 24.247 74.518 0z" fill="#4e5da7"/></g><g><g><g><path d="m225.342 234.92c-12.092 0-19.753-6.737-19.866-6.84-1.066-.963-1.149-2.608-.186-3.674.961-1.063 2.602-1.148 3.668-.19.597.529 14.382 12.422 34.437-.263 1.212-.767 2.819-.407 3.588.808.768 1.213.406 2.82-.808 3.588-7.778 4.922-14.848 6.571-20.833 6.571z" fill="#e9837b"/></g></g><g><g><ellipse cx="187.13" cy="184.616" fill="#f6afa8" rx="21.091" ry="9.581"/></g><g><ellipse cx="264.875" cy="184.616" fill="#f6afa8" rx="21.091" ry="9.581"/></g></g><g><g><path d="m203.089 135.631c-.256 2.473-2.209 4.13-4.364 3.923-7.91-.771-15.775.533-23.012 3.817-1.974.891-4.356-.046-5.398-2.306-1.039-2.253-.069-5.132 2.252-6.184 8.302-3.768 17.321-5.264 26.394-4.377 2.536.246 4.385 2.659 4.128 5.127z" fill="#542d6d"/></g><g><path d="m248.916 135.631c.257 2.473 2.21 4.13 4.365 3.923 7.91-.771 15.774.533 23.011 3.817 1.974.891 4.356-.046 5.398-2.306 1.039-2.253.068-5.132-2.252-6.184-8.302-3.768-17.321-5.264-26.394-4.377-2.535.246-4.384 2.659-4.128 5.127z" fill="#542d6d"/></g></g><g><path d="m225.135 215.05c-.33 0-.665-.063-.989-.196-5.594-2.301-8.639-4.887-9.583-8.136-1.245-4.287 1.486-8.151 4.377-12.242 1.81-2.561 3.682-5.209 4.591-7.98.448-1.365 1.917-2.103 3.284-1.66 1.364.449 2.107 1.918 1.659 3.283-1.154 3.512-3.349 6.618-5.287 9.359-2.147 3.039-4.175 5.909-3.629 7.789.313 1.075 1.705 2.777 6.567 4.777 1.329.547 1.962 2.066 1.416 3.395-.413 1.003-1.383 1.611-2.406 1.611z" fill="#e9837b"/></g><g><g><ellipse cx="191.38" cy="161.967" fill="#2a2d6b" rx="6.935" ry="13.064"/></g><g><ellipse cx="260.626" cy="161.967" fill="#2a2d6b" rx="6.935" ry="13.064"/></g></g></g></g></svg>