<svg id="Layer_1" enable-background="new 0 0 64 64" viewBox="0 0 64 64" xmlns="http://www.w3.org/2000/svg"><path d="m22 20.2-.6-.9c-.4-.6-1-1-1.7-1.2-1-.2-1.9.7-1.7 1.8l.7 3.5c.3 1.5 1.4 2.7 2.9 3.1l1 .3zm19.4 6.6 1-.3c1.5-.4 2.6-1.6 2.9-3.1l.7-3.5c.2-1-.7-1.9-1.7-1.8-.7.1-1.3.6-1.7 1.2l-.6.9zm21.8 37.2v-8.7c0-4.6-2.8-8.8-7-10.5l-12.5-5.2c-1.8-.7-2.9-2.4-2.9-4.3v-6.3h-17.6v6.2c0 1.9-1.1 3.6-2.9 4.3l-12.5 5.3c-4.3 1.8-7 5.9-7 10.5v8.7z" fill="#f0b496"/><path d="m56.2 44.8-12.5-5.2c-1.3-.5-2.2-1.6-2.6-2.9-.7 1.2-1.5 2.3-2.5 3.4-.3.4-.7.8-1.1 1.2l-.6.2c-1.7.6-3 2-3.5 3.7l-.3.8-1.1 3.6-1.4-4.4c-.5-1.7-1.8-3.1-3.5-3.7l-.6-.2-.2-.2c-.4-.5-.8-.9-1.2-1.4-.1-.1-.2-.3-.3-.4-.4-.5-.8-1.1-1.2-1.6-.2-.4-.5-.7-.7-1.1-.4 1.3-1.4 2.3-2.6 2.9l-12.5 5.3c-4.3 1.8-7 5.9-7 10.5v8.7h62.4v-8.7c0-4.6-2.8-8.7-7-10.5z" fill="#d9bedc"/><path d="m41.2 36.5c-.9 1.7-2.2 3.2-3.7 4.8l-.6.2c-1.7.6-3 2-3.5 3.7l-1.4 4.4 2.6-4c.6-1 1.7-1.5 2.9-1.5l4.7 6.6c1-2.3 1.6-4.9 1.7-8.7v-2.4c-1.1-.7-2.1-1.8-2.7-3.1zm-14.1 5.1-.6-.2c-1.2-1.2-2.1-2.4-2.9-3.6h-1.6c-.5.7-1.2 1.4-1.9 1.9v2.3c.1 3.9.6 6.5 1.7 8.7l4.7-6.6c1.2-.1 2.5.5 3.1 1.5l2.4 3.9-1.4-4.4c-.5-1.6-1.8-2.9-3.5-3.5z" fill="#be96be"/><path d="m42.2 48c1-2.3 1.6-4.9 1.7-8.8l-2.6-2.9c-.9 1.7-2.2 3.3-3.8 5zm-20.4 0 4.7-6.6c-1.6-1.7-2.9-3.3-3.8-5l-2.6 2.9c.1 3.8.6 6.4 1.7 8.7z" fill="#fae6ff"/><path d="m23.2 34.5.9 1.2 2.3 2.3c1.1 1.1 2.9 1.7 4.4 1.7h2.3c1.5 0 3.4-.6 4.4-1.7l2.3-2.3.9-1.2v-5.5h-17.5z" fill="#e6a082"/><path d="m33.2 37c1.5 0 3.4-.6 4.4-1.7l2.3-2.3c1.2-1.3 2-2.9 2.2-4.7l.7-6.6c.1-1.3.2-2.6.2-4v-6.7c0-5.6-4.5-10.1-10.1-10.1h-1.9c-5.5 0-10 4.5-10 10.1v6.7c0 1.3.1 2.6.2 4l.7 6.6c.2 1.8 1 3.4 2.2 4.7l2.3 2.3c1.1 1.1 2.9 1.7 4.4 1.7z" fill="#f0c8aa"/><path d="m21.8 10.8c.1-1.4 1.1-2.8 2.4-3.3 2.7-1 3.9.7 7.7.7 3.9 0 5-1.7 7.7-.7 1.3.5 2.3 1.9 2.4 3.2v.1h1c-.1-3.1-1.5-5.9-3.8-7.7-2-1.1-4.5-1.8-7.3-1.8-2.5 0-4.8.5-6.7 1.5-2.5 1.8-4.2 4.7-4.2 8z" fill="#e6a082"/><path d="m42.5 4.7c-2-2.9-6-4.7-10.6-4.7s-8.6 1.8-10.6 4.7-2.8 6.4-1.9 13.4h.3c.5.1 1 .4 1.4.7 1.4-5.5.4-4.6.8-9.4.1-1.3 1.1-2.7 2.4-3.2 2.7-1 3.9.7 7.7.7 3.9 0 5-1.7 7.7-.7 1.3.5 2.2 1.9 2.3 3.2.4 4.9-.7 3.9.8 9.6.4-.4.9-.8 1.5-.9h.2c.8-6.8 0-10.6-2-13.4z" fill="#dcdcdc"/><path d="m38.6 30.6-.1-.2c-.2-.8-.5-1.5-1-2.1-.3-.5-.9-.8-1.5-.8h-8.1c-.6 0-1.2.3-1.5.8-.4.7-.8 1.4-1 2.1l-.1.2z" fill="#f0f0f0"/><path d="m43.5 16.1c-1.1-.1-4.9-.3-6.7-.3-2.1 0-3.6 1-4.4 1h-.7c-.8 0-2.3-1-4.4-1-1.8 0-5.6.2-6.7.3-.2 0-.3.2-.3.3v.7c0 .2.1.4.3.5s.5.3.7.9c.3 1 .7 4.3 3.2 4.8s4.5-.1 5.4-1.4.9-3.4 1.9-3.4h.7c1 0 1.1 2.1 1.9 3.4s2.8 1.9 5.4 1.4c2.5-.5 2.9-3.8 3.2-4.8.2-.6.5-.8.7-.9s.3-.3.3-.5v-.7c-.2-.1-.3-.3-.5-.3zm-14.4 5.5c-.3.5-1.5 1.4-3.1 1.4-.5 0-1-.1-1.5-.2-.7-.2-1.3-.8-1.7-1.6-.7-1.4-.7-3.2-.6-3.6.2-.7 1.3-1 3.1-1 2.2 0 4.4.6 4.7 1.3.3.8-.4 3-.9 3.7zm12.1-.4c-.4.8-1 1.3-1.7 1.6-.5.2-1 .2-1.5.2-1.7 0-2.8-.9-3.1-1.4-.5-.8-1.2-3-.9-3.7s2.5-1.3 4.7-1.3c1.9 0 2.9.3 3.1 1 .1.4.2 2.2-.6 3.6z" fill="#5d5d5d"/><path d="m30 19c.1-.5.1-.8 0-1.1-.3-.7-2.5-1.3-4.7-1.3-1.9 0-2.9.3-3.1 1 0 .1-.1.5-.1 1 1.6-.1 3.8-.2 5.1-.2 1.1.1 2.1.4 2.8.6zm11.9-.3c0-.5 0-.9-.1-1-.2-.7-1.3-1-3.1-1-2.2 0-4.4.6-4.7 1.3-.1.2-.1.6 0 1.1.8-.3 1.7-.6 2.8-.6 1.2 0 3.4.1 5.1.2z" fill="#e6a082"/></svg>