<svg id="Capa_3" enable-background="new 0 0 453.543 453.543" viewBox="0 0 453.543 453.543" xmlns="http://www.w3.org/2000/svg"><g><path d="m277.13 432.249h176.413s-.791-106.612-95.722-133.114-111.148-31.248-111.148-31.248z" fill="#ffe2c0"/><path d="m283.854 240.199s79.999 19.085 97.7 105.215l-100.864-20.569z" fill="#39408e"/><path d="m176.413 432.249h-176.413s.791-106.612 95.722-133.114 111.148-31.248 111.148-31.248z" fill="#ffe2c0"/><path d="m169.689 240.199s-79.999 19.085-97.7 105.215l100.864-20.568z" fill="#39408e"/><path d="m226.771 287.183v-.706l-3.031.368-3.299-.368v.768l-65.461 7.934 25.214 137.07h40.247 6.33 46.578l25.214-137.07z" fill="#b8d9c6"/><path d="m328.476 92.748c-8.374-2.767-17.773 1.36-24.499 9.688-7.896-43.764-39.453-76.486-77.206-76.486-37.754 0-69.31 32.722-77.206 76.486-6.725-8.329-16.125-12.455-24.499-9.689-11.927 3.94-17.235 20.335-11.856 36.618s19.409 26.289 31.336 22.349c2.379-.786 4.48-2.085 6.301-3.762 11.743 46.215 29.544 89.354 75.924 89.354 47.958 0 64.913-43.048 76.071-89.208 1.785 1.609 3.841 2.851 6.153 3.615 11.927 3.94 25.956-6.066 31.336-22.349 5.38-16.281.072-32.676-11.855-36.616z" fill="#ff7a00"/><g fill="#491a00"><path d="m224.016 108.125v43.404 6.138c0 3.546 5.511 3.552 5.511 0 0-14.468 0-28.936 0-43.403 0-2.046 0-4.092 0-6.139 0-3.546-5.511-3.552-5.511 0z"/><path d="m199.494 108.125c0 4.369-2.081 7.911-4.647 7.911-2.567 0-4.648-3.542-4.648-7.911s2.081-7.911 4.648-7.911 4.647 3.542 4.647 7.911z"/><path d="m263.344 108.125c0 4.369-2.081 7.911-4.648 7.911s-4.648-3.542-4.648-7.911 2.081-7.911 4.648-7.911 4.648 3.542 4.648 7.911z"/><path d="m241.519 164.786c-.004.568-.027 1.134-.081 1.7l-.053.477c.046-.337.044-.345-.004-.024-.043.233-.083.467-.131.699-.111.537-.249 1.068-.411 1.592-.091.297-.191.591-.299.882-.047.127-.309.773-.066.202-.42.985-.94 1.93-1.536 2.82-.148.22-.322.428-.461.653-.118.158-.09.123.085-.104l-.287.354c-.34.408-.699.801-1.075 1.177s-.769.735-1.177 1.075c-.16.134-.542.418-.158.135-.245.181-.492.359-.745.528-.889.596-1.834 1.118-2.819 1.536.59-.251-.13.04-.202.066-.291.107-.585.207-.882.299-.524.162-1.055.299-1.592.411-.232.048-.467.085-.699.131-.545.107.391-.03-.334.045-.605.062-1.211.09-1.819.094-1.441.01-2.823 1.26-2.756 2.756.066 1.484 1.211 2.766 2.756 2.756 5.344-.037 10.537-2.146 14.325-5.934s5.897-8.981 5.934-14.325c.01-1.442-1.275-2.822-2.756-2.756-1.503.067-2.747 1.21-2.757 2.755z"/></g><path d="m298.454 294.278-13.14-108.862h-58.543-58.543l-13.14 108.862c-.069.299-.109.599-.109.902 0 9.175 32.142 16.613 71.791 16.613s71.792-7.438 71.792-16.613c.001-.303-.038-.603-.108-.902z" fill="#ff7a00"/><path d="m135.623 130.929c-5.72-5.839-5.719-15.018 0-20.856 2.484-2.535-1.41-6.436-3.897-3.897-7.776 7.937-7.775 20.713 0 28.65 2.486 2.538 6.382-1.36 3.897-3.897z" fill="#491a00"/><path d="m321.817 134.826c7.775-7.937 7.776-20.713 0-28.65-2.486-2.538-6.382 1.36-3.897 3.897 5.721 5.839 5.719 15.018 0 20.856-2.484 2.535 1.41 6.436 3.897 3.897z" fill="#491a00"/><path d="m164.682 196.444c9.168 18.471 23.06 35.16 43.53 41.103 20.497 5.951 43.89 1.737 60.235-12.13 8.844-7.503 15.421-17.359 20.57-27.662 1.581-3.164-3.172-5.958-4.759-2.782-8.495 17.001-21.199 32.098-40.144 37.342-19.186 5.311-40.631 1.526-55.545-11.973-8.209-7.43-14.236-16.825-19.128-26.68-1.577-3.176-6.333-.388-4.759 2.782z" fill="#491a00"/><path d="m149.566 102.437s25.189 2.516 27.563-39.61c0 0 49.246 25.809 98.491 0 0 0-4.396 38.577 28.358 39.61 0 0 27.711-81.142-75.23-81.142-102.941-.001-79.182 81.142-79.182 81.142z" fill="#d49cc4"/></g></svg>