<svg id="Capa_1" enable-background="new 0 0 512 512" height="512" viewBox="0 0 512 512" width="512" xmlns="http://www.w3.org/2000/svg"><g><g><circle cx="256" cy="256" fill="#ecf4ff" r="256"/></g><g><path d="m409.033 50.759c31.881 42.688 50.759 95.656 50.759 153.033 0 141.385-114.615 256-256 256-57.377 0-110.345-18.878-153.033-50.759 46.678 62.501 121.233 102.967 205.241 102.967 141.385 0 256-114.615 256-256 0-84.008-40.466-158.563-102.967-205.241z" fill="#ddeafb"/></g><g><path d="m401.667 420.399c3.098 0 5.514-2.685 5.188-5.766l-29.531-279.129c-5.132-48.506-46.044-85.318-94.821-85.318h-47.243c-48.777 0-89.689 36.812-94.821 85.318l-29.531 279.129c-.326 3.081 2.09 5.766 5.188 5.766z" fill="#784033"/></g><g><g><path d="m406.854 414.634-29.531-279.129c-5.132-48.506-46.044-85.318-94.821-85.318h-33.869c48.777 0 89.689 36.812 94.821 85.318l29.531 279.129c.326 3.081-2.09 5.766-5.188 5.766h33.869c3.099-.001 5.514-2.685 5.188-5.766z" fill="#61362b"/></g></g><g><path d="m451.192 421.619c-20.667-48.06-68.434-81.716-124.068-81.716h-142.248c-55.634 0-103.401 33.656-124.068 81.716 46.958 55.288 116.971 90.381 195.192 90.381s148.234-35.093 195.192-90.381z" fill="#eaaadd"/></g><g><path d="m451.192 421.619c-10.105-23.498-26.7-43.537-47.513-57.898-46.915 58.56-119.015 96.071-199.887 96.071-52.141 0-100.638-15.592-141.091-42.363-.652 1.385-1.287 2.78-1.893 4.19 46.958 55.288 116.971 90.381 195.192 90.381s148.234-35.093 195.192-90.381z" fill="#e490d0"/></g><g><path d="m273.042 396.659h-28.322c-29.271 0-53-23.729-53-53v-58.28h134.322v58.28c0 29.271-23.729 53-53 53z" fill="#eaac9d"/></g><path d="m285.167 285.379v58.28c0 27.146-20.413 49.511-46.724 52.617 2.06.243 4.151.383 6.276.383h28.322c29.271 0 53-23.729 53-53v-58.28z" fill="#df9380"/><g><path d="m337.226 149.396h-156.691c-9.603 0-17.388 7.785-17.388 17.388v61.9c0 33.69 16.771 65.17 44.732 83.964l27.821 18.7c2.829 1.901 5.834 3.419 8.943 4.553l19.989-2.971 20.534-3.67 24.715-16.612c27.961-18.794 44.732-50.274 44.732-83.964v-61.9c.001-9.603-7.784-17.388-17.387-17.388z" fill="#ffcbbe"/></g><g><path d="m326.154 149.397v79.287c0 33.69-16.771 65.17-44.732 83.964l-27.821 18.7c-2.829 1.902-5.847 3.419-8.956 4.553 12.295 4.484 26.229 2.966 37.416-4.553l27.821-18.7c27.961-18.794 44.732-50.274 44.732-83.964v-61.9c0-9.603-7.785-17.388-17.388-17.388h-11.072z" fill="#eaac9d"/></g><g><circle cx="213.737" cy="209.334" fill="#784033" r="11.574"/></g><g><circle cx="304.024" cy="209.334" fill="#784033" r="11.574"/></g><g><path d="m258.88 285.379c-13.232 0-25.624-6.514-33.149-17.425-2.37-3.437-1.506-8.145 1.932-10.515 3.437-2.37 8.146-1.505 10.515 1.932 4.702 6.818 12.441 10.889 20.701 10.889 8.262 0 16.001-4.071 20.703-10.889 2.368-3.437 7.078-4.302 10.515-1.932s4.302 7.078 1.931 10.515c-7.523 10.911-19.915 17.425-33.148 17.425z" fill="#d82e3d"/></g></g></svg>