<svg id="Layer_1" enable-background="new 0 0 512 512" viewBox="0 0 512 512" xmlns="http://www.w3.org/2000/svg"><g><path d="m416 452.545c52.054-44.927 85-111.389 85-185.545 0-135.31-109.69-245-245-245s-245 109.69-245 245c0 74.156 32.946 140.618 85 185.545 2.813 2.428 317.187 2.428 320 0z" fill="#49b6fc"/><circle cx="256" cy="267" fill="#65befc" r="200"/><path d="m266.052 301.252c-5.361-8.38-12.87-15.221-21.7-19.802-17.975-9.324-29.615-27.527-30.536-47.757-.453-9.943-3.515-19.593-8.879-27.978-10.922-17.074-11.906-38.652-2.58-56.647 4.58-8.838 6.753-18.726 6.3-28.67-.921-20.238 9.024-39.43 26.09-50.348 8.385-5.364 15.21-12.84 19.79-21.678 9.321-17.988 27.53-29.636 47.768-30.557 1.418-.065 2.831-.182 4.235-.352 3.039-.368 2.696-4.938-.363-4.83-.049.002-.098.004-.147.005-.143.005-.287.011-.43.018-10.529 0-20.838-2.597-30.34-7.131-9.622-4.592-20.181-6.307-30.477-5.202-.003 0-.006 0-.009 0-8.578.922-16.973 3.804-24.49 8.612-8.385 5.364-18.034 8.426-27.978 8.879-20.238.922-38.447 12.57-47.768 30.557-4.58 8.838-11.405 16.314-19.79 21.678-17.066 10.917-27.011 30.109-26.09 50.348.453 9.944-1.72 19.832-6.3 28.67-9.326 17.995-8.342 39.573 2.58 56.647 5.364 8.385 8.426 18.034 8.879 27.978.921 20.238 12.57 38.447 30.557 47.768 8.826 4.574 16.322 11.417 21.679 19.791 10.917 17.066 30.11 27.011 50.347 26.089 10.234 0 20.389 2.2 29.556 6.75 17.807 8.836 38.974 7.709 55.76-3.029 3.114-1.992 6.403-3.667 9.816-5.008-14.448-3.207-27.291-12.001-35.48-24.801z" fill="#6d3326"/><path d="m413.342 219.6c-.453-9.944 1.72-19.831 6.3-28.669 9.321-17.987 8.338-39.581-2.579-56.647-5.364-8.385-8.426-18.034-8.879-27.978-.921-20.238-12.57-38.447-30.557-47.768-8.838-4.58-16.314-11.405-21.678-19.79-10.84-16.945-29.838-26.87-49.917-26.107-6.648 3.073-13.852 4.841-21.217 5.176-20.238.922-38.447 12.57-47.768 30.557-4.58 8.838-11.405 16.314-19.79 21.678-17.066 10.917-27.011 30.109-26.09 50.348.453 9.944-1.72 19.831-6.3 28.669-9.321 17.988-8.338 39.581 2.579 56.647 5.364 8.385 8.426 18.034 8.879 27.978.921 20.238 12.57 38.447 30.557 47.768 8.838 4.58 16.314 11.405 21.678 19.79 10.84 16.945 29.837 26.87 49.916 26.108 1.239-.573 2.498-1.101 3.773-1.582 5.566-2.101 11.452-3.322 17.444-3.595 20.238-.922 38.447-12.57 47.768-30.557 4.58-8.838 11.405-16.314 19.79-21.678 17.067-10.918 27.013-30.11 26.091-50.348z" fill="#883f2e"/><path d="m96 390v62.545c9.404 8.116 19.431 15.53 30 22.159.008.005.017.01.025.016 1.076.675 2.475-.109 2.475-1.379v-83.341c0-38.66 31.34-70 70-70h-32.5c-38.66 0-70 31.34-70 70z" fill="#00429c"/><path d="m416 390c0-38.66-31.34-70-70-70h-150c-38.66 0-70 31.34-70 70v84.704c23.332 14.634 49.306 25.446 77.042 31.558 2.151.474 3.354-7.57 5.526-7.153 15.047 2.889 30.584 4.402 46.474 4.402 15.271 0 30.215-1.397 44.712-4.07 2.765-.51 6.471 7.423 9.203 6.821 40.301-8.88 76.88-27.683 107.042-53.717v-62.545z" fill="#0055ca"/><path d="m294.66 320h-10.894v181.723c6.919-.781 13.752-1.849 20.484-3.194 1.575-.314 3.144 8.076 4.707 7.732 8.752-1.928 17.329-4.325 25.702-7.162v-139.099c.001-22.091-17.908-40-39.999-40z" fill="#00429c"/><path d="m177.34 360v139.1c8.373 2.837 16.95 5.233 25.702 7.162 1.669.368 3.345-10.3 5.027-9.966 6.629 1.315 13.355 2.362 20.165 3.13v-179.426h-10.894c-22.091 0-40 17.909-40 40z" fill="#00429c"/><path d="m146 230c-13.807 0-25-11.193-25-25v-10c0-13.807 11.193-25 25-25 13.807 0 25 11.193 25 25v10c0 13.807-11.193 25-25 25z" fill="#c96e59"/><path d="m145.998 230c-13.806-.001-24.998-11.194-24.998-25v-10c0-13.806 11.192-24.999 24.998-25-6.071 4.561-9.998 11.822-9.998 20v20c0 8.178 3.927 15.439 9.998 20z" fill="#bb5d4c"/><path d="m366 170v-20c0-60.751-49.249-110-110-110s-110 49.248-110 110v40c0 50.351 33.83 92.801 80 105.859v24.141h-2.958c-11.046 0-20 8.954-20 20v30.319l9.106 15.745h87.83l8.979-15.745v-30.319c0-11.046-8.954-20-20-20h-2.957v-24.141c33.586-9.499 60.641-34.551 72.895-66.883 2.252.666 4.637 1.024 7.105 1.024 13.807 0 25-11.193 25-25v-10c0-13.807-11.193-25-25-25z" fill="#bb5d4c"/><path d="m271 41.015c-53.655 7.316-95 53.322-95 108.985v40c0 50.792 34.425 93.543 81.216 106.195 9.023 2.44 18.545 2.44 27.568 0 46.791-12.652 81.216-55.403 81.216-106.195v-40c0-55.663-41.345-101.669-95-108.985z" fill="#c96e59"/><path d="m256 260c-16.569 0-30-13.431-30-30 0-4.142 3.358-7.5 7.5-7.5h45c4.142 0 7.5 3.358 7.5 7.5 0 16.569-13.431 30-30 30z" fill="#fff5f5"/><path d="m263.5 259.055c-2.397.617-4.91.945-7.5.945-16.568 0-30-13.431-30-30 0-4.142 3.358-7.5 7.5-7.5h15c-4.142 0-7.5 3.358-7.5 7.5 0 13.979 9.561 25.724 22.5 29.055z" fill="#e5f2fd"/><path d="m241.5 196.731c-2.929-2.93-2.929-7.678 0-10.607 2.929-2.928 7.678-2.928 10.606 0 1.042 1.042 2.424 1.616 3.893 1.616s2.851-.574 3.893-1.616c2.929-2.928 7.678-2.928 10.606 0 2.929 2.93 2.929 7.678 0 10.607-3.875 3.875-9.024 6.009-14.5 6.009s-10.623-2.134-14.498-6.009z" fill="#a44f3e"/><circle cx="208.5" cy="157.5" fill="#6d3326" r="15"/><circle cx="303.5" cy="157.5" fill="#6d3326" r="15"/><circle cx="218.5" cy="150" fill="#fff5f5" r="7.5"/><circle cx="145.999" cy="229.716" fill="#ffc143" r="10"/><circle cx="366.001" cy="229.716" fill="#ffc143" r="10"/><circle cx="313.5" cy="150" fill="#fff5f5" r="7.5"/><path d="m308.958 370.319h-105.916v135.942c17.054 3.758 34.775 5.739 52.958 5.739s35.904-1.981 52.958-5.739z" fill="#d9e7ec"/><path d="m326.861 77.512c-1.159-.043-2.297.002-3.412.128-2.054-14.804-15.15-26.077-30.703-25.233-14.704.797-26.724 12.701-27.653 27.397-1.079 17.072 12.448 31.255 29.288 31.255h.116c6.161-.024 12.16 1.978 16.827 5.999 3.941 3.395 9.071 5.447 14.68 5.447 12.931 0 23.314-10.906 22.454-24.021-.747-11.392-10.19-20.548-21.597-20.972z" fill="#883f2e"/><path d="m249.681 43.632c0-3.012-2.621-5.326-5.617-5.012-55.137 5.768-98.064 51.212-98.064 111.38v8.896c11.186-36.868 41.857-65.716 80.539-75.483 13.672-3.452 23.141-15.919 23.141-30.02v-9.761z" fill="#ffb509"/><path d="m256 38c-4.264 0-8.47.234-12.608.692-2.414 2.97-4.546 6.207-6.347 9.681-4.58 8.838-11.405 16.314-19.79 21.678-10.02 6.41-17.585 15.672-21.937 26.323 17.478-10.488 38.112-16.545 60.215-16.545 53.106 0 97.738 34.972 110.467 82.33v-12.159c0-62.567-49.249-112-110-112z" fill="#ffc143"/></g><g/><g/><g/><g/><g/><g/><g/><g/><g/><g/><g/><g/><g/><g/><g/></svg>