<svg id="Capa_1" enable-background="new 0 0 512 512" height="512" viewBox="0 0 512 512" width="512" xmlns="http://www.w3.org/2000/svg" xmlns:xlink="http://www.w3.org/1999/xlink"><linearGradient id="lg1"><stop offset="0" stop-color="#5a5a5a"/><stop offset="1" stop-color="#444"/></linearGradient><linearGradient id="SVGID_1_" gradientUnits="userSpaceOnUse" x1="200.232" x2="287.068" xlink:href="#lg1" y1="13.772" y2="236.875"/><linearGradient id="lg2"><stop offset="0" stop-color="#433f43" stop-opacity="0"/><stop offset="1" stop-color="#1a1a1a"/></linearGradient><linearGradient id="SVGID_00000026152897914192574040000007939915654111767230_" gradientUnits="userSpaceOnUse" x1="344.432" x2="413.716" xlink:href="#lg2" y1="152.09" y2="188.518"/><linearGradient id="lg3"><stop offset="0" stop-color="#ffdfcf"/><stop offset="1" stop-color="#ffa78f"/></linearGradient><linearGradient id="SVGID_00000037677130640885011840000007491472727200400559_" gradientUnits="userSpaceOnUse" x1="109.514" x2="144.994" xlink:href="#lg3" y1="190.998" y2="226.478"/><linearGradient id="SVGID_00000031203696313873805870000011117427112164092819_" gradientUnits="userSpaceOnUse" x1="357.608" x2="407.255" xlink:href="#lg3" y1="184.259" y2="233.907"/><linearGradient id="lg4"><stop offset="0" stop-color="#d1f19e"/><stop offset="1" stop-color="#78a91f"/></linearGradient><linearGradient id="SVGID_00000023994057673245898560000010836842011885753218_" gradientUnits="userSpaceOnUse" x1="118.707" x2="127.983" xlink:href="#lg4" y1="247.751" y2="260.878"/><linearGradient id="lg5"><stop offset="0" stop-color="#026841" stop-opacity="0"/><stop offset=".3243" stop-color="#046842" stop-opacity=".324"/><stop offset=".5509" stop-color="#0e6546" stop-opacity=".551"/><stop offset=".7476" stop-color="#1d614c" stop-opacity=".748"/><stop offset=".9263" stop-color="#335c54" stop-opacity=".926"/><stop offset="1" stop-color="#3e5959"/></linearGradient><linearGradient id="SVGID_00000054250244155307394700000014575983259538422451_" gradientUnits="userSpaceOnUse" x1="124.455" x2="130.632" xlink:href="#lg5" y1="255.188" y2="261.365"/><linearGradient id="SVGID_00000134229891280659550990000005901420772630493112_" gradientUnits="userSpaceOnUse" x1="122.774" x2="122.774" xlink:href="#lg5" y1="254.628" y2="266.969"/><linearGradient id="SVGID_00000078736486052054939210000007179575259111517587_" gradientUnits="userSpaceOnUse" x1="385.158" x2="394.435" xlink:href="#lg4" y1="247.751" y2="260.878"/><linearGradient id="SVGID_00000098185442965974187480000000404208152071439243_" gradientUnits="userSpaceOnUse" x1="390.907" x2="397.084" xlink:href="#lg5" y1="255.188" y2="261.365"/><linearGradient id="SVGID_00000054224556204103969180000012470199544607763129_" gradientUnits="userSpaceOnUse" x1="389.226" x2="389.226" xlink:href="#lg5" y1="254.628" y2="266.969"/><linearGradient id="SVGID_00000041264813486621836550000017916166416499410090_" gradientUnits="userSpaceOnUse" x1="208.455" x2="276.443" y1="357.182" y2="540.392"><stop offset="0" stop-color="#ffa1ae"/><stop offset=".1759" stop-color="#ff9aa8"/><stop offset=".4315" stop-color="#ff8699"/><stop offset=".7343" stop-color="#ff6780"/><stop offset="1" stop-color="#ff4565"/></linearGradient><linearGradient id="lg6"><stop offset="0" stop-color="#fd4755" stop-opacity="0"/><stop offset=".2613" stop-color="#f64452" stop-opacity=".261"/><stop offset=".6438" stop-color="#e33a4b" stop-opacity=".644"/><stop offset="1" stop-color="#ca2e43"/></linearGradient><linearGradient id="SVGID_00000183224615469777514810000002969515051285653644_" gradientUnits="userSpaceOnUse" x1="317.882" x2="289.787" xlink:href="#lg6" y1="465.928" y2="367.836"/><linearGradient id="SVGID_00000010286022188193598710000003908406727902815639_" gradientUnits="userSpaceOnUse" x1="363.947" x2="430.681" xlink:href="#lg6" y1="433.629" y2="420.282"/><linearGradient id="SVGID_00000158735672485804228900000010126960787617724860_" gradientUnits="userSpaceOnUse" x1="257.723" x2="293.079" y1="349.132" y2="426.63"><stop offset="0" stop-color="#fffbf5"/><stop offset=".4893" stop-color="#fff8ec"/><stop offset="1" stop-color="#fff2de"/></linearGradient><linearGradient id="lg7"><stop offset="0" stop-color="#f89580" stop-opacity="0"/><stop offset=".2699" stop-color="#f08f7a" stop-opacity=".271"/><stop offset=".6945" stop-color="#d97f69" stop-opacity=".696"/><stop offset=".9972" stop-color="#c5715a"/></linearGradient><linearGradient id="SVGID_00000072959112405440413430000001348655935369284747_" gradientUnits="userSpaceOnUse" x1="285.004" x2="311.792" xlink:href="#lg7" y1="380.201" y2="432.232"/><linearGradient id="SVGID_00000183227369466912631350000016790100678941100163_" gradientUnits="userSpaceOnUse" x1="178.243" x2="134.492" xlink:href="#lg7" y1="319.826" y2="309.934"/><linearGradient id="SVGID_00000029035024035423169100000006329469169694014129_" gradientUnits="userSpaceOnUse" x1="321.943" x2="387.418" xlink:href="#lg7" y1="308.117" y2="292.035"/><linearGradient id="SVGID_00000021837715265943535410000003227050182148985250_" gradientUnits="userSpaceOnUse" x1="249.353" x2="237.925" xlink:href="#lg7" y1="343.915" y2="413.914"/><linearGradient id="SVGID_00000173161705951606726960000001587311834064423856_" gradientUnits="userSpaceOnUse" x1="266.718" x2="284.337" xlink:href="#lg7" y1="388.68" y2="458.678"/><linearGradient id="SVGID_00000168118203984697074510000013388440826780680122_" gradientUnits="userSpaceOnUse" x1="328.215" x2="370.119" xlink:href="#lg7" y1="378.086" y2="395.228"/><linearGradient id="SVGID_00000117665343585667396940000010245980525073453706_" gradientUnits="userSpaceOnUse" x1="246.914" x2="366.184" xlink:href="#lg3" y1="186.433" y2="305.703"/><linearGradient id="SVGID_00000008858391731224464960000008052062490955634617_" gradientUnits="userSpaceOnUse" x1="252.054" x2="228.483" xlink:href="#lg7" y1="180.38" y2="116.096"/><linearGradient id="SVGID_00000134251329798199506410000008597824199875283591_" gradientUnits="userSpaceOnUse" x1="313.371" x2="389.349" xlink:href="#lg7" y1="195.519" y2="195.519"/><linearGradient id="SVGID_00000100375967247167153110000013589127291213159042_" gradientUnits="userSpaceOnUse" x1="256" x2="256" xlink:href="#lg7" y1="298.851" y2="360.465"/><linearGradient id="SVGID_00000091017231076356505640000017403417950980753838_" gradientUnits="userSpaceOnUse" x1="256" x2="256" xlink:href="#lg7" y1="232.772" y2="277.117"/><linearGradient id="SVGID_00000075860290075055293690000013423840707913976212_" gradientUnits="userSpaceOnUse" x1="263.653" x2="289.818" xlink:href="#lg7" y1="238.071" y2="244.436"/><linearGradient id="SVGID_00000142855557088177740410000011924217635290399650_" gradientTransform="matrix(-1 0 0 1 -552 0)" gradientUnits="userSpaceOnUse" x1="-800.348" x2="-774.182" y1="238.071" y2="244.436"><stop offset="0" stop-color="#ffddcd" stop-opacity="0"/><stop offset=".9972" stop-color="#ffddcd"/></linearGradient><linearGradient id="SVGID_00000005251435825086629010000013383308055274553996_" gradientUnits="userSpaceOnUse" x1="204.583" x2="291.419" xlink:href="#lg1" y1="12.079" y2="235.181"/><linearGradient id="SVGID_00000018931322352092412700000002463599073069650570_" gradientUnits="userSpaceOnUse" x1="256.654" x2="271.415" xlink:href="#lg2" y1="144.735" y2="210.924"/><linearGradient id="SVGID_00000019659871930822994690000005598480869752977796_" gradientUnits="userSpaceOnUse" x1="261.86" x2="259.003" xlink:href="#lg2" y1="107.986" y2="191.555"/><linearGradient id="SVGID_00000152233045327295211560000005580516666502955152_" gradientUnits="userSpaceOnUse" x1="133.88" x2="225.29" xlink:href="#lg1" y1="163.771" y2="227.055"/><linearGradient id="SVGID_00000149368138358358363160000017971735791733337227_" gradientUnits="userSpaceOnUse" x1="252.351" x2="343.76" xlink:href="#lg1" y1="163.771" y2="227.055"/><linearGradient id="SVGID_00000047749646347218280590000017239284715092750752_" gradientUnits="userSpaceOnUse" x1="256" x2="256" xlink:href="#lg6" y1="470.611" y2="512.89"/><g><path d="m436.371 157.049c0-19.385-10.467-36.205-25.813-44.621-2.531-1.379-4.123-4.136-4.02-7.121.561-15.765-4.89-31.71-16.376-43.746-7.607-7.955-16.852-13.139-26.596-15.571-2.413-.602-4.426-2.269-5.561-4.578-9.062-18.422-27.405-31.022-48.562-31.022-6.712 0-13.137 1.276-19.074 3.6-3.178 1.244-6.758.43-9.033-2.204-6.249-7.236-15.283-11.786-25.336-11.786s-19.087 4.55-25.337 11.786c-2.275 2.634-5.855 3.448-9.033 2.204-5.937-2.324-12.362-3.6-19.074-3.6-21.156 0-39.5 12.6-48.561 31.022-1.136 2.309-3.148 3.976-5.561 4.578-9.744 2.432-18.99 7.616-26.596 15.571-11.487 12.036-16.949 27.981-16.377 43.746.103 2.985-1.489 5.742-4.02 7.121-15.346 8.416-25.813 25.236-25.813 44.621 0 24.96 17.339 45.664 40.094 49.644 2.932.516 5.268 2.781 6.024 5.779 4.924 19.361 21.771 33.628 41.812 33.628 11.761 0 22.423-4.927 30.222-12.912 2.359-2.41 5.921-2.937 8.807-1.259 5.99 3.465 12.872 5.443 20.202 5.443 3.951 0 7.776-.576 11.395-1.643 14.304-4.244 29.329-4.244 43.633 0 3.619 1.067 7.444 1.643 11.395 1.643 7.329 0 14.212-1.978 20.202-5.443 2.886-1.678 6.448-1.151 8.807 1.259 7.799 7.984 18.461 12.912 30.222 12.912 20.041 0 36.887-14.266 41.812-33.628.756-2.997 3.092-5.263 6.024-5.779 22.754-3.979 40.092-24.683 40.092-49.644zm-180.371-77.833c.034.171.077.338.112.508h-.224c.035-.171.078-.338.112-.508z" fill="url(#SVGID_1_)"/><path d="m410.558 112.428c-2.531-1.379-4.123-4.136-4.02-7.121.561-15.765-4.89-31.71-16.377-43.746-7.607-7.955-16.852-13.139-26.596-15.571-2.413-.602-4.426-2.269-5.561-4.578-9.061-18.422-27.404-31.022-48.561-31.022-6.712 0-13.137 1.276-19.074 3.6-3.178 1.244-6.758.43-9.033-2.204-6.249-7.236-15.283-11.786-25.336-11.786-1.916 0-3.795.168-5.625.485v232.272c9.193-.682 18.459.307 27.441 2.972 3.619 1.067 7.444 1.642 11.395 1.642 7.329 0 14.212-1.978 20.202-5.443 2.886-1.678 6.448-1.151 8.807 1.259 7.799 7.984 18.461 12.911 30.222 12.911 20.041 0 36.887-14.266 41.812-33.628.756-2.997 3.092-5.263 6.024-5.779 22.755-3.98 40.094-24.684 40.094-49.644-.001-19.383-10.468-36.203-25.814-44.619zm-154.67-32.704c.035-.17.078-.337.112-.508.034.171.077.338.112.508z" fill="url(#SVGID_00000026152897914192574040000007939915654111767230_)"/><g><path d="m96.534 210.07c0-20.861 14.481-38.34 33.939-42.933 5.201-1.228 10.173 2.794 10.173 8.138v69.589c0 5.344-4.972 9.366-10.173 8.139-19.458-4.594-33.939-22.072-33.939-42.933z" fill="url(#SVGID_00000037677130640885011840000007491472727200400559_)"/><path d="m415.47 210.07c0-20.861-14.481-38.34-33.939-42.933-5.201-1.228-10.173 2.794-10.173 8.138v69.589c0 5.344 4.972 9.366 10.173 8.139 19.458-4.594 33.939-22.072 33.939-42.933z" fill="url(#SVGID_00000031203696313873805870000011117427112164092819_)"/></g><g><g><path d="m131.691 262.424c-4.925 4.925-12.909 4.925-17.834 0s-4.925-12.909 0-17.834 12.909-4.925 17.834 0c4.925 4.924 4.925 12.909 0 17.834z" fill="url(#SVGID_00000023994057673245898560000010836842011885753218_)"/><path d="m131.691 244.59c-.387-.387-.795-.74-1.217-1.066l-17.683 17.683c.326.422.679.83 1.066 1.217 4.925 4.925 12.909 4.925 17.834 0s4.925-12.91 0-17.834z" fill="url(#SVGID_00000054250244155307394700000014575983259538422451_)"/><path d="m110.164 253.507c0 6.965 5.646 12.61 12.61 12.61 6.965 0 12.61-5.646 12.61-12.61 0-1.508-.266-2.954-.751-4.295h-23.718c-.485 1.34-.751 2.786-.751 4.295z" fill="url(#SVGID_00000134229891280659550990000005901420772630493112_)"/></g><g><path d="m398.143 262.424c-4.925 4.925-12.909 4.925-17.834 0s-4.925-12.909 0-17.834 12.909-4.925 17.834 0c4.924 4.924 4.924 12.909 0 17.834z" fill="url(#SVGID_00000078736486052054939210000007179575259111517587_)"/><path d="m398.143 244.59c-.387-.387-.795-.74-1.217-1.066l-17.683 17.683c.326.422.679.83 1.066 1.217 4.925 4.925 12.909 4.925 17.834 0 4.924-4.925 4.924-12.91 0-17.834z" fill="url(#SVGID_00000098185442965974187480000000404208152071439243_)"/><path d="m376.615 253.507c0 6.965 5.646 12.61 12.61 12.61 6.965 0 12.61-5.646 12.61-12.61 0-1.508-.266-2.954-.751-4.295h-23.718c-.485 1.34-.751 2.786-.751 4.295z" fill="url(#SVGID_00000054224556204103969180000012470199544607763129_)"/></g></g><path d="m302.344 349.935h-92.689c-83.988 0-152.074 65.752-152.074 146.861 0 8.396 7.048 15.203 15.742 15.203h365.352c8.694 0 15.742-6.807 15.742-15.203.001-81.109-68.085-146.861-152.073-146.861z" fill="url(#SVGID_00000041264813486621836550000017916166416499410090_)"/><path d="m454.418 496.796c0-81.109-68.086-146.861-152.074-146.861h-79.026l-56.05 56.05 106.013 106.013h165.394c8.695.001 15.743-6.806 15.743-15.202z" fill="url(#SVGID_00000183224615469777514810000002969515051285653644_)"/><path d="m454.414 496.791v.01c0 8.393-7.048 15.199-15.742 15.199h-96.647l-29.485-29.485v-132.246c79.23 5.059 141.874 68.728 141.874 146.522z" fill="url(#SVGID_00000010286022188193598710000003908406727902815639_)"/><g><path d="m302.003 270.885h-92.005c-26.475 0-50.567 20.643-68.578 54.413-2.005 3.759-3.159 8.721-3.165 13.864v.087c0 56.074 52.716 101.532 117.745 101.532s117.745-45.457 117.745-101.532c0-.029 0-.058 0-.087-.005-5.143-1.159-10.104-3.165-13.864-18.01-33.77-42.103-54.413-68.577-54.413z" fill="url(#SVGID_00000158735672485804228900000010126960787617724860_)"/><path d="m302.003 270.885h-92.005c-23.106 0-44.395 15.726-61.412 42.175 1.054 55.212 48.738 99.665 107.415 99.665s106.361-44.453 107.415-99.665c-17.018-26.449-38.308-42.175-61.413-42.175z" fill="url(#SVGID_00000072959112405440413430000001348655935369284747_)"/><path d="m302.003 270.885h-92.005c-16.527 0-32.124 8.045-45.894 22.306-12.107 12.539-15.041 41.047-5.992 59.9 16.881 35.171 54.359 59.635 97.888 59.635 40.194 0 75.229-20.858 93.652-51.745 18.526-31.059 6.295-71.828-27.048-85.834-6.651-2.794-13.542-4.262-20.601-4.262z" fill="url(#SVGID_00000183227369466912631350000016790100678941100163_)"/><path d="m209.998 270.885c-16.527 0-32.124 8.045-45.894 22.306-.594.615-1.158 1.279-1.708 1.967 3.862 51.582 45.134 92.185 95.494 92.185 38.814 0 72.233-24.118 87.285-58.792 1.522-3.505 2.663-7.349 3.441-11.362 2.285-11.785-.816-24.629-7.198-30.119-12.11-10.417-25.43-16.184-39.417-16.184h-92.003z" fill="url(#SVGID_00000029035024035423169100000006329469169694014129_)"/><path d="m209.998 270.885c-16.527 0-32.124 8.045-45.894 22.306-.594.615-1.158 1.279-1.708 1.967 3.862 51.582 45.134 92.185 95.494 92.185 38.814 0 72.233-24.118 87.285-58.792 1.522-3.505 2.663-7.349 3.441-11.362 2.285-11.785-.816-24.629-7.198-30.119-12.11-10.417-25.43-16.184-39.417-16.184h-92.003z" fill="url(#SVGID_00000021837715265943535410000003227050182148985250_)"/><path d="m138.293 341.805c1.574 54.893 53.67 98.975 117.707 98.975s116.134-44.082 117.707-98.975z" fill="url(#SVGID_00000173161705951606726960000001587311834064423856_)"/><path d="m302.002 270.885h-73.254v167.156c8.747 1.787 17.87 2.739 27.251 2.739 65.029 0 117.745-45.457 117.745-101.532 0-.029 0-.058 0-.087-.005-5.143-1.16-10.104-3.165-13.864-18.009-33.769-42.102-54.412-68.577-54.412z" fill="url(#SVGID_00000168118203984697074510000013388440826780680122_)"/></g><g><path d="m256 35.205c-70.47 0-127.597 57.127-127.597 127.596v65.435c0 70.47 57.127 127.597 127.597 127.597 70.47 0 127.597-57.127 127.597-127.597v-65.435c0-70.469-57.127-127.596-127.597-127.596z" fill="url(#SVGID_00000117665343585667396940000010245980525073453706_)"/><path d="m256 35.205c-70.47 0-127.597 57.127-127.597 127.597v65.434c0 5.812.396 11.532 1.149 17.138h252.895c.753-5.606 1.149-11.325 1.149-17.138v-65.434c.001-70.47-57.126-127.597-127.596-127.597z" fill="url(#SVGID_00000008858391731224464960000008052062490955634617_)"/><path d="m256 35.205v320.628c70.47 0 127.597-57.127 127.597-127.597v-65.434c0-70.47-57.127-127.597-127.597-127.597z" fill="url(#SVGID_00000134251329798199506410000008597824199875283591_)"/><path d="m130.91 253.507c11.727 58.364 63.272 102.326 125.09 102.326 61.817 0 113.363-43.962 125.09-102.326z" fill="url(#SVGID_00000100375967247167153110000013589127291213159042_)"/><g><g><g><path d="m263.049 270.149h-14.098c-11.749 0-20.644-10.617-18.587-22.185l6.623-37.234c.844-4.742 4.967-8.197 9.783-8.197h18.458c4.817 0 8.94 3.454 9.783 8.197l6.623 37.234c2.059 11.568-6.836 22.185-18.585 22.185z" fill="url(#SVGID_00000091017231076356505640000017403417950980753838_)"/><path d="m263.049 270.149h-14.098c-11.749 0-20.644-10.617-18.587-22.185l6.623-37.234c.844-4.742 4.967-8.197 9.783-8.197h18.458c4.817 0 8.94 3.454 9.783 8.197l6.623 37.234c2.059 11.568-6.836 22.185-18.585 22.185z" fill="url(#SVGID_00000075860290075055293690000013423840707913976212_)"/><path d="m248.951 270.149h14.098c11.749 0 20.644-10.617 18.587-22.185l-6.623-37.234c-.843-4.742-4.967-8.197-9.783-8.197h-18.458c-4.817 0-8.94 3.454-9.783 8.197l-6.623 37.234c-2.059 11.568 6.836 22.185 18.585 22.185z" fill="url(#SVGID_00000142855557088177740410000011924217635290399650_)"/></g></g></g></g><g><path d="m401.643 162.925-1.449-13.856c-7.256-69.354-68.812-120.461-140.275-118.924-71.464-1.537-133.019 49.571-140.275 118.925l-1.45 13.856c-1.246 11.907 9.737 21.852 22.034 19.817 3.777-.625 7.526-1.742 11.154-3.383 4.844-2.194 9.059-5.129 12.567-8.611 1.888-1.867 4.734-2.495 7.248-1.489 6.914 2.768 14.936 2.836 22.19-.447s12.26-9.241 14.366-16.081c.775-2.494 3.089-4.201 5.791-4.41 5.049-.398 10.105-1.644 14.949-3.838 15.269-6.901 24.325-21.242 24.754-36.418.058-1.904.957-3.662 2.492-4.852.367-.283.729-.571 1.087-.865 1.807-1.487 4.378-1.487 6.186 0 .358.294.72.583 1.087.865 1.535 1.19 2.434 2.948 2.492 4.852.429 15.176 9.485 29.517 24.754 36.418 4.844 2.194 9.9 3.44 14.949 3.838 2.702.209 5.016 1.916 5.791 4.41 2.106 6.84 7.111 12.799 14.366 16.081 7.254 3.283 15.276 3.215 22.19.447 2.514-1.006 5.36-.378 7.248 1.489 3.507 3.482 7.723 6.417 12.567 8.611 3.627 1.641 7.376 2.758 11.154 3.383 12.296 2.034 23.278-7.91 22.033-19.818zm-234.764-46.957.169-.069c.028.119.055.247.082.375-.08-.105-.171-.201-.251-.306zm185.829.306c.027-.128.054-.257.082-.375l.168.069c-.08.105-.171.201-.25.306z" fill="url(#SVGID_00000005251435825086629010000013383308055274553996_)"/></g><g><path d="m401.643 162.925-1.449-13.856c-7.256-69.354-68.812-120.461-140.275-118.924-71.464-1.537-133.019 49.571-140.275 118.925l-1.45 13.856c-1.246 11.907 9.737 21.852 22.034 19.817 3.777-.625 7.526-1.742 11.154-3.383 4.844-2.194 9.059-5.129 12.567-8.611 1.888-1.867 4.734-2.495 7.248-1.489 6.914 2.768 14.936 2.836 22.19-.447s12.26-9.241 14.366-16.081c.775-2.494 3.089-4.201 5.791-4.41 5.049-.398 10.105-1.644 14.949-3.838 15.269-6.901 24.325-21.242 24.754-36.418.058-1.904.957-3.662 2.492-4.852.367-.283.729-.571 1.087-.865 1.807-1.487 4.378-1.487 6.186 0 .358.294.72.583 1.087.865 1.535 1.19 2.434 2.948 2.492 4.852.429 15.176 9.485 29.517 24.754 36.418 4.844 2.194 9.9 3.44 14.949 3.838 2.702.209 5.016 1.916 5.791 4.41 2.106 6.84 7.111 12.799 14.366 16.081 7.254 3.283 15.276 3.215 22.19.447 2.514-1.006 5.36-.378 7.248 1.489 3.507 3.482 7.723 6.417 12.567 8.611 3.627 1.641 7.376 2.758 11.154 3.383 12.296 2.034 23.278-7.91 22.033-19.818zm-234.764-46.957.169-.069c.028.119.055.247.082.375-.08-.105-.171-.201-.251-.306zm185.829.306c.027-.128.054-.257.082-.375l.168.069c-.08.105-.171.201-.25.306z" fill="url(#SVGID_00000018931322352092412700000002463599073069650570_)"/></g><g><path d="m401.643 162.925-1.449-13.856c-7.256-69.354-68.812-120.461-140.275-118.924-71.464-1.537-133.019 49.571-140.275 118.925l-1.45 13.856c-1.246 11.907 9.737 21.852 22.034 19.817 3.777-.625 7.526-1.742 11.154-3.383 4.844-2.194 9.059-5.129 12.567-8.611 1.888-1.867 4.734-2.495 7.248-1.489 6.914 2.768 14.936 2.836 22.19-.447s12.26-9.241 14.366-16.081c.775-2.494 3.089-4.201 5.791-4.41 5.049-.398 10.105-1.644 14.949-3.838 15.269-6.901 24.325-21.242 24.754-36.418.058-1.904.957-3.662 2.492-4.852.367-.283.729-.571 1.087-.865 1.807-1.487 4.378-1.487 6.186 0 .358.294.72.583 1.087.865 1.535 1.19 2.434 2.948 2.492 4.852.429 15.176 9.485 29.517 24.754 36.418 4.844 2.194 9.9 3.44 14.949 3.838 2.702.209 5.016 1.916 5.791 4.41 2.106 6.84 7.111 12.799 14.366 16.081 7.254 3.283 15.276 3.215 22.19.447 2.514-1.006 5.36-.378 7.248 1.489 3.507 3.482 7.723 6.417 12.567 8.611 3.627 1.641 7.376 2.758 11.154 3.383 12.296 2.034 23.278-7.91 22.033-19.818zm-234.764-46.957.169-.069c.028.119.055.247.082.375-.08-.105-.171-.201-.251-.306zm185.829.306c.027-.128.054-.257.082-.375l.168.069c-.08.105-.171.201-.25.306z" fill="url(#SVGID_00000019659871930822994690000005598480869752977796_)"/></g><g><g><path d="m196.765 230.605c-10.241 0-18.543-8.302-18.543-18.543v-9.509c0-10.241 8.302-18.543 18.543-18.543 10.241 0 18.543 8.302 18.543 18.543v9.509c0 10.241-8.302 18.543-18.543 18.543z" fill="url(#SVGID_00000152233045327295211560000005580516666502955152_)"/></g><g><path d="m315.235 230.605c-10.241 0-18.543-8.302-18.543-18.543v-9.509c0-10.241 8.302-18.543 18.543-18.543 10.241 0 18.543 8.302 18.543 18.543v9.509c0 10.241-8.302 18.543-18.543 18.543z" fill="url(#SVGID_00000149368138358358363160000017971735791733337227_)"/></g></g><path d="m57.582 496.796c0 8.397 7.048 15.203 15.742 15.203h365.352c8.694 0 15.742-6.807 15.742-15.203v-.001c0-29.757-9.173-57.441-24.925-80.575h-346.986c-15.752 23.135-24.925 50.819-24.925 80.576z" fill="url(#SVGID_00000047749646347218280590000017239284715092750752_)"/></g></svg>