<svg id="Layer_2" enable-background="new 0 0 512 512" viewBox="0 0 512 512" xmlns="http://www.w3.org/2000/svg"><path d="m389.77 130.4h-7.12c0 .01-.01.02-.02.01-.48-.27-8.33-11.52-22.3-23.26-.44-.37-.88-.73-1.33-1.1-2.24-1.84-4.63-3.68-7.17-5.48-1.01-.72-2.05-1.44-3.11-2.14-1.06-.71-2.14-1.41-3.24-2.09-1.66-1.03-3.36-2.04-5.12-3.01-1.75-.97-3.56-1.91-5.41-2.81s-3.75-1.76-5.7-2.56c-7.79-3.22-16.33-5.64-25.56-6.69-.29-.03-.58-.06-.87-.09-.58-.06-1.15-.12-1.73-.18-30.67 1.44-77.42 6.21-97.37 21.6-31.96 24.67-73.55 27.8-73.55 27.8h-7.12c-11.57 0-20.94 9.38-20.94 20.94v30.44c0 11.57 9.38 20.94 20.94 20.94h7.21c2.32 67.43 58.19 121.89 126.16 121.89s123.84-54.46 126.16-121.89h7.21c11.57 0 20.94-9.38 20.94-20.94v-30.44c-.02-11.56-9.4-20.94-20.96-20.94z" fill="#e4b69d"/><g><path d="m458.08 411.28c-38.69 50.87-96.07 86.75-161.91 97.4-5.21.84-10.48 1.53-15.8 2.04-6.43.64-12.93 1.03-19.5 1.17-.23.01-.46.01-.69.02h-9.94c-.25 0-.5-.01-.75-.02-5.74-.12-11.43-.44-17.07-.94-5.32-.47-10.59-1.1-15.81-1.89-65.92-10-123.55-45.28-162.69-95.64 6.08-16.35 15.62-31.01 27.72-43.12 21.8-21.79 51.91-35.27 85.16-35.27h179.21c50.91 0 94.45 31.6 112.07 76.25z" fill="#38336b"/></g><g><path d="m256.4 324.61c-19.23 0-37.49-4.36-53.85-12.14v23.56c0 28.38 23.22 51.59 51.59 51.59h4.51c28.38 0 51.59-23.22 51.59-51.59v-23.57c-16.34 7.79-34.61 12.15-53.84 12.15z" fill="#cea28b"/></g><g><g><g><path d="m209.81 176.04c-6.71 0-12.19-5.49-12.19-12.19v-16.25c0-6.71 5.49-12.19 12.19-12.19 6.71 0 12.19 5.49 12.19 12.19v16.24c0 6.71-5.49 12.2-12.19 12.2z" fill="#414042"/></g></g><g><g><path d="m302.99 176.04c-6.71 0-12.19-5.49-12.19-12.19v-16.25c0-6.71 5.49-12.19 12.19-12.19 6.71 0 12.19 5.49 12.19 12.19v16.24c0 6.71-5.48 12.2-12.19 12.2z" fill="#414042"/></g></g></g><g><g><path d="m254.49 272.62c-19.25 0-34.91-15.66-34.91-34.91 0-2.59 2.1-4.69 4.69-4.69s4.69 2.1 4.69 4.69c0 14.07 11.45 25.52 25.52 25.52s25.52-11.45 25.52-25.52c0-2.59 2.1-4.69 4.69-4.69s4.69 2.1 4.69 4.69c.02 19.25-15.64 34.91-34.89 34.91z" fill="#f09372"/></g></g><g><path d="m205.88 379.59h97.59l-9.23 86.97-73.06-3.97z" fill="#d1d3d4"/></g><g><path d="m202.56 335.04s29.21 35.2 59.12 44.14l-25.92 35.44s-56.21-56.42-33.2-79.58z" fill="#f1f2f2"/></g><g><path d="m310.25 335.03s-29.23 35.18-59.14 44.12l25.92 35.44c-.01 0 56.23-56.4 33.22-79.56z" fill="#f1f2f2"/></g><g><path d="m252.1 388-8.79 13.75c-2.18 3.4.27 7.87 4.31 7.87h17.57c4.04 0 6.48-4.46 4.31-7.87l-8.79-13.75c-2.01-3.15-6.6-3.15-8.61 0z" fill="#dc455b"/></g><g><path d="m280.37 510.72v.02c-6.19.62-12.44 1-18.75 1.15h-12.87c-5.49-.13-10.93-.44-16.33-.92v-.02l8.95-65.49 5.51-40.34h19.06l5.47 40.03z" fill="#dc455b"/></g><g><path d="m260.18 485.99v25.92h-9.94c-.25 0-.5-.01-.75-.02h-.74c-5.49-.13-10.93-.44-16.33-.92v-.02c-5.32-.47-10.59-1.1-15.81-1.89l-.06-.05s-34.34-68.27-41.61-82c-7.27-13.74 14.94-28.69 14.94-28.69-84.83 0 12.68-63.29 12.68-63.29 1.07 22.17 22.41 73.75 38.81 110.43 6.08 13.6 11.48 25.15 14.92 32.4 2.44 5.15 3.89 8.13 3.89 8.13z" fill="#7873d5"/></g><g><path d="m322.67 398.32s22.22 14.95 14.95 28.69c-6.97 13.17-38.86 76.54-41.45 81.67-5.21.84-10.48 1.53-15.8 2.04v.02c-6.19.62-12.44 1-18.75 1.15h-.75c-.23.01-.46.01-.69.02h-7.8v-25.92s1.46-2.98 3.91-8.13c3.48-7.3 8.96-18.98 15.12-32.71 16.45-36.67 37.77-88 38.84-110.12v-.01s.01 0 .02.01c1.38.9 96.62 63.29 12.4 63.29z" fill="#7873d5"/></g><g><path d="m394.85 53.1c-9.62-7.43-22.43-9.31-31.05-17.89-23.66-23.57-62.94-35.12-107.4-35.12-72.32 0-140.98 19.7-130.94 93.66 1.21 8.91 4.69 36.65 4.69 36.66s41.59-3.13 73.55-27.8c19.95-15.4 66.7-20.16 97.37-21.6.87.08 1.75.16 2.6.26 49.21 5.6 78.93 49.99 78.96 49.14 9.4-9.15 16.72-26.73 18.83-41.32 2.61-17.84.71-30.34-6.61-35.99z" fill="#414042"/></g></svg>